<svg width="120" height="246" viewBox="0 0 120 246" fill="none" xmlns="http://www.w3.org/2000/svg">
<g clip-path="url(#clip0_226_10539)">
<path d="M100.744 246H19.2561C8.63831 246 0 237.457 0 226.956V19.044C0 8.54304 8.63831 0 19.2561 0H100.744C111.362 0 120 8.54304 120 19.044V226.956C120 237.457 111.362 246 100.744 246Z" fill="#2F2E41"/>
<path d="M100.827 240.861H19.1733C11.2063 240.861 4.72461 234.45 4.72461 226.571V18.2612C4.72461 10.382 11.2063 3.97168 19.1733 3.97168H100.827C108.794 3.97168 115.276 10.382 115.276 18.2612V226.571C115.276 234.45 108.794 240.861 100.827 240.861Z" fill="white"/>
<path d="M72.7552 17.5213H46.771C43.7752 17.5213 41.3379 15.111 41.3379 12.1481C41.3379 9.18523 43.7752 6.7749 46.771 6.7749H72.7552C75.7511 6.7749 78.1883 9.18523 78.1883 12.1481C78.1883 15.111 75.7511 17.5213 72.7552 17.5213Z" fill="#2F2E41"/>
<path d="M74.3577 132.519C89.1454 132.519 101.133 120.663 101.133 106.038C101.133 91.4134 89.1454 79.5576 74.3577 79.5576C59.5699 79.5576 47.582 91.4134 47.582 106.038C47.582 120.663 59.5699 132.519 74.3577 132.519Z" fill="#417453"/>
<path d="M61.9901 187.126C61.8632 179.488 61.7449 171.85 61.6372 164.212C61.5295 156.577 61.4325 148.941 61.3477 141.306C61.2629 133.672 61.1904 126.037 61.1319 118.402C61.0734 110.767 61.0289 103.131 61.0001 95.4955C60.9857 91.6766 60.9753 87.8577 60.969 84.0388C60.9649 81.5892 60.691 78.4108 62.3397 76.3545C62.6956 75.9106 63.1412 75.589 63.6525 75.3423C64.6225 74.8745 63.7733 73.4436 62.806 73.9101C60.2996 75.119 59.5614 77.9779 59.3583 80.5074C59.2312 82.0903 59.291 83.6883 59.294 85.2744C59.2977 87.2214 59.3024 89.1684 59.3082 91.1153C59.3312 98.8638 59.3707 106.612 59.425 114.36C59.4796 122.145 59.549 129.929 59.6315 137.713C59.7136 145.461 59.8086 153.208 59.9147 160.955C60.0209 168.705 60.1382 176.455 60.2648 184.205C60.2807 185.179 60.2968 186.153 60.3129 187.126C60.3307 188.193 62.0079 188.196 61.9901 187.126Z" fill="#2F2E41"/>
<path d="M79.627 97.3015C79.627 97.3015 86.6189 123.955 94.0985 130.876C94.0985 130.876 96.3837 146.24 108.99 148.559C108.99 148.559 99.746 137.792 101.736 132.807C104.101 126.88 101.105 91.7875 79.6573 97.2464" fill="#34C759"/>
<path d="M60.2936 121.182C61.3563 121.413 62.4583 121.127 63.3305 120.497C64.2413 119.839 64.8427 118.933 65.27 117.912C65.707 116.869 65.9457 115.752 66.1987 114.655C66.4673 113.489 66.7188 112.32 66.9973 111.157C67.9761 107.069 69.4229 102.683 72.9182 100.004C74.8215 98.5457 77.2257 97.7932 79.6271 97.8547C80.3468 97.8731 80.3464 96.7673 79.6271 96.7489C77.3887 96.6916 75.1321 97.289 73.2268 98.4546C71.4143 99.5634 69.9694 101.17 68.8765 102.966C66.4567 106.943 65.8908 111.577 64.7269 115.988C64.4417 117.068 64.0755 118.212 63.2995 119.055C62.6111 119.803 61.5802 120.331 60.5908 120.116C60.2962 120.052 59.9861 120.204 59.9031 120.502C59.8263 120.779 59.9974 121.118 60.2936 121.182Z" fill="#2F2E41"/>
<path d="M108.942 148.738C104.75 147.637 101.352 143.34 99.1133 136.313C97.4312 131.033 96.9807 126.01 96.9763 125.96C96.3943 119.319 94.3879 110.003 88.1348 103.338C84.4064 99.3639 80.8964 98.213 80.8613 98.2019L80.9756 97.8511C81.1224 97.8978 84.6139 99.0431 88.408 103.087C91.8991 106.808 96.284 113.791 97.3477 125.929C97.3649 126.127 99.187 145.794 109.038 148.382L108.942 148.738Z" fill="#2F2E41"/>
<path d="M79.3105 67.2C79.3105 67.2 86.3025 93.8535 93.7821 100.775C93.7821 100.775 96.0673 116.138 108.674 118.458C108.674 118.458 99.4296 107.691 101.419 102.705C103.785 96.7785 100.789 61.686 79.3409 67.1448" fill="#34C759"/>
<path d="M59.9772 91.0808C61.0399 91.3114 62.1419 91.0252 63.0141 90.3952C63.9249 89.7373 64.5263 88.8312 64.9536 87.8108C65.3906 86.7674 65.6293 85.6507 65.8823 84.5533C66.1509 83.3879 66.4024 82.2186 66.6809 81.0554C67.6597 76.9675 69.1065 72.5817 72.6018 69.9028C74.505 68.4442 76.9093 67.6917 79.3107 67.7531C80.0304 67.7715 80.03 66.6657 79.3107 66.6473C77.0723 66.59 74.8157 67.1875 72.9104 68.353C71.0979 69.4619 69.653 71.0682 68.5601 72.8645C66.1403 76.8416 65.5744 81.4752 64.4105 85.8861C64.1253 86.9667 63.7591 88.1103 62.9831 88.9533C62.2947 89.7011 61.2638 90.2292 60.2744 90.0145C59.9798 89.9506 59.6697 90.1021 59.5867 90.4007C59.5098 90.6773 59.681 91.0165 59.9772 91.0808Z" fill="#2F2E41"/>
<path d="M108.626 118.636C104.434 117.535 101.035 113.239 98.7968 106.212C97.1148 100.931 96.6643 95.9088 96.6599 95.8587C96.0779 89.2171 94.0715 79.901 87.8184 73.2361C84.09 69.2623 80.58 68.1114 80.5449 68.1003L80.6592 67.7495C80.806 67.7962 84.2975 68.9415 88.0916 72.9854C91.5827 76.7065 95.9676 83.6898 97.0313 95.827C97.0485 96.0255 98.8706 115.692 108.721 118.28L108.626 118.636Z" fill="#2F2E41"/>
<path d="M41.3653 125.688C41.3653 125.688 34.3734 152.341 26.8937 159.263C26.8937 159.263 24.6085 174.626 12.002 176.946C12.002 176.946 21.2462 166.179 19.2563 161.193C16.8908 155.266 19.8872 120.174 41.3349 125.633" fill="#34C759"/>
<path d="M60.4021 148.502C59.5381 148.689 58.6128 148.305 57.9482 147.695C57.2034 147.011 56.7796 146.07 56.4818 145.126C56.1393 144.04 55.9087 142.917 55.659 141.808C55.3901 140.613 55.1267 139.417 54.8215 138.23C53.7594 134.102 52.0287 129.863 48.4248 127.277C46.3977 125.823 43.8655 125.071 41.3658 125.135C40.6477 125.153 40.6449 126.259 41.3658 126.24C43.526 126.185 45.6647 126.786 47.4691 127.964C49.167 129.072 50.4707 130.678 51.4512 132.424C52.5447 134.37 53.228 136.5 53.7758 138.651C54.0746 139.824 54.334 141.007 54.6001 142.187C54.8522 143.306 55.0838 144.439 55.4394 145.531C55.8129 146.677 56.3705 147.831 57.3207 148.619C58.2647 149.402 59.47 149.835 60.6993 149.568C60.9943 149.504 61.1668 149.165 61.0898 148.888C61.0062 148.587 60.698 148.438 60.4021 148.502Z" fill="#2F2E41"/>
<path d="M12.0488 177.124L11.9531 176.767C21.8038 174.18 23.6258 154.513 23.6431 154.315C24.2302 147.615 26.2577 138.214 32.5827 131.473C36.3768 127.429 39.8684 126.284 40.0151 126.237L40.1295 126.588C40.0943 126.599 36.5677 127.759 32.8386 131.742C29.3943 135.42 25.0676 142.328 24.0144 154.346C24.0101 154.396 23.5595 159.418 21.8775 164.699C19.6392 171.726 16.2405 176.022 12.0488 177.124Z" fill="#2F2E41"/>
<path d="M40.2618 72.659C40.2618 72.659 33.2698 99.3124 25.7902 106.234C25.7902 106.234 23.505 121.597 10.8984 123.917C10.8984 123.917 20.1427 113.15 18.1528 108.164C15.7873 102.237 18.7836 67.1449 40.2314 72.6038" fill="#34C759"/>
<path d="M59.2966 95.473C58.4326 95.6605 57.5073 95.276 56.8427 94.6659C56.098 93.9823 55.6741 93.0409 55.3763 92.0968C55.0338 91.0109 54.8033 89.8884 54.5536 88.7791C54.2846 87.5843 54.0213 86.388 53.716 85.2016C52.6539 81.0732 50.9232 76.8337 47.3193 74.2485C45.2922 72.7944 42.76 72.0419 40.2604 72.1058C39.5422 72.1242 39.5394 73.23 40.2604 73.2116C42.4205 73.1563 44.5593 73.7575 46.3637 74.9353C48.0615 76.0436 49.3653 77.6492 50.3457 79.3947C51.4392 81.3415 52.1225 83.4712 52.6704 85.6226C52.9691 86.7956 53.2286 87.9779 53.4946 89.1585C53.7467 90.2769 53.9783 91.4105 54.334 92.5024C54.7074 93.6486 55.2651 94.802 56.2153 95.5903C57.1592 96.3734 58.3645 96.8061 59.5939 96.5393C59.8889 96.4753 60.0613 96.1361 59.9843 95.8592C59.9007 95.5582 59.5925 95.4088 59.2966 95.473Z" fill="#2F2E41"/>
<path d="M10.9453 124.095L10.8496 123.739C20.7021 121.15 22.5224 101.484 22.5396 101.286C23.1267 94.5863 25.1542 85.1855 31.4793 78.4439C35.2733 74.4 38.7649 73.2547 38.9117 73.208L39.026 73.5588C38.9909 73.57 35.4642 74.7304 31.7351 78.7132C28.2908 82.3915 23.9641 89.2991 22.911 101.317C22.9066 101.367 22.456 106.39 20.774 111.67C18.5357 118.697 15.137 122.994 10.9453 124.095Z" fill="#2F2E41"/>
<path d="M101.707 187.794C101.707 187.915 101.608 188.013 101.485 188.013H24.8546C24.7316 188.013 24.6328 187.915 24.6328 187.794C24.6328 187.672 24.7316 187.574 24.8546 187.574H101.485C101.608 187.574 101.707 187.672 101.707 187.794Z" fill="#2E2E43"/>
</g>
<defs>
<clipPath id="clip0_226_10539">
<rect width="120" height="246" fill="white"/>
</clipPath>
</defs>
</svg>
