<svg width="47" height="46" viewBox="0 0 47 46" fill="none" xmlns="http://www.w3.org/2000/svg">
<path d="M35.6833 8.70108C37.9437 4.30404 35.9793 29.1597 29.3878 33.391C22.7963 37.6223 15.7285 34.5283 17.141 31.3986C17.141 31.3986 33.423 13.0981 35.6833 8.70108Z" fill="#00BE13"/>
<path d="M13.7454 18.1243C16.5419 14.931 34.7132 5.33888 34.7132 7.61994C34.7132 7.61994 21.6638 22.2171 16.5373 29.9733C16.0698 30.6805 15.1858 33.7052 14.6511 35.6323C14.4661 36.2993 13.5934 36.4716 13.1725 35.922C12.9453 35.6253 12.8631 35.2424 12.9485 34.8786L14.207 29.5188C10.0125 25.8686 10.9489 21.3176 13.7454 18.1243Z" fill="#00BE13"/>
<path d="M14.2569 0H9.16582C4.19262 0 0.138672 3.99727 0.138672 8.90089V13.7116C0.138672 14.6644 0.94004 15.4545 1.9064 15.4545C2.87275 15.4545 3.67412 14.6644 3.67412 13.7116V8.90089C3.67412 5.90294 6.1489 3.48599 9.16582 3.48599H14.2569C15.2232 3.48599 16.0246 2.69583 16.0246 1.74299C16.0246 0.790157 15.2468 0 14.2569 0Z" fill="#068042"/>
<path d="M37.8343 0H32.7433C31.7769 0 30.9756 0.790157 30.9756 1.74299C30.9756 2.69583 31.7769 3.48599 32.7433 3.48599H37.8343C40.8747 3.48599 43.326 5.92618 43.326 8.90089V13.7116C43.326 14.6644 44.1274 15.4545 45.0937 15.4545C46.06 15.4545 46.8614 14.6644 46.8614 13.7116V8.90089C46.885 3.99727 42.831 0 37.8343 0Z" fill="#068042"/>
<path d="M14.2569 41.9686H9.16582C6.12533 41.9686 3.67412 39.5284 3.67412 36.5537V31.743C3.67412 30.7902 2.87275 30 1.9064 30C0.94004 30 0.138672 30.7902 0.138672 31.743V36.5537C0.138672 41.4573 4.19262 45.4545 9.16582 45.4545H14.2569C15.2232 45.4545 16.0246 44.6876 16.0246 43.7116C16.0246 42.7587 15.2468 41.9686 14.2569 41.9686Z" fill="#068042"/>
<path d="M45.0938 30C44.1274 30 43.3261 30.7902 43.3261 31.743V36.5537C43.3261 39.5516 40.8513 41.9686 37.8344 41.9686H32.7433C31.777 41.9686 30.9756 42.7587 30.9756 43.7116C30.9756 44.6644 31.777 45.4545 32.7433 45.4545H37.8344C42.8076 45.4545 46.8615 41.4573 46.8615 36.5537V31.743C46.8615 30.7669 46.0601 30 45.0938 30Z" fill="#068042"/>
</svg>
