<svg width="344" height="256" viewBox="0 0 344 256" fill="none" xmlns="http://www.w3.org/2000/svg">
<g clip-path="url(#clip0_47_12685)">
<path d="M343.523 224.973H0V225.145H343.523V224.973Z" fill="#EBEBEB"/>
<path d="M58.7969 231.514H36.042V231.685H58.7969V231.514Z" fill="#EBEBEB"/>
<path d="M149.7 229.652H117.581V229.824H149.7V229.652Z" fill="#EBEBEB"/>
<path d="M90.6834 236.825H77.499V236.996H90.6834V236.825Z" fill="#EBEBEB"/>
<path d="M235.341 233.836H214.585V234.008H235.341V233.836Z" fill="#EBEBEB"/>
<path d="M254.729 233.836H241.455V234.008H254.729V233.836Z" fill="#EBEBEB"/>
<path d="M309.108 236.742H268.875V236.914H309.108V236.742Z" fill="#EBEBEB"/>
<path d="M162.837 194.331H30.1681C28.004 194.331 26.2451 192.572 26.2451 190.408V3.92303C26.2451 1.75884 28.004 0 30.1681 0H162.837C165.001 0 166.76 1.75884 166.76 3.92303V190.408C166.76 192.572 165.001 194.331 162.837 194.331ZM30.1681 0.171761C28.1001 0.171761 26.4169 1.85502 26.4169 3.92303V190.408C26.4169 192.476 28.1001 194.159 30.1681 194.159H162.837C164.905 194.159 166.588 192.476 166.588 190.408V3.92303C166.588 1.85502 164.905 0.171761 162.837 0.171761H30.1681Z" fill="#EBEBEB"/>
<path d="M311.445 194.331H178.777C176.612 194.331 174.854 192.572 174.854 190.408V3.92303C174.854 1.75884 176.612 0 178.777 0H311.445C313.609 0 315.368 1.75884 315.368 3.92303V190.408C315.368 192.572 313.609 194.331 311.445 194.331ZM178.777 0.171761C176.709 0.171761 175.025 1.85502 175.025 3.92303V190.408C175.025 192.476 176.709 194.159 178.777 194.159H311.445C313.513 194.159 315.196 192.476 315.196 190.408V3.92303C315.196 1.85502 313.513 0.171761 311.445 0.171761H178.777Z" fill="#EBEBEB"/>
<path d="M61.4971 130.725L224.966 130.725V28.4304L61.4971 28.4304V130.725Z" fill="#F0F0F0"/>
<path d="M221.765 125.915V33.2393L64.6923 33.2393V125.915L221.765 125.915Z" fill="#FAFAFA"/>
<path d="M201.091 125.915L184.973 33.2393H173.094L189.212 125.915H201.091Z" fill="white"/>
<path d="M186.471 125.915L170.353 33.2393H165.042L181.153 125.915H186.471Z" fill="white"/>
<path d="M160.466 125.915L144.355 33.2393H132.476L148.587 125.915H160.466Z" fill="white"/>
<path d="M130.518 125.915L114.4 33.2393H109.089L125.2 125.915H130.518Z" fill="white"/>
<path d="M180.5 125.915V33.2393H179.689V125.915H180.5Z" fill="#E0E0E0"/>
<path d="M221.771 125.915V33.2393H220.961V125.915H221.771Z" fill="#E0E0E0"/>
<path d="M183.695 125.915V33.2393H180.494V125.915H183.695Z" fill="#F0F0F0"/>
<path d="M140.844 125.915V33.2393H140.033V125.915H140.844Z" fill="#E0E0E0"/>
<path d="M144.039 125.915V33.2393H140.837V125.915H144.039Z" fill="#F0F0F0"/>
<path d="M101.174 125.915V33.2393H100.363V125.915H101.174Z" fill="#E0E0E0"/>
<path d="M104.369 125.915V33.2393H101.168V125.915H104.369Z" fill="#F0F0F0"/>
<path d="M61.4971 130.724L61.4971 28.4302H60.6864L60.6864 130.724H61.4971Z" fill="#E0E0E0"/>
<path d="M44.8843 21.4082H232.221C232.812 21.4082 233.293 20.9273 233.293 20.3364C233.293 19.7456 232.812 19.2646 232.221 19.2646H44.8843C44.2934 19.2646 43.8125 19.7456 43.8125 20.3364C43.8125 20.9273 44.2934 21.4082 44.8843 21.4082Z" fill="#E0E0E0"/>
<g opacity="0.6">
<path d="M158.522 203.853H229.604L229.604 17.2034H158.522L158.522 203.853Z" fill="#F5F5F5"/>
<path d="M201.743 205.385H207.7L206.03 18.7358H203.365L201.743 205.385Z" fill="#E6E6E6"/>
<path d="M214.887 205.385H217.765L216.955 18.7358H215.67L214.887 205.385Z" fill="#E6E6E6"/>
<path d="M184.472 205.385H187.344L186.54 18.7358H185.255L184.472 205.385Z" fill="#E6E6E6"/>
<path d="M169.837 205.385H172.709L171.905 18.7358H170.62L169.837 205.385Z" fill="#E6E6E6"/>
</g>
<g opacity="0.6">
<path d="M48.5529 203.853H84.0938L84.0937 17.2034H48.5529L48.5529 203.853Z" fill="#F5F5F5"/>
<path d="M70.167 205.385H73.1419L72.3106 18.7358H70.9777L70.167 205.385Z" fill="#E6E6E6"/>
<path d="M76.7354 205.385H78.1713L77.7728 18.7358H77.127L76.7354 205.385Z" fill="#E6E6E6"/>
<path d="M61.5312 205.385H62.9672L62.5618 18.7358H61.916L61.5312 205.385Z" fill="#E6E6E6"/>
<path d="M54.2139 205.385H55.6498L55.2444 18.7358H54.5986L54.2139 205.385Z" fill="#E6E6E6"/>
</g>
<path d="M295.244 46.0664H248.092V104.919H295.244V46.0664Z" fill="#E6E6E6"/>
<path d="M297.319 46.0664H248.8V104.919H297.319V46.0664Z" fill="#F5F5F5"/>
<path d="M293.602 100.741V50.2437H252.523V100.741H293.602Z" fill="#FAFAFA"/>
<path d="M293.602 100.741V50.2437H293.217V100.741H293.602Z" fill="#E6E6E6"/>
<path d="M286.653 72.1706C288.971 69.8524 288.971 66.0939 286.653 63.7757C284.335 61.4575 280.576 61.4575 278.258 63.7757C275.94 66.0939 275.94 69.8524 278.258 72.1706C280.576 74.4888 284.335 74.4888 286.653 72.1706Z" fill="#F0F0F0"/>
<path d="M281.498 85.4079C286.209 80.6964 286.209 73.0575 281.498 68.3461C276.786 63.6346 269.148 63.6346 264.436 68.3461C259.725 73.0575 259.725 80.6964 264.436 85.4079C269.148 90.1193 276.786 90.1193 281.498 85.4079Z" fill="white"/>
<path d="M269.831 69.3365C270.584 66.1458 268.608 62.9487 265.418 62.1956C262.227 61.4425 259.03 63.4186 258.277 66.6094C257.524 69.8001 259.5 72.9972 262.69 73.7503C265.881 74.5034 269.078 72.5273 269.831 69.3365Z" fill="#F0F0F0"/>
<path d="M246.691 154.867H240.246V220.562H246.691V154.867Z" fill="#F0F0F0"/>
<path d="M307.261 150.937H238.68V154.867H307.261V150.937Z" fill="#F0F0F0"/>
<path d="M303.063 220.555H242.871V224.966H303.063V220.555Z" fill="#F0F0F0"/>
<path d="M305.694 154.867H246.69V220.562H305.694V154.867Z" fill="#FAFAFA"/>
<path d="M252.063 182.342H300.314V162.184H252.063V182.342Z" fill="#F0F0F0"/>
<path d="M252.063 211.988H300.314V191.83H252.063V211.988Z" fill="#F0F0F0"/>
<path d="M281.688 160.995H270.689C269.998 160.995 269.438 161.555 269.438 162.246V162.878C269.438 163.568 269.998 164.128 270.689 164.128H281.688C282.379 164.128 282.939 163.568 282.939 162.878V162.246C282.939 161.555 282.379 160.995 281.688 160.995Z" fill="#FAFAFA"/>
<path d="M281.688 190.648H270.689C269.998 190.648 269.438 191.208 269.438 191.899V192.531C269.438 193.222 269.998 193.781 270.689 193.781H281.688C282.379 193.781 282.939 193.222 282.939 192.531V191.899C282.939 191.208 282.379 190.648 281.688 190.648Z" fill="#FAFAFA"/>
<path d="M131.614 224.775C139.689 223.464 145.173 215.855 143.862 207.78C142.551 199.705 134.943 194.221 126.867 195.532C118.792 196.843 113.309 204.451 114.619 212.527C115.93 220.602 123.539 226.085 131.614 224.775Z" fill="#EBEBEB"/>
<path d="M109.449 224.731C119.528 223.095 126.372 213.598 124.736 203.519C123.1 193.44 113.603 186.596 103.524 188.232C93.445 189.868 86.6007 199.365 88.2367 209.444C89.8728 219.523 99.3696 226.367 109.449 224.731Z" fill="#F5F5F5"/>
<path d="M171.761 256C245.332 256 304.972 252.518 304.972 248.223C304.972 243.927 245.332 240.445 171.761 240.445C98.1905 240.445 38.5498 243.927 38.5498 248.223C38.5498 252.518 98.1905 256 171.761 256Z" fill="#F5F5F5"/>
<path d="M86.9874 97.9657C82.4529 97.9657 80.3161 93.3969 80.22 93.1976C80.0138 92.7442 80.2131 92.2083 80.6665 92.0022C81.12 91.7961 81.6559 91.9953 81.862 92.4488C81.8895 92.5037 83.6689 96.255 87.1248 96.1588C87.6263 96.1313 88.0385 96.5367 88.0523 97.0382C88.066 97.5398 87.6744 97.952 87.1729 97.9657C87.111 97.9657 87.0492 97.9657 86.9874 97.9657Z" fill="#4CC27B"/>
<path d="M146.313 34.5106C145.64 34.5106 145.193 34.4419 145.132 34.435C144.637 34.3594 144.3 33.8991 144.376 33.4044C144.451 32.9097 144.912 32.5731 145.4 32.6487C145.441 32.6487 149.57 33.2327 151.391 30.2852C151.652 29.8593 152.208 29.7287 152.634 29.9898C153.06 30.2509 153.191 30.8074 152.93 31.2334C151.171 34.0846 148.031 34.5106 146.32 34.5106H146.313Z" fill="#4CC27B"/>
<path opacity="0.6" d="M146.313 34.5106C145.64 34.5106 145.193 34.4419 145.132 34.435C144.637 34.3594 144.3 33.8991 144.376 33.4044C144.451 32.9097 144.912 32.5731 145.4 32.6487C145.441 32.6487 149.57 33.2327 151.391 30.2852C151.652 29.8593 152.208 29.7287 152.634 29.9898C153.06 30.2509 153.191 30.8074 152.93 31.2334C151.171 34.0846 148.031 34.5106 146.32 34.5106H146.313Z" fill="white"/>
<path d="M44.3836 68.9174C41.7591 68.9174 39.6155 67.4678 39.4918 67.3853C39.0796 67.1036 38.9765 66.5403 39.2582 66.128C39.5399 65.7158 40.1033 65.6128 40.5086 65.8944C40.543 65.9151 44.0126 68.2373 46.9325 66.3754C47.3516 66.1074 47.9081 66.2311 48.1761 66.6502C48.444 67.0693 48.3203 67.6258 47.9012 67.8937C46.7195 68.6426 45.5035 68.9106 44.3836 68.9106V68.9174Z" fill="#4CC27B"/>
<path opacity="0.6" d="M44.3836 68.9174C41.7591 68.9174 39.6155 67.4678 39.4918 67.3853C39.0796 67.1036 38.9765 66.5403 39.2582 66.128C39.5399 65.7158 40.1033 65.6128 40.5086 65.8944C40.543 65.9151 44.0126 68.2373 46.9325 66.3754C47.3516 66.1074 47.9081 66.2311 48.1761 66.6502C48.444 67.0693 48.3203 67.6258 47.9012 67.8937C46.7195 68.6426 45.5035 68.9106 44.3836 68.9106V68.9174Z" fill="white"/>
<path d="M280.06 44.83C277.436 44.83 275.292 43.3804 275.169 43.2979C274.756 43.0162 274.653 42.4529 274.935 42.0406C275.217 41.6284 275.78 41.5253 276.185 41.807C276.22 41.8276 279.689 44.1499 282.609 42.288C283.028 42.02 283.585 42.1437 283.853 42.5628C284.121 42.9819 283.997 43.5384 283.578 43.8063C282.396 44.5552 281.18 44.8232 280.06 44.8232V44.83Z" fill="#4CC27B"/>
<path opacity="0.6" d="M280.06 44.83C277.436 44.83 275.292 43.3804 275.169 43.2979C274.756 43.0162 274.653 42.4529 274.935 42.0406C275.217 41.6284 275.78 41.5253 276.185 41.807C276.22 41.8276 279.689 44.1499 282.609 42.288C283.028 42.02 283.585 42.1437 283.853 42.5628C284.121 42.9819 283.997 43.5384 283.578 43.8063C282.396 44.5552 281.18 44.8232 280.06 44.8232V44.83Z" fill="white"/>
<path d="M169.57 115.788C165.359 115.788 163.064 111.707 162.961 111.521C162.72 111.082 162.878 110.539 163.318 110.298C163.751 110.058 164.301 110.216 164.541 110.656C164.569 110.711 166.63 114.304 170.065 113.96C170.56 113.912 171.006 114.269 171.054 114.764C171.102 115.259 170.745 115.705 170.25 115.753C170.017 115.781 169.79 115.788 169.563 115.788H169.57Z" fill="#4CC27B"/>
<path opacity="0.6" d="M169.57 115.788C165.359 115.788 163.064 111.707 162.961 111.521C162.72 111.082 162.878 110.539 163.318 110.298C163.751 110.058 164.301 110.216 164.541 110.656C164.569 110.711 166.63 114.304 170.065 113.96C170.56 113.912 171.006 114.269 171.054 114.764C171.102 115.259 170.745 115.705 170.25 115.753C170.017 115.781 169.79 115.788 169.563 115.788H169.57Z" fill="white"/>
<path d="M54.277 134.146C53.8716 134.146 53.5006 133.871 53.4044 133.459C53.2876 132.978 53.583 132.49 54.064 132.366C54.1052 132.359 58.1382 131.301 58.6878 127.887C58.7634 127.392 59.2306 127.062 59.7252 127.138C60.2199 127.213 60.5497 127.68 60.4741 128.168C59.7321 132.778 54.7167 134.063 54.5037 134.118C54.4281 134.139 54.3594 134.146 54.2907 134.146H54.277Z" fill="#4CC27B"/>
<path opacity="0.6" d="M54.277 134.146C53.8716 134.146 53.5006 133.871 53.4044 133.459C53.2876 132.978 53.583 132.49 54.064 132.366C54.1052 132.359 58.1382 131.301 58.6878 127.887C58.7634 127.392 59.2306 127.062 59.7252 127.138C60.2199 127.213 60.5497 127.68 60.4741 128.168C59.7321 132.778 54.7167 134.063 54.5037 134.118C54.4281 134.139 54.3594 134.146 54.2907 134.146H54.277Z" fill="black"/>
<path d="M254.867 71.5216C254.461 71.5216 254.09 71.2467 253.994 70.8345C253.877 70.3536 254.173 69.8658 254.654 69.7421C254.695 69.7352 258.728 68.6772 259.278 65.2626C259.353 64.7679 259.82 64.4381 260.315 64.5137C260.81 64.5893 261.14 65.0565 261.064 65.5443C260.322 70.1543 255.307 71.4391 255.094 71.4941C255.018 71.5147 254.949 71.5216 254.881 71.5216H254.867Z" fill="#4CC27B"/>
<path opacity="0.6" d="M254.867 71.5216C254.461 71.5216 254.09 71.2467 253.994 70.8345C253.877 70.3536 254.173 69.8658 254.654 69.7421C254.695 69.7352 258.728 68.6772 259.278 65.2626C259.353 64.7679 259.82 64.4381 260.315 64.5137C260.81 64.5893 261.14 65.0565 261.064 65.5443C260.322 70.1543 255.307 71.4391 255.094 71.4941C255.018 71.5147 254.949 71.5216 254.881 71.5216H254.867Z" fill="black"/>
<path d="M291.809 105.771C291.761 105.771 291.706 105.771 291.651 105.757C291.438 105.723 286.34 104.781 285.282 100.233C285.172 99.7453 285.475 99.2644 285.956 99.1476C286.443 99.0376 286.924 99.3399 287.041 99.8209C287.824 103.194 291.919 103.964 291.96 103.971C292.448 104.06 292.778 104.527 292.689 105.015C292.613 105.455 292.228 105.764 291.802 105.764L291.809 105.771Z" fill="#4CC27B"/>
<path d="M275.705 138.893C274.324 138.893 272.778 138.536 271.383 137.375C270.999 137.059 270.951 136.488 271.267 136.104C271.583 135.719 272.153 135.671 272.538 135.987C275.197 138.199 278.927 136.344 278.968 136.323C279.415 136.097 279.958 136.275 280.184 136.715C280.411 137.155 280.239 137.698 279.793 137.931C279.676 137.993 277.89 138.893 275.698 138.893H275.705Z" fill="#4CC27B"/>
<path d="M233.562 26.1491C233.41 26.1491 233.259 26.1147 233.122 26.0323C232.929 25.9224 228.443 23.3322 228.972 18.6946C229.027 18.2 229.474 17.8427 229.968 17.8977C230.463 17.9526 230.82 18.3992 230.765 18.8939C230.374 22.336 233.974 24.4383 234.008 24.459C234.441 24.7063 234.592 25.2559 234.345 25.6888C234.18 25.9842 233.871 26.1491 233.562 26.1491Z" fill="#4CC27B"/>
<path d="M54.1327 29.8041C53.6724 29.8041 53.2739 29.4468 53.2327 28.9796C53.1914 28.485 53.5556 28.0453 54.0571 28.004C57.5061 27.7086 58.8527 23.7581 58.8596 23.7169C59.0176 23.2428 59.526 22.9886 60.0001 23.1397C60.4741 23.2978 60.7283 23.7993 60.5772 24.2734C60.5085 24.4795 58.8596 29.3919 54.2083 29.7972C54.1808 29.7972 54.1533 29.7972 54.1327 29.7972V29.8041Z" fill="#4CC27B"/>
<path d="M121.168 56.9907C118.722 58.1243 116.578 63.6138 117.272 71.4874C117.973 79.3609 101.663 73.8371 99.4504 82.6587C95.445 98.6257 122.302 108.224 133.748 98.6257C140.831 92.6896 147.489 73.1225 146.513 62.4459C145.469 50.9653 127.661 43.2635 121.168 56.9907Z" fill="#263238"/>
<path d="M146.938 77.1347C147.241 77.0523 147.68 76.9148 148.058 76.7912L149.24 76.3927C150.03 76.1179 150.813 75.8156 151.59 75.4858C153.142 74.84 154.668 74.1392 156.117 73.3216C159.003 71.7002 161.703 69.7352 163.75 67.3512C165.695 65.0427 167.09 61.8892 168.182 58.6669C168.738 57.0455 169.206 55.376 169.611 53.679C170.03 51.9957 170.38 50.2437 170.676 48.5742L173.479 48.7529C173.493 52.4972 173.067 56.1317 172.27 59.8074C171.858 61.635 171.329 63.4625 170.614 65.2626C169.893 67.0557 169.013 68.8489 167.749 70.5185C165.303 73.7407 162.218 76.2209 158.914 78.179C157.258 79.1546 155.554 80.0203 153.802 80.7692C152.923 81.1333 152.036 81.4768 151.136 81.7929C150.683 81.9509 150.229 82.102 149.769 82.2394C149.295 82.3837 148.869 82.5005 148.306 82.6448L146.945 77.1416L146.938 77.1347Z" fill="#7F3E3B"/>
<path d="M173.452 49.6939L174.62 45.4961L169.982 45.8602C169.982 45.8602 169.652 48.6084 171.253 50.2642L173.452 49.7008V49.6939Z" fill="#7F3E3B"/>
<path d="M175.314 40.6182L171.082 41.7243L169.982 45.8603L174.62 45.4962L175.314 40.6182Z" fill="#7F3E3B"/>
<path d="M141.69 78.1993C143.826 76.2619 149.254 74.7778 149.254 74.7778L155.197 83.7506C155.197 83.7506 148.416 88.2714 145.53 87.2202C142.528 86.1278 139.69 80.0063 141.683 78.1993H141.69Z" fill="#4CC27B"/>
<path d="M122.116 205.248L125.819 209.315L136.448 201.737L132.745 197.677L122.116 205.248Z" fill="#7F3E3B"/>
<path d="M101.216 221.318L106.183 223.778L113.486 213.067L108.519 210.6L101.216 221.318Z" fill="#7F3E3B"/>
<path d="M106.973 223.173L103.139 218.261C103.002 218.082 102.762 218.034 102.569 218.144L98.2477 220.617C97.8011 220.872 97.6912 221.517 98.0141 221.923C99.3814 223.613 100.123 224.362 101.807 226.519C102.844 227.845 104.94 230.944 106.375 232.778C107.777 234.571 109.701 233.293 109.268 232.4C107.33 228.402 107.207 226.024 107.276 224.108C107.289 223.764 107.179 223.427 106.973 223.166V223.173Z" fill="#263238"/>
<path d="M126.925 209.391L124.396 203.317C124.307 203.098 124.067 202.96 123.826 202.995L118.474 203.675C117.918 203.743 117.602 204.307 117.821 204.815C118.742 206.924 119.299 207.907 120.405 210.579C121.092 212.222 122.686 216.543 123.627 218.81C124.548 221.029 126.987 220.562 126.808 219.559C126.004 215.059 126.272 212.167 126.945 210.394C127.069 210.078 127.055 209.721 126.918 209.398L126.925 209.391Z" fill="#263238"/>
<path opacity="0.2" d="M136.441 201.744L130.965 205.646L126.822 201.888L132.738 197.677L136.441 201.744Z" fill="black"/>
<path opacity="0.2" d="M108.519 210.607L113.486 213.073L109.714 218.59L104.747 216.124L108.519 210.607Z" fill="black"/>
<path d="M149.172 78.8935C149.172 78.8935 149.344 78.6462 146.334 111.48C137.417 112.105 128.203 112.751 123.868 113.053C123.607 103.881 124.294 97.4162 120.007 78.5843C120.007 78.5843 124.734 77.5812 129.577 77.3751C133.37 77.2102 136.475 77.1072 139.807 77.4301C144.198 77.8561 149.172 78.9004 149.172 78.9004V78.8935Z" fill="#4CC27B"/>
<path d="M121.696 84.0258C120.027 83.2494 118.563 82.4319 117.045 81.5593C115.547 80.6936 114.091 79.7455 112.662 78.7562C109.803 76.7775 107.062 74.5789 104.589 72.0094L103.675 71.0269L103.441 70.7796C103.311 70.6215 103.174 70.4635 103.064 70.3055C102.83 69.9826 102.665 69.6597 102.514 69.3368C101.964 68.0657 101.882 66.9596 101.854 65.9428C101.834 63.9229 102.184 62.1571 102.596 60.4258C103.483 56.9906 104.692 53.8164 106.21 50.7041L108.828 51.7141C108.429 53.2736 108.038 54.8951 107.701 56.4822C107.351 58.0761 107.069 59.67 106.87 61.2365C106.671 62.7892 106.561 64.3626 106.691 65.6886C106.753 66.3413 106.925 66.9184 107.076 67.1726C107.117 67.2275 107.145 67.2756 107.165 67.2825C107.172 67.2962 107.179 67.2825 107.186 67.2894L107.392 67.4886L108.237 68.2993C110.532 70.4223 113.115 72.3254 115.788 74.098C117.127 74.9843 118.522 75.8019 119.903 76.6195C121.277 77.4233 122.747 78.2134 124.094 78.8936L121.689 84.0258H121.696Z" fill="#7F3E3B"/>
<path d="M128.848 79.835C126.299 76.283 121.318 76.3379 121.318 76.3379L115.286 85.2489C115.286 85.2489 122.026 89.8384 124.919 88.8216C127.928 87.7566 130.429 82.0267 128.855 79.835H128.848Z" fill="#4CC27B"/>
<path d="M139.801 77.4231L129.571 77.3682C128.011 78.0002 127.097 82.0744 137.478 85.5303C144.665 81.4423 140.838 77.8079 139.801 77.4231Z" fill="white"/>
<path d="M130.649 65.8604C131.274 69.1513 131.886 75.1904 129.577 77.3684C129.577 77.3684 130.47 80.7143 137.485 85.5305C142.397 80.6043 139.807 77.4233 139.807 77.4233C136.145 76.5302 136.248 73.8026 136.901 71.2537L130.649 65.8604Z" fill="#7F3E3B"/>
<path d="M151.858 98.5361C151.824 98.5361 151.783 98.5361 151.748 98.5361C150.993 98.4742 150.429 97.8147 150.491 97.0589C150.738 93.9947 148.444 91.6794 145.785 88.9999C142.734 85.9288 139.285 82.4455 139.141 77.0247C139.121 76.2689 139.718 75.6369 140.481 75.6162C141.237 75.5956 141.869 76.1934 141.889 76.956C141.999 81.2844 144.912 84.2249 147.736 87.0693C150.608 89.9686 153.583 92.9641 153.232 97.2857C153.177 98.0071 152.573 98.5498 151.865 98.5498L151.858 98.5361Z" fill="#263238"/>
<path d="M131.755 105.496C131.645 105.496 131.535 105.482 131.425 105.455C130.69 105.276 130.237 104.527 130.422 103.792C131.748 98.4056 130.01 94.1871 128.169 89.7213C126.52 85.7227 124.816 81.5867 125.647 76.7499C125.778 76.001 126.485 75.4995 127.234 75.63C127.983 75.7606 128.485 76.4682 128.354 77.2171C127.66 81.2707 129.144 84.8708 130.711 88.677C132.552 93.136 134.634 98.1995 133.095 104.452C132.944 105.077 132.38 105.496 131.762 105.496H131.755Z" fill="#263238"/>
<path opacity="0.2" d="M135.61 70.1406L132.827 70.4635C132.882 70.8483 133.164 71.8995 133.61 72.5522C134.153 73.3697 135.362 73.7339 136.558 73.7614C136.53 72.9575 136.688 72.0918 136.901 71.2536L135.617 70.1406H135.61Z" fill="black"/>
<path d="M124.569 62.5554C126.582 67.6807 127.317 69.893 130.828 71.7206C136.104 74.4756 141.958 70.8824 141.518 65.2623C141.126 60.2057 137.904 52.6757 132.112 52.2497C126.41 51.8306 122.556 57.43 124.569 62.5554Z" fill="#7F3E3B"/>
<path d="M130.086 51.5008C134.002 53.9055 130.649 68.0586 124.033 67.3235C117.417 66.5884 124.308 47.9488 130.086 51.5008Z" fill="#263238"/>
<path d="M129.941 51.5492C126.994 53.5073 129 56.9151 138.935 54.902C138.935 54.902 134.826 48.2995 129.941 51.5492Z" fill="#263238"/>
<path d="M125.283 67.5368C125.737 68.5811 126.637 69.3231 127.516 69.6529C128.835 70.1476 129.618 68.9933 129.35 67.6879C129.11 66.5062 128.134 64.8298 126.76 64.8985C125.407 64.9672 124.761 66.3482 125.283 67.5437V67.5368Z" fill="#7F3E3B"/>
<path d="M146.328 111.48C146.328 111.48 158.351 150.731 159.32 167.618C160.323 185.186 134.236 206.031 134.236 206.031L127.743 198.907C127.743 198.907 148.939 180.906 146.032 167.866C142.027 149.893 129.88 112.634 129.88 112.634L146.335 111.48H146.328Z" fill="#263238"/>
<path opacity="0.2" d="M138.846 124.328C137.74 120.879 135.301 123.208 134.449 126.842C136.146 132.318 138.111 138.77 139.98 145.207C140.694 139.491 140.997 131.061 138.846 124.328Z" fill="black"/>
<path d="M125.998 198.563L134.236 207.062L137.76 205.117L129.049 195.643L125.998 198.563Z" fill="#4CC27B"/>
<path d="M140.398 111.899C140.398 111.899 136.976 150.367 133.528 171.803C130.738 189.116 111.844 217.395 111.844 217.395L104.919 214.173C104.919 214.173 117.622 183.888 119.601 172.119C125.949 134.448 117.368 123.586 123.868 113.054L140.405 111.899H140.398Z" fill="#263238"/>
<path d="M104.432 214.241L112.243 218.082L114.806 214.894L105.668 210.593L104.432 214.241Z" fill="#4CC27B"/>
<path d="M123.435 111.762L122.563 113.843C122.494 114.008 122.693 114.153 122.947 114.132L146.513 112.483C146.712 112.469 146.877 112.359 146.877 112.229L146.939 110.202C146.939 110.065 146.76 109.955 146.54 109.968L123.785 111.562C123.621 111.576 123.476 111.652 123.428 111.755L123.435 111.762Z" fill="white"/>
<path d="M126.664 114.091L126.052 114.132C125.929 114.139 125.832 114.084 125.839 114.008L125.942 111.377C125.942 111.301 126.045 111.233 126.169 111.219L126.78 111.178C126.904 111.171 127 111.226 126.993 111.301L126.89 113.933C126.89 114.008 126.787 114.077 126.664 114.091Z" fill="#263238"/>
<path d="M144.816 112.82L144.205 112.861C144.081 112.868 143.985 112.813 143.992 112.737L144.095 110.106C144.095 110.03 144.198 109.962 144.321 109.948L144.933 109.907C145.056 109.9 145.153 109.955 145.146 110.03L145.043 112.662C145.043 112.737 144.94 112.806 144.816 112.82Z" fill="#263238"/>
<path d="M135.74 113.452L135.128 113.493C135.005 113.5 134.909 113.445 134.915 113.369L135.018 110.738C135.018 110.662 135.122 110.594 135.245 110.58L135.857 110.539C135.98 110.532 136.076 110.587 136.07 110.662L135.967 113.294C135.967 113.369 135.864 113.438 135.74 113.452Z" fill="#263238"/>
<path d="M132.848 60.632C132.518 60.7419 132.381 61.2366 132.545 61.7519L133.748 61.3603C133.583 60.8518 133.178 60.5221 132.848 60.632Z" fill="#263238"/>
<path d="M138.063 58.9694C137.733 59.0793 137.595 59.574 137.76 60.0893L138.97 59.6977C138.805 59.1892 138.399 58.8595 138.069 58.9694H138.063Z" fill="#263238"/>
<path d="M137.925 59.0448L139.031 58.2959C139.031 58.2959 138.715 59.457 137.925 59.0448Z" fill="#263238"/>
<path d="M136.75 61.0439C136.75 61.0439 138.062 62.6448 139.148 63.27C138.756 63.9776 137.726 64.0463 137.726 64.0463L136.757 61.0439H136.75Z" fill="#630F0F"/>
<path d="M136.805 66.1833C136.846 66.1489 136.86 66.094 136.846 66.0459C136.825 65.9772 136.75 65.9359 136.681 65.9634C134.819 66.568 133.521 65.5443 133.507 65.5306C133.452 65.4825 133.369 65.4894 133.321 65.5512C133.273 65.6062 133.287 65.6886 133.342 65.7367C133.397 65.7848 134.757 66.8566 136.763 66.2108C136.784 66.2108 136.798 66.197 136.812 66.1833H136.805Z" fill="#263238"/>
<path d="M131.109 60.3229C131.109 60.3229 131.171 60.2542 131.185 60.213C131.57 59.1069 132.504 58.8664 132.518 58.8595C132.662 58.8252 132.745 58.6809 132.71 58.5435C132.676 58.4061 132.532 58.3168 132.394 58.3511C132.346 58.3649 131.171 58.6672 130.69 60.0413C130.642 60.1787 130.718 60.3298 130.855 60.3779C130.945 60.4123 131.048 60.3848 131.116 60.3298L131.109 60.3229Z" fill="#263238"/>
<path d="M139.34 56.9288C139.34 56.9288 139.36 56.9082 139.374 56.8945C139.463 56.7777 139.443 56.6128 139.333 56.5235C138.192 55.6234 137.038 55.9944 136.99 56.0082C136.853 56.0563 136.777 56.2005 136.825 56.338C136.873 56.4754 137.017 56.5509 137.155 56.5028C137.196 56.4891 138.096 56.2143 139.003 56.9288C139.106 57.0113 139.243 57.0044 139.34 56.9219V56.9288Z" fill="#263238"/>
<path d="M111.817 52.7514C111.659 52.7514 111.495 52.7102 111.343 52.614L90.4366 39.7388C90.0106 39.4777 89.8801 38.9212 90.1412 38.4952C90.4023 38.0692 90.9588 37.9387 91.3847 38.1998L112.292 51.075C112.717 51.3361 112.848 51.8926 112.587 52.3186C112.415 52.5934 112.12 52.7445 111.817 52.7445V52.7514Z" fill="#4CC27B"/>
<path d="M95.1768 41.1679C96.3447 41.1129 97.5608 41.058 97.7188 40.0068C97.8768 38.9556 96.7363 38.5434 95.6371 38.1449C95.5478 38.1105 95.4447 38.0762 95.3417 38.035C95.321 37.9319 95.2936 37.8289 95.2661 37.7258C95.3485 37.6296 95.431 37.5403 95.5065 37.4579C96.276 36.6059 97.0799 35.7265 96.4615 34.8883C95.8432 34.0501 94.7645 34.5517 93.7271 35.0326C93.6309 35.0738 93.521 35.1288 93.4042 35.1837C93.3149 35.1288 93.2255 35.0738 93.1362 35.0188C93.1362 34.9089 93.1225 34.799 93.1225 34.7028C93.0675 33.5348 93.0126 32.3188 91.9614 32.1607C90.9102 32.0027 90.498 33.1432 90.0995 34.2425C90.0651 34.3318 90.0308 34.4349 89.9896 34.5379C89.8865 34.5585 89.7834 34.586 89.6804 34.6135C89.5842 34.531 89.4949 34.4417 89.4124 34.373C88.5605 33.6035 87.6811 32.7997 86.8429 33.4249C86.0047 34.0432 86.5062 35.1219 86.9872 36.1593C87.0284 36.2555 87.0834 36.3655 87.1383 36.4822C87.0834 36.5716 87.0284 36.6609 86.9734 36.7502C86.8635 36.7502 86.7536 36.7639 86.6574 36.7639C85.4894 36.8189 84.2733 36.8739 84.1153 37.925C83.9573 38.9762 85.0978 39.3885 86.1971 39.7869C86.2864 39.8213 86.3894 39.8556 86.4925 39.8969C86.5131 39.9999 86.5406 40.103 86.5681 40.206C86.4856 40.3022 86.3963 40.3915 86.3276 40.474C85.5581 41.3259 84.7543 42.2053 85.3795 43.0435C86.0047 43.8817 87.0765 43.3802 88.1139 42.8993C88.2101 42.858 88.32 42.8031 88.4368 42.7481C88.5262 42.8031 88.6155 42.858 88.7048 42.913C88.7048 43.0229 88.7185 43.1329 88.7185 43.229C88.7735 44.397 88.8285 45.6131 89.8796 45.7711C90.9308 45.9291 91.343 44.7886 91.7415 43.6894C91.7759 43.6 91.8102 43.497 91.8515 43.3939C91.9545 43.3733 92.0576 43.3458 92.1606 43.3184C92.2568 43.4008 92.3461 43.4832 92.4286 43.5588C93.2805 44.3283 94.1599 45.1322 94.9981 44.5138C95.8432 43.8955 95.3416 42.8168 94.8538 41.7794C94.8126 41.6832 94.7577 41.5733 94.7027 41.4565C94.7577 41.3671 94.8126 41.2778 94.8676 41.1885C94.9775 41.1885 95.0874 41.1748 95.1836 41.1748L95.1768 41.1679Z" fill="#4CC27B"/>
<path opacity="0.7" d="M95.1768 41.1679C96.3447 41.1129 97.5608 41.058 97.7188 40.0068C97.8768 38.9556 96.7363 38.5434 95.6371 38.1449C95.5478 38.1105 95.4447 38.0762 95.3417 38.035C95.321 37.9319 95.2936 37.8289 95.2661 37.7258C95.3485 37.6296 95.431 37.5403 95.5065 37.4579C96.276 36.6059 97.0799 35.7265 96.4615 34.8883C95.8432 34.0501 94.7645 34.5517 93.7271 35.0326C93.6309 35.0738 93.521 35.1288 93.4042 35.1837C93.3149 35.1288 93.2255 35.0738 93.1362 35.0188C93.1362 34.9089 93.1225 34.799 93.1225 34.7028C93.0675 33.5348 93.0126 32.3188 91.9614 32.1607C90.9102 32.0027 90.498 33.1432 90.0995 34.2425C90.0651 34.3318 90.0308 34.4349 89.9896 34.5379C89.8865 34.5585 89.7834 34.586 89.6804 34.6135C89.5842 34.531 89.4949 34.4417 89.4124 34.373C88.5605 33.6035 87.6811 32.7997 86.8429 33.4249C86.0047 34.0432 86.5062 35.1219 86.9872 36.1593C87.0284 36.2555 87.0834 36.3655 87.1383 36.4822C87.0834 36.5716 87.0284 36.6609 86.9734 36.7502C86.8635 36.7502 86.7536 36.7639 86.6574 36.7639C85.4894 36.8189 84.2733 36.8739 84.1153 37.925C83.9573 38.9762 85.0978 39.3885 86.1971 39.7869C86.2864 39.8213 86.3894 39.8556 86.4925 39.8969C86.5131 39.9999 86.5406 40.103 86.5681 40.206C86.4856 40.3022 86.3963 40.3915 86.3276 40.474C85.5581 41.3259 84.7543 42.2053 85.3795 43.0435C86.0047 43.8817 87.0765 43.3802 88.1139 42.8993C88.2101 42.858 88.32 42.8031 88.4368 42.7481C88.5262 42.8031 88.6155 42.858 88.7048 42.913C88.7048 43.0229 88.7185 43.1329 88.7185 43.229C88.7735 44.397 88.8285 45.6131 89.8796 45.7711C90.9308 45.9291 91.343 44.7886 91.7415 43.6894C91.7759 43.6 91.8102 43.497 91.8515 43.3939C91.9545 43.3733 92.0576 43.3458 92.1606 43.3184C92.2568 43.4008 92.3461 43.4832 92.4286 43.5588C93.2805 44.3283 94.1599 45.1322 94.9981 44.5138C95.8432 43.8955 95.3416 42.8168 94.8538 41.7794C94.8126 41.6832 94.7577 41.5733 94.7027 41.4565C94.7577 41.3671 94.8126 41.2778 94.8676 41.1885C94.9775 41.1885 95.0874 41.1748 95.1836 41.1748L95.1768 41.1679Z" fill="white"/>
<path d="M105.579 52.9715L104.72 47.4683L110.326 50.189C110.326 50.189 110.223 51.1921 108.924 52.6142C108.34 53.2532 107.44 53.5143 106.609 53.2738L105.579 52.9715Z" fill="#7F3E3B"/>
<path d="M107.866 44.7749L110.738 47.3032L110.326 50.1888L104.72 47.4681L107.866 44.7749Z" fill="#7F3E3B"/>
<path d="M108.773 225.804C108.828 225.763 108.883 225.722 108.938 225.667C109.096 225.509 109.096 225.344 109.069 225.234C108.904 224.547 107.008 223.887 106.795 223.812C106.747 223.798 106.692 223.812 106.657 223.846C106.623 223.887 106.616 223.942 106.637 223.991C106.946 224.664 107.564 225.804 108.258 225.921C108.444 225.955 108.615 225.914 108.78 225.804H108.773ZM107.008 224.169C107.756 224.458 108.725 224.932 108.815 225.296C108.828 225.344 108.828 225.406 108.753 225.481C108.608 225.633 108.464 225.688 108.299 225.66C107.921 225.598 107.454 225.042 107.008 224.162V224.169Z" fill="#4CC27B"/>
<path d="M109.124 223.97C109.172 223.936 109.214 223.902 109.248 223.867C109.33 223.778 109.433 223.579 109.268 223.29C109.159 223.112 109.001 223.002 108.788 222.96C107.997 222.816 106.733 223.792 106.678 223.833C106.644 223.86 106.623 223.908 106.63 223.957C106.63 224.005 106.665 224.046 106.713 224.06C107.228 224.273 108.595 224.341 109.131 223.977L109.124 223.97ZM107.077 223.86C107.523 223.558 108.272 223.132 108.733 223.215C108.87 223.242 108.966 223.311 109.035 223.421C109.124 223.565 109.083 223.641 109.042 223.689C108.788 223.984 107.695 224.039 107.036 223.881C107.049 223.874 107.056 223.867 107.07 223.854L107.077 223.86Z" fill="#4CC27B"/>
<path d="M127.048 212.504C127.241 212.971 127.495 213.383 127.825 213.568C128.051 213.699 128.285 213.72 128.539 213.637C128.725 213.575 128.787 213.445 128.807 213.349C128.951 212.641 127.151 210.965 126.787 210.635C126.746 210.594 126.684 210.587 126.636 210.614C126.588 210.642 126.561 210.697 126.567 210.752C126.65 211.232 126.808 211.913 127.048 212.504ZM128.498 213.033C128.539 213.136 128.56 213.225 128.546 213.294C128.546 213.328 128.526 213.362 128.45 213.39C128.278 213.452 128.113 213.438 127.955 213.349C127.536 213.101 127.151 212.277 126.904 211.109C127.543 211.72 128.299 212.552 128.498 213.039V213.033Z" fill="#4CC27B"/>
<path d="M126.574 210.779C126.574 210.779 126.588 210.806 126.602 210.82C127.165 211.39 128.849 212.311 129.391 211.995C129.508 211.926 129.632 211.775 129.543 211.445C129.185 210.181 126.781 210.579 126.678 210.6C126.629 210.607 126.588 210.641 126.574 210.689C126.568 210.717 126.568 210.751 126.574 210.779ZM129.261 211.431C129.261 211.431 129.281 211.486 129.288 211.514C129.323 211.644 129.316 211.734 129.261 211.761C128.945 211.947 127.674 211.356 127 210.813C127.598 210.751 128.959 210.696 129.261 211.424V211.431Z" fill="#4CC27B"/>
<path d="M132.71 60.7074L133.816 59.9585C133.816 59.9585 133.5 61.1196 132.71 60.7074Z" fill="#263238"/>
<path d="M222.527 240.686L217.203 240.693L215.767 228.36L221.091 228.354L222.527 240.686Z" fill="#FFC3BD"/>
<path d="M268.36 217.807L264.327 221.284L255.196 212.881L259.222 209.405L268.36 217.807Z" fill="#FFC3BD"/>
<path d="M263.543 221.153L268.456 216.907C268.621 216.763 268.854 216.763 269.026 216.893L272.77 219.916C273.162 220.232 273.155 220.844 272.77 221.167C271.17 222.506 269.94 223.406 267.947 225.124C266.724 226.182 263.138 229.507 261.441 230.964C259.785 232.393 258.15 230.888 258.72 230.132C261.262 226.745 262.836 223.757 263.09 221.97C263.138 221.647 263.296 221.359 263.543 221.146V221.153Z" fill="#263238"/>
<path d="M217.237 240.074H223.049C223.269 240.068 223.455 240.219 223.503 240.432L224.561 245.165C224.671 245.653 224.3 246.12 223.798 246.114C221.703 246.079 218.673 245.962 216.035 245.969C212.95 245.969 211.15 246.052 207.536 246.059C205.351 246.059 204.74 243.853 205.653 243.654C209.817 242.733 212.359 242.726 215.959 240.5C216.351 240.26 216.784 240.081 217.244 240.081L217.237 240.074Z" fill="#263238"/>
<path d="M199.944 87.6326C198.872 87.2272 197.951 86.8425 196.99 86.4028C196.035 85.9768 195.1 85.5302 194.166 85.0699C192.304 84.1355 190.476 83.1256 188.69 82.0125C186.89 80.9201 185.152 79.6766 183.462 78.33C183.043 77.9865 182.617 77.6498 182.204 77.2925L180.981 76.1727C180.576 75.8016 180.191 75.3757 179.8 74.9772C179.601 74.7642 179.422 74.5993 179.202 74.3382C178.982 74.0772 178.755 73.823 178.556 73.5619C177.746 72.5107 177.155 71.4389 176.66 70.3671C176.158 69.2953 175.767 68.2304 175.437 67.1724C174.784 65.0494 174.379 62.9539 174.097 60.8653C173.541 56.688 173.472 52.6207 173.795 48.4572L177.794 48.416C178.062 50.2779 178.35 52.236 178.735 54.1185C179.099 56.0079 179.504 57.8835 179.999 59.6973C180.487 61.5111 181.05 63.2837 181.744 64.9051C182.411 66.5265 183.269 67.9968 184.162 69.0136L184.499 69.3572C184.602 69.4671 184.808 69.632 184.959 69.7694C185.289 70.0511 185.592 70.3465 185.942 70.6213C186.636 71.171 187.337 71.7137 188.086 72.229C189.576 73.2664 191.136 74.2489 192.771 75.1627C194.406 76.0765 196.076 76.9559 197.78 77.7803C198.632 78.1994 199.484 78.6117 200.342 78.9964C201.187 79.3812 202.101 79.7796 202.871 80.1094L199.951 87.6326H199.944Z" fill="#FFC3BD"/>
<path d="M200.782 92.1742C196.406 89.5703 192.222 85.7709 192.222 85.7709L194.345 74.895C194.345 74.895 200.906 76.7913 206.361 77.5195C213.053 78.4127 205.557 95.0186 200.775 92.1742H200.782Z" fill="#263238"/>
<path d="M177.869 49.4125L178.24 42.6313L172.613 44.4383C172.613 44.4383 171.294 49.2957 174.956 50.5736L177.869 49.4125Z" fill="#FFC3BD"/>
<path d="M177.567 38.9761L172.916 40.9135L172.613 44.4381L178.247 42.6312L177.567 38.9761Z" fill="#FFC3BD"/>
<path opacity="0.2" d="M215.767 228.367L216.509 234.722L221.833 234.716L221.098 228.36L215.767 228.367Z" fill="black"/>
<path opacity="0.2" d="M259.229 209.405L255.196 212.888L259.909 217.216L263.936 213.733L259.229 209.405Z" fill="black"/>
<path d="M226.835 77.327C226.883 75.74 225.639 74.4071 224.052 74.3727C208.855 74.0911 198.968 78.3507 198.288 78.6256C197.766 78.8317 197.402 79.292 197.306 79.8416C196.674 83.6479 194.88 99.6011 203.668 124.568C212.16 123.359 227.728 121.14 231.864 120.542C231.459 116.386 226.217 97.3063 226.842 77.327H226.835Z" fill="#263238"/>
<path d="M204.08 76.7154C202.41 78.9483 201.655 84.0942 207.185 87.8592C213.987 82.782 217.477 77.32 218.528 74.4756C212.489 74.7985 207.563 75.781 204.08 76.7154Z" fill="white"/>
<path d="M202.788 78.8041C202.032 78.8041 201.414 78.1857 201.414 77.43C201.414 76.2964 202.397 75.3139 203.221 74.6955C206.01 72.5932 211.445 71.0611 218.322 73.0398C219.051 73.2528 219.47 74.0085 219.264 74.7436C219.051 75.4719 218.295 75.891 217.56 75.6849C209.59 73.3833 204.684 76.6536 204.149 77.5949C204.066 78.2751 203.489 78.8041 202.781 78.8041H202.788Z" fill="#4CC27B"/>
<path d="M214.207 61.4082C214 65.3725 214.255 72.5452 217.319 74.73C215.519 77.1141 213.121 79.9104 208.566 80.728C205.831 81.2158 204.876 80.1989 204.76 78.9142C204.643 77.6637 205.351 76.4614 206.436 75.8293C209.397 74.1117 208.806 71.3498 207.741 68.7321L214.2 61.4014L214.207 61.4082Z" fill="#FFC3BD"/>
<path d="M202.369 110.326C202.217 110.326 202.059 110.298 201.908 110.25C201.194 109.996 200.816 109.213 201.07 108.498C201.551 107.145 201.311 106.485 200.96 105.496L200.823 105.104C200.699 104.754 200.294 104.307 199.902 103.875C199.277 103.188 198.576 102.411 198.343 101.374C198.088 100.247 198.446 99.1889 198.727 98.3438C198.878 97.8904 199.05 97.3682 199.023 97.1003C198.982 96.743 198.686 96.2209 198.398 95.7262C197.937 94.9361 197.422 94.0361 197.429 92.9918C197.436 91.8238 198.033 90.8963 198.514 90.1474C198.748 89.7901 199.03 89.3435 199.057 89.1168C199.098 88.7939 199.002 88.4847 198.837 88.0038C198.617 87.3442 198.343 86.5267 198.604 85.5304C198.913 84.3556 199.675 83.6823 200.239 83.1945C200.493 82.9746 200.754 82.7479 200.809 82.5968C200.926 82.3219 200.885 82.0471 200.809 81.5799C200.706 80.9478 200.569 80.089 201.118 79.2165C201.599 78.4676 201.551 78.2684 201.51 78.1104C201.469 77.9386 201.4 77.6844 201.421 77.3683C201.462 76.6126 202.108 76.0355 202.863 76.063C203.578 76.0973 204.141 76.6813 204.169 77.389V77.4302C204.375 78.2065 204.43 79.134 203.468 80.6524C203.468 80.7486 203.502 80.9685 203.53 81.1333C203.626 81.7242 203.777 82.6242 203.358 83.6411C203.049 84.3899 202.499 84.8709 202.053 85.2625C201.613 85.6472 201.359 85.8808 201.269 86.2175C201.221 86.4099 201.304 86.6778 201.455 87.1313C201.654 87.7359 201.908 88.4985 201.792 89.4466C201.688 90.2985 201.235 91.0062 200.83 91.6314C200.514 92.1261 200.184 92.6345 200.184 93.0055C200.184 93.3009 200.5 93.8574 200.788 94.3452C201.201 95.0598 201.668 95.8636 201.771 96.7911C201.867 97.6637 201.592 98.4812 201.352 99.2095C201.159 99.7866 200.96 100.384 201.043 100.769C201.118 101.099 201.565 101.587 201.956 102.026C202.513 102.638 203.138 103.325 203.44 104.211L203.564 104.568C203.976 105.716 204.485 107.138 203.681 109.412C203.482 109.976 202.953 110.326 202.382 110.326H202.369Z" fill="#4CC27B"/>
<path d="M226.58 77.1001C227.329 77.7803 227.947 78.3643 228.586 79.0238C229.218 79.6696 229.837 80.3223 230.448 80.9819C231.671 82.301 232.825 83.6889 233.938 85.1248C236.151 88.0104 238.178 91.109 239.71 94.6816C240.087 95.5816 240.431 96.5091 240.713 97.4847C240.864 97.9657 240.981 98.4672 241.097 98.9688L241.139 99.1543L241.201 99.4772C241.242 99.697 241.262 99.9237 241.283 100.144C241.31 100.597 241.304 101.051 241.242 101.49C241.132 102.376 240.85 103.173 240.5 103.84C240.156 104.506 239.751 105.07 239.339 105.544C238.514 106.499 237.648 107.179 236.79 107.756C235.072 108.903 233.348 109.666 231.609 110.298C230.744 110.614 229.871 110.882 228.992 111.109C228.105 111.342 227.26 111.549 226.305 111.713L225.069 107.914C225.735 107.529 226.491 107.124 227.185 106.712C227.886 106.286 228.579 105.867 229.246 105.434C230.579 104.568 231.85 103.641 232.839 102.699C233.32 102.225 233.725 101.744 233.959 101.36C234.2 100.968 234.179 100.707 234.11 100.789C234.096 100.803 234.083 100.831 234.076 100.858C234.069 100.872 234.076 100.886 234.062 100.892C234.062 100.892 234.062 100.913 234.062 100.899L234.021 100.776C233.918 100.453 233.815 100.13 233.684 99.807C233.444 99.1543 233.135 98.5016 232.805 97.842C232.145 96.5229 231.355 95.2106 230.462 93.9327C229.583 92.6411 228.621 91.3769 227.604 90.1402C226.601 88.8967 225.522 87.6875 224.437 86.4851C223.894 85.8874 223.337 85.2965 222.774 84.7263C222.217 84.1698 221.62 83.5446 221.118 83.0637L226.566 77.107L226.58 77.1001Z" fill="#FFC3BD"/>
<path d="M224.808 74.4964C227.913 74.9499 232.784 82.7204 232.784 82.7204L224.876 93.3215C224.876 93.3215 220.658 89.3091 219.428 85.764C217.071 78.9966 218.707 73.6033 224.808 74.4964Z" fill="#263238"/>
<path d="M220.665 101.181C220.198 101.181 219.745 100.94 219.484 100.515C218.893 99.5252 218.893 98.4122 218.9 97.519C218.9 97.0381 218.9 96.4953 218.79 96.248C218.639 95.9182 218.192 95.5197 217.759 95.135C217.072 94.5235 216.303 93.8364 215.98 92.8402C215.622 91.7272 215.897 90.6623 216.117 89.8035C216.22 89.3913 216.358 88.876 216.309 88.6561C216.241 88.3057 215.897 87.8248 215.567 87.3576C215.052 86.6293 214.468 85.798 214.399 84.788C214.324 83.572 214.887 82.6101 215.341 81.8406C215.512 81.5452 215.774 81.0986 215.787 80.9406C215.815 80.5421 215.609 79.9787 215.416 79.4291C215.114 78.5909 214.805 77.7252 215.032 76.8183C215.554 74.7709 216.44 73.9121 216.866 73.5068L216.955 73.4243C217.484 72.8747 218.35 72.8609 218.9 73.39C219.449 73.919 219.463 74.7847 218.934 75.3343C218.886 75.3824 218.838 75.4305 218.776 75.4923C218.48 75.7809 218.027 76.2137 217.697 77.5054C217.697 77.6428 217.876 78.1649 218.006 78.5085C218.274 79.2505 218.604 80.1711 218.535 81.1467C218.474 81.9506 218.075 82.6376 217.718 83.2422C217.422 83.7369 217.127 84.2522 217.148 84.6232C217.161 84.8568 217.546 85.3926 217.821 85.7843C218.295 86.4507 218.824 87.2065 219.01 88.1271C219.174 88.9653 218.968 89.7829 218.783 90.5043C218.639 91.0745 218.487 91.6585 218.597 92.0158C218.687 92.2974 219.188 92.744 219.594 93.1013C220.205 93.6441 220.899 94.2693 221.291 95.1143C221.655 95.9113 221.655 96.777 221.648 97.5396C221.648 98.1511 221.648 98.7832 221.847 99.1198C222.239 99.7725 222.026 100.618 221.373 101.002C221.153 101.133 220.906 101.195 220.672 101.195L220.665 101.181Z" fill="#4CC27B"/>
<path opacity="0.2" d="M211.569 64.4038L207.742 68.7391C208.024 69.4192 208.264 70.12 208.415 70.8139C210.023 70.3399 212.022 68.2169 211.954 66.4718C211.919 65.5993 211.761 64.7817 211.569 64.4038Z" fill="black"/>
<path d="M203.537 50.1404C201.84 53.0947 202.926 57.2926 202.926 57.2926C204.499 58.33 206.004 57.4368 206.004 57.4368L205.523 49.5977L203.531 50.1336L203.537 50.1404Z" fill="#263238"/>
<path d="M216.914 57.6429C215.615 62.7614 215.114 65.8256 211.988 67.9898C207.295 71.2464 201.345 67.6601 201.091 62.253C200.858 57.3887 203.029 49.8312 208.491 48.7251C213.87 47.6396 218.212 52.5176 216.914 57.6429Z" fill="#FFC3BD"/>
<path d="M201.95 63.6068C201.888 63.6068 201.826 63.6068 201.764 63.5862L190.119 61.1197C189.48 60.9823 188.937 60.6113 188.58 60.0617C188.223 59.5189 188.106 58.8662 188.236 58.2273C188.374 57.5883 188.745 57.0456 189.294 56.6883C189.844 56.331 190.49 56.2142 191.129 56.3448C191.617 56.4478 191.926 56.9288 191.823 57.4166C191.72 57.9044 191.239 58.2204 190.751 58.1105C190.586 58.0761 190.414 58.1105 190.27 58.1998C190.126 58.2891 190.03 58.4334 189.995 58.5983C189.961 58.7632 189.995 58.9349 190.085 59.0792C190.174 59.2235 190.318 59.3197 190.483 59.354L202.128 61.8205C202.616 61.9236 202.925 62.4045 202.822 62.8923C202.733 63.3183 202.355 63.6068 201.943 63.6068H201.95Z" fill="#4CC27B"/>
<path d="M201.902 63.806L200.493 63.5105L200.94 61.415L202.348 61.7105C202.925 61.8341 203.296 62.4044 203.173 62.9815C203.049 63.5586 202.479 63.9296 201.902 63.806Z" fill="white"/>
<path d="M213.733 54.8194C213.733 52.875 212.262 51.4528 207.357 51.8238C203.351 52.1261 201.407 50.2574 202.548 47.6535C205.79 49.3436 205.255 47.1313 211.438 46.8634C217.621 46.5954 219.415 48.9657 220.067 52.5521C223.853 58.1653 217.319 60.4944 217.319 60.4944L214.763 62.7273C214.763 62.7273 213.073 63.1944 211.83 61.786C211.83 61.786 211.328 57.2378 213.733 54.8262V54.8194Z" fill="#263238"/>
<path d="M207.165 45.8946L207.007 45.9839C206.361 46.3274 206.334 47.2412 206.959 47.6259L221.304 56.4957C221.881 56.8529 222.637 56.5026 222.74 55.8292C222.878 54.9223 222.465 54.0223 221.682 53.5414L209.453 45.9633C208.759 45.5304 207.893 45.503 207.172 45.8877L207.165 45.8946Z" fill="#4CC27B"/>
<path d="M209.748 46.8428L213.424 41.477C213.644 41.161 214.07 41.0648 214.399 41.264L224.526 47.3238C224.897 47.5436 224.994 48.0452 224.733 48.3887L220.335 54.1874L209.748 46.836V46.8428Z" fill="#4CC27B"/>
<path d="M209.748 46.8427L211.211 44.2319L222.52 51.707L220.335 54.1941L209.748 46.8427Z" fill="#4CC27B"/>
<path opacity="0.6" d="M209.748 46.8427L211.211 44.2319L222.52 51.707L220.335 54.1941L209.748 46.8427Z" fill="white"/>
<path d="M217.566 63.9229C216.474 64.6718 215.162 64.8642 214.131 64.6649C212.579 64.3695 212.572 62.7824 213.65 61.6625C214.619 60.6526 216.605 59.5945 217.855 60.4739C219.085 61.3396 218.817 63.0641 217.566 63.9229Z" fill="#FFC3BD"/>
<path d="M214.51 233.493L223.524 233.472C223.524 233.472 222.108 201.414 220.164 184.939C219.573 179.924 220.212 173.053 220.274 165.379C220.356 155.712 220.803 145.18 221.243 136.915C221.71 128.21 222.101 121.937 222.101 121.937L203.661 124.568C203.661 124.568 201.827 170.216 204.699 186.21C207.68 202.843 214.51 233.493 214.51 233.493Z" fill="#4CC27B"/>
<path opacity="0.2" d="M220.274 165.386C220.356 155.719 220.803 145.186 221.242 136.921L218.473 133.246C215.1 139.601 217.457 156.523 220.28 165.386H220.274Z" fill="black"/>
<path d="M212.448 123.318C212.448 123.318 223.908 168.546 229.343 183.166C235.299 199.181 257.244 217.89 257.244 217.89L262.781 211.789C262.781 211.789 251.177 193.699 242.63 176.289C238.535 153.692 231.857 120.535 231.857 120.535L212.448 123.311V123.318Z" fill="#4CC27B"/>
<path d="M256.495 218.817L265.179 211.307L262.939 208.71L253.08 216.934L256.495 218.817Z" fill="#263238"/>
<path d="M213.382 233.705L224.121 233.692V230.222L212.104 230.057L213.382 233.705Z" fill="#263238"/>
<path d="M209 56.64C208.663 56.53 208.258 56.8667 208.093 57.382L209.316 57.7736C209.481 57.2583 209.336 56.7499 209 56.64Z" fill="#263238"/>
<path d="M203.64 55.6301C203.29 55.6095 202.974 56.0286 202.933 56.5714L204.217 56.6538C204.252 56.1111 203.998 55.6576 203.64 55.6301Z" fill="#263238"/>
<path d="M205.488 57.1963C205.488 57.1963 204.066 59.4498 202.788 60.4254C203.4 61.2636 204.732 61.188 204.732 61.188L205.488 57.2032V57.1963Z" fill="#ED847E"/>
<path d="M210.744 56.0837C210.785 56.0906 210.826 56.0906 210.874 56.0837C211.005 56.0425 211.08 55.9051 211.039 55.7677C210.634 54.4348 209.521 54.0982 209.473 54.0844C209.335 54.0432 209.198 54.1256 209.164 54.2562C209.122 54.3867 209.198 54.531 209.335 54.5653C209.37 54.5791 210.235 54.847 210.558 55.912C210.586 56.0013 210.661 56.0631 210.744 56.0837Z" fill="#263238"/>
<path d="M202.053 54.9088C202.135 54.9225 202.218 54.8951 202.28 54.8264C203.029 54.0019 203.929 54.1256 203.963 54.1256C204.1 54.1462 204.231 54.05 204.252 53.9126C204.272 53.7752 204.183 53.6446 204.045 53.624C203.997 53.624 202.843 53.4454 201.909 54.4828C201.813 54.5859 201.826 54.7439 201.929 54.8401C201.971 54.8744 202.012 54.8951 202.06 54.9019L202.053 54.9088Z" fill="#263238"/>
<path d="M262.788 223.036C263.159 222.713 263.496 222.287 263.722 221.978C263.75 221.936 263.757 221.881 263.729 221.833C263.702 221.792 263.654 221.765 263.606 221.772C263.386 221.806 261.428 222.101 261.167 222.72C261.125 222.816 261.105 222.967 261.229 223.139C261.393 223.372 261.6 223.489 261.84 223.489C262.149 223.489 262.479 223.297 262.781 223.029L262.788 223.036ZM263.338 222.074C262.768 222.809 262.218 223.235 261.847 223.235C261.682 223.235 261.545 223.153 261.435 222.988C261.38 222.905 261.387 222.857 261.4 222.823C261.531 222.5 262.555 222.218 263.338 222.074Z" fill="#4CC27B"/>
<path d="M263.702 221.991C263.702 221.991 263.736 221.957 263.743 221.929C263.757 221.881 263.743 221.833 263.715 221.799C263.674 221.751 262.616 220.631 261.833 220.638C261.627 220.638 261.455 220.713 261.324 220.864C261.118 221.091 261.173 221.29 261.228 221.387C261.51 221.922 263.042 222.142 263.647 222.019C263.667 222.019 263.688 222.005 263.702 221.991ZM261.544 221.002C261.62 220.933 261.716 220.899 261.833 220.899C262.334 220.899 263.021 221.483 263.344 221.792C262.671 221.826 261.606 221.579 261.441 221.256C261.427 221.229 261.393 221.16 261.503 221.036C261.503 221.036 261.53 221.009 261.544 220.995V221.002Z" fill="#4CC27B"/>
<path d="M216.715 240.809C216.756 240.796 216.79 240.754 216.797 240.706C216.804 240.651 216.776 240.603 216.728 240.576C216.488 240.452 214.344 239.366 213.698 239.731C213.575 239.799 213.499 239.916 213.492 240.067C213.472 240.321 213.554 240.528 213.733 240.679C214.317 241.194 215.842 240.981 216.701 240.809H216.715ZM213.87 239.93C214.269 239.792 215.43 240.232 216.275 240.631C215.1 240.83 214.221 240.775 213.898 240.486C213.781 240.383 213.733 240.253 213.747 240.081C213.747 240.012 213.774 239.978 213.829 239.944C213.843 239.937 213.856 239.93 213.877 239.923L213.87 239.93Z" fill="#4CC27B"/>
<path d="M216.715 240.809C216.715 240.809 216.736 240.803 216.749 240.796C216.784 240.768 216.804 240.727 216.804 240.679C216.804 240.617 216.653 239.181 215.973 238.631C215.767 238.46 215.533 238.391 215.272 238.418C214.929 238.453 214.826 238.631 214.805 238.769C214.709 239.373 215.987 240.521 216.626 240.809C216.653 240.823 216.687 240.823 216.722 240.809H216.715ZM215.169 238.693C215.169 238.693 215.245 238.673 215.3 238.666C215.492 238.645 215.657 238.7 215.815 238.824C216.261 239.188 216.454 240.047 216.523 240.466C215.863 240.074 214.997 239.167 215.059 238.81C215.059 238.789 215.073 238.728 215.176 238.693H215.169Z" fill="#4CC27B"/>
<path d="M225.729 107.584L220.61 109.206L224.588 113.163C224.588 113.163 229.233 111.15 227.776 109.103L225.729 107.584Z" fill="#FFC3BD"/>
<path d="M218.494 113.727L222.142 115.932L224.581 113.163L220.603 109.206L218.494 113.727Z" fill="#FFC3BD"/>
</g>
<defs>
<clipPath id="clip0_47_12685">
<rect width="343.523" height="256" fill="white"/>
</clipPath>
</defs>
</svg>
