<svg width="345" height="256" viewBox="0 0 345 256" fill="none" xmlns="http://www.w3.org/2000/svg">
<g clip-path="url(#clip0_47_12362)">
<path d="M309.558 236.376H286.77V236.548H309.558V236.376Z" fill="#EBEBEB"/>
<path d="M227.899 238.248H221.92V238.42H227.899V238.248Z" fill="#EBEBEB"/>
<path d="M286.082 229.991H272.878V230.163H286.082V229.991Z" fill="#EBEBEB"/>
<path d="M65.8131 231.147H36.0957V231.319H65.8131V231.147Z" fill="#EBEBEB"/>
<path d="M76.2988 231.147H71.9434V231.319H76.2988V231.147Z" fill="#EBEBEB"/>
<path d="M154.917 234.051H90.459V234.223H154.917V234.051Z" fill="#EBEBEB"/>
<path d="M164.034 194.618H31.1691C29.0017 194.618 27.2402 192.857 27.2402 190.689V3.92883C27.2402 1.76144 29.0017 0 31.1691 0H164.034C166.201 0 167.962 1.76144 167.962 3.92883V190.689C167.962 192.857 166.201 194.618 164.034 194.618ZM31.1691 0.172015C29.098 0.172015 27.4122 1.85777 27.4122 3.92883V190.689C27.4122 192.76 29.098 194.446 31.1691 194.446H164.034C166.105 194.446 167.79 192.76 167.79 190.689V3.92883C167.79 1.85777 166.105 0.172015 164.034 0.172015H31.1691Z" fill="#EBEBEB"/>
<path d="M312.861 194.618H179.996C177.829 194.618 176.067 192.857 176.067 190.689V3.92883C176.067 1.76144 177.829 0 179.996 0H312.861C315.028 0 316.79 1.76144 316.79 3.92883V190.689C316.79 192.857 315.028 194.618 312.861 194.618ZM179.996 0.172015C177.925 0.172015 176.239 1.85777 176.239 3.92883V190.689C176.239 192.76 177.925 194.446 179.996 194.446H312.861C314.932 194.446 316.618 192.76 316.618 190.689V3.92883C316.618 1.85777 314.932 0.172015 312.861 0.172015H179.996Z" fill="#EBEBEB"/>
<path d="M344.03 225.306H0V225.478H344.03V225.306Z" fill="#EBEBEB"/>
<path d="M240.869 221.315H306.358V134.172H240.869V221.315Z" fill="#F5F5F5"/>
<path d="M228.374 221.315H240.869V134.172H228.374V221.315Z" fill="#E6E6E6"/>
<path d="M245.121 161.797H301.77V140.633H245.121V161.797Z" fill="#FAFAFA"/>
<path d="M280.831 140.633L280.584 143.454C280.501 144.383 279.724 145.098 278.788 145.098H268.095C267.16 145.098 266.382 144.383 266.299 143.454L266.052 140.633H280.824H280.831Z" fill="#EBEBEB"/>
<path d="M245.121 185.267H301.77V164.102H245.121V185.267Z" fill="#FAFAFA"/>
<path d="M280.831 164.109L280.584 166.93C280.501 167.859 279.724 168.575 278.788 168.575H268.095C267.16 168.575 266.382 167.859 266.299 166.93L266.052 164.109H280.824H280.831Z" fill="#EBEBEB"/>
<path d="M245.121 208.744H301.77V187.579H245.121V208.744Z" fill="#FAFAFA"/>
<path d="M280.831 187.579L280.584 190.4C280.501 191.329 279.724 192.045 278.788 192.045H268.095C267.16 192.045 266.382 191.329 266.299 190.4L266.052 187.579H280.824H280.831Z" fill="#EBEBEB"/>
<path d="M245.121 225.657H301.081L301.769 221.301H245.121V225.657Z" fill="#E6E6E6"/>
<path d="M233.424 225.657H245.121V221.301H232.736L233.424 225.657Z" fill="#E0E0E0"/>
<path d="M271.426 134.261H293.788L291.311 105.906H268.949L271.426 134.261Z" fill="#FAFAFA"/>
<path d="M271.426 134.261H270.36L267.876 105.906H268.949L271.426 134.261Z" fill="#EBEBEB"/>
<path d="M273.456 131.371H291.256L289.282 108.796H271.481L273.456 131.371Z" fill="#F0F0F0"/>
<path d="M274.757 129.514H289.626L287.981 110.654H273.105L274.757 129.514Z" fill="#E6E6E6"/>
<path d="M265.144 134.261L266.678 116.709H244.419L242.885 134.261H265.144Z" fill="#F0F0F0"/>
<path d="M265.144 134.261L266.678 116.709H267.875L266.341 134.261H265.144Z" fill="#E0E0E0"/>
<path d="M263.031 132.473L264.256 118.498H246.531L245.307 132.473H263.031Z" fill="#EBEBEB"/>
<path d="M261.668 131.323L262.694 119.647H247.886L246.868 131.323H261.668Z" fill="#F5F5F5"/>
<path d="M213.739 213.863C213.739 218.514 213.01 221.521 211.778 223.455C210.856 224.907 209.191 225.725 207.471 225.725H200.735C199.015 225.725 197.357 224.907 196.428 223.455C195.196 221.521 194.467 218.514 194.467 213.863C194.467 207.113 197.405 201.719 198.368 197.405C198.712 195.85 197.563 191.095 197.563 191.095H210.636C210.636 191.095 209.487 195.857 209.831 197.405C210.794 201.719 213.733 207.12 213.733 213.863H213.739Z" fill="#EBEBEB"/>
<path d="M236.005 186.554C236.005 180.699 226.819 183.128 224.507 174.038C223.634 170.598 231.099 162.802 231.099 162.802H207.808C207.808 162.802 215.281 170.598 214.4 174.038C212.088 183.128 202.902 180.692 202.902 186.554C202.902 193.008 215.859 206.439 216.478 221.563C216.533 222.911 214.042 225.719 214.042 225.719H224.858C224.858 225.719 222.368 222.918 222.423 221.563C223.049 206.439 235.998 193.001 235.998 186.554H236.005Z" fill="#F5F5F5"/>
<path d="M228.967 201.781C230.322 198.933 227.522 189.251 227.522 189.251H237.615C237.615 189.251 234.815 198.933 236.171 201.781C237.127 203.79 239.301 205.077 239.301 207.451V221.742C239.301 225.444 236.274 225.719 232.572 225.719C228.87 225.719 225.843 225.444 225.843 221.742V207.451C225.843 205.07 228.017 203.79 228.973 201.781H228.967Z" fill="#F0F0F0"/>
<path d="M113.633 117.369C107.833 114.858 104.53 109.56 106.257 105.555C107.991 101.551 114.115 100.34 119.915 102.851C125.716 105.363 129.025 110.661 127.291 114.665C125.557 118.67 119.434 119.881 113.633 117.369ZM118.25 106.711C115.532 105.535 112.663 106.106 111.851 107.977C111.039 109.856 112.587 112.333 115.305 113.509C118.023 114.686 120.892 114.115 121.704 112.243C122.516 110.365 120.968 107.888 118.25 106.711Z" fill="#E6E6E6"/>
<path d="M120.459 106.931L117.707 105.741L134.358 67.2509C134.688 66.4872 135.569 66.1431 136.333 66.4665C137.097 66.7968 137.441 67.6775 137.117 68.4413L120.466 106.931H120.459Z" fill="#E6E6E6"/>
<path d="M138.383 72.1637L133.092 69.8519L134.289 67.0996L139.573 69.4046L138.383 72.1637Z" fill="#E6E6E6"/>
<path d="M135.776 75.2464L131.991 73.6019L133.182 70.8428L136.966 72.4872L135.776 75.2464Z" fill="#E6E6E6"/>
<path d="M131.642 76.099L130.45 78.8521L134.693 80.6891L135.885 77.9361L131.642 76.099Z" fill="#E6E6E6"/>
<path d="M121.526 102.824L120.012 102.17C119.255 101.847 118.911 100.966 119.235 100.216V100.195C119.572 99.4384 120.446 99.0944 121.203 99.4178L122.716 100.071C123.473 100.395 123.817 101.276 123.494 102.026V102.046C123.157 102.803 122.283 103.147 121.526 102.824Z" fill="#E6E6E6"/>
<path d="M239.769 89.5925C244.365 92.6544 245.548 98.9776 242.411 103.684C239.273 108.39 232.984 109.732 228.388 106.677C223.792 103.615 222.608 97.2919 225.746 92.5855C228.884 87.8792 235.172 86.5375 239.769 89.5994V89.5925ZM231.409 102.136C233.562 103.567 236.507 102.941 237.98 100.732C239.452 98.5235 238.895 95.5648 236.741 94.1268C234.588 92.6956 231.643 93.3218 230.17 95.5304C228.698 97.7391 229.255 100.698 231.409 102.136Z" fill="#E6E6E6"/>
<path d="M230.301 100.911L233.149 102.81L212.776 133.993C212.253 134.778 211.186 134.991 210.402 134.468C209.617 133.945 209.404 132.885 209.927 132.094L230.301 100.911Z" fill="#E6E6E6"/>
<path d="M210.051 125.296L216.044 129.321L213.051 133.814L207.044 129.782C206.184 129.204 205.95 128.035 206.528 127.175L207.43 125.819C208.008 124.952 209.184 124.718 210.051 125.296Z" fill="#E6E6E6"/>
<path d="M156.561 29.9995L153.396 38.1943C153.114 38.9306 152.281 39.3021 151.545 39.0131C150.809 38.731 150.437 37.8985 150.726 37.1622L153.891 28.9674C154.91 26.3184 153.589 23.3391 150.946 22.3139L148.015 21.1855C145.366 20.1671 142.387 21.4882 141.362 24.1304L140.068 27.4743L137.392 26.4422L138.685 23.0983C140.275 18.9768 144.926 16.9195 149.04 18.5089L151.972 19.6373C156.093 21.2267 158.15 25.878 156.561 29.9995Z" fill="#F0F0F0"/>
<path d="M156.059 31.2929C155.845 31.0245 155.563 30.7975 155.219 30.6668L139.256 24.5017C138.898 24.3641 138.527 24.3366 138.176 24.4054C137.536 24.5292 136.972 24.9696 136.724 25.6233L130.559 41.5863C130.167 42.5977 130.669 43.7262 131.681 44.1184L147.644 50.2834C148.655 50.6756 149.784 50.1733 150.176 49.1618L156.341 33.1988C156.595 32.5383 156.471 31.8158 156.059 31.2929ZM143.935 43.6298L138.871 41.6757L141.547 37.0038C141.21 36.3226 141.148 35.5107 141.444 34.747C142.002 33.302 143.625 32.5796 145.077 33.1369C146.529 33.6942 147.245 35.3249 146.687 36.7699C146.391 37.5336 145.8 38.0909 145.091 38.3662L143.935 43.6298Z" fill="#E6E6E6"/>
<path d="M47.5803 216.402L174.961 216.402V147.85H47.5803L47.5803 216.402Z" fill="#E6E6E6"/>
<path d="M164.75 225.292H172.759V219.243H164.75V225.292Z" fill="#E6E6E6"/>
<path d="M37.8572 225.292H45.8662L45.8662 142.745H37.8572L37.8572 225.292Z" fill="#E6E6E6"/>
<path d="M45.7705 142.745V225.292H50.0434V220.668H172.759V225.292H177.032V142.745H45.7705ZM50.0434 150.217H109.265V178.889H50.0434V150.217ZM172.759 213.196H113.538V150.217H172.759V213.196ZM50.0434 213.196V183.155H109.265V213.196H50.0434Z" fill="#F0F0F0"/>
<path d="M113.53 213.196H168.754V153.3H113.53V213.196Z" fill="#F5F5F5"/>
<path d="M116.035 181.456C116.035 182.873 117.184 184.022 118.602 184.022C120.019 184.022 121.168 182.873 121.168 181.456C121.168 180.038 120.019 178.889 118.602 178.889C117.184 178.889 116.035 180.038 116.035 181.456Z" fill="#FAFAFA"/>
<path d="M118.602 184.022C119.634 184.022 120.521 183.403 120.927 182.522C121.079 182.845 121.168 183.21 121.168 183.588C121.168 185.006 120.019 186.155 118.602 186.155C117.184 186.155 116.035 185.006 116.035 183.588C116.035 183.203 116.125 182.845 116.276 182.522C116.682 183.403 117.57 184.022 118.602 184.022Z" fill="#E0E0E0"/>
<path d="M147.341 213.196H134.165L127.869 153.3H141.046L147.341 213.196Z" fill="#FAFAFA"/>
<path d="M130.794 213.196H128.166L121.877 153.3H124.498L130.794 213.196Z" fill="#FAFAFA"/>
<path d="M95.9232 178.861H101.139V153.245H95.9232V178.861Z" fill="#FAFAFA"/>
<path d="M74.2835 178.861H79.499V153.245H74.2835V178.861Z" fill="#F5F5F5"/>
<path d="M90.7005 178.861H95.916V155.041H90.7005V178.861Z" fill="#F5F5F5"/>
<path d="M79.4993 178.861H84.7148V155.041H79.4993V178.861Z" fill="#FAFAFA"/>
<path d="M84.7213 178.861H88.0928V153.245H84.7213V178.861Z" fill="#EBEBEB"/>
<path d="M88.0856 178.861H90.6934V155.041H88.0856V178.861Z" fill="#FAFAFA"/>
<path d="M69.0677 178.861H74.2832V153.245H69.0677V178.861Z" fill="#EBEBEB"/>
<path d="M63.845 178.861H69.0605V155.041H63.845V178.861Z" fill="#E6E6E6"/>
<path d="M52.6439 178.861H57.8594V155.041H52.6439V178.861Z" fill="#E6E6E6"/>
<path d="M57.8658 178.861H61.2373V153.245H57.8658V178.861Z" fill="#FAFAFA"/>
<path d="M61.238 178.861H63.8457V155.041H61.238V178.861Z" fill="#EBEBEB"/>
<path d="M50.0358 178.854H52.6436V153.843H50.0358V178.854Z" fill="#EBEBEB"/>
<path d="M55.2516 187.579H50.0361V213.196H55.2516V187.579Z" fill="#EBEBEB"/>
<path d="M76.8844 187.579H71.6689V213.196H76.8844V187.579Z" fill="#FAFAFA"/>
<path d="M60.4675 189.375H55.252V213.196H60.4675V189.375Z" fill="#FAFAFA"/>
<path d="M71.6686 189.375H66.4531V213.196H71.6686V189.375Z" fill="#EBEBEB"/>
<path d="M66.4535 187.579H63.082V213.196H66.4535V187.579Z" fill="#FAFAFA"/>
<path d="M63.0814 189.375H60.4736V213.196H63.0814V189.375Z" fill="#F5F5F5"/>
<path d="M82.1061 187.579H76.8906V213.196H82.1061V187.579Z" fill="#EBEBEB"/>
<path d="M87.3219 189.375H82.1064V213.196H87.3219V189.375Z" fill="#F5F5F5"/>
<path d="M98.5241 189.375H93.3086V213.196H98.5241V189.375Z" fill="#E6E6E6"/>
<path d="M93.308 187.579H89.9365V213.196H93.308V187.579Z" fill="#FAFAFA"/>
<path d="M104.51 187.579H101.139V213.196H104.51V187.579Z" fill="#FAFAFA"/>
<path d="M89.9369 189.375H87.3291V213.196H89.9369V189.375Z" fill="#EBEBEB"/>
<path d="M101.131 188.185H98.5234V213.196H101.131V188.185Z" fill="#EBEBEB"/>
<path d="M55.8572 98.6265C55.8572 98.6265 54.9833 99.0325 54.5841 99.8445C54.185 100.657 55.4237 102.164 55.4237 102.164C55.4237 102.164 56.4697 102.893 57.502 102.418L58.5411 101.95C58.5411 101.95 56.7725 98.8742 55.9123 98.8467L55.8641 98.6334L55.8572 98.6265Z" fill="#E6E6E6"/>
<path d="M60.2955 98.5991C60.4193 100.058 59.5179 101.895 58.2175 102.012C56.9171 102.122 55.7061 100.471 55.5822 99.0119C55.4584 97.5532 56.5042 97.4087 57.8116 97.2986C59.112 97.1885 60.1716 97.1472 60.3023 98.6059L60.2955 98.5991Z" fill="#E6E6E6"/>
<path d="M56.4765 98.1724C56.4765 98.1724 57.4743 98.9638 59.5251 98.5027C59.5251 98.5027 56.2907 100.657 56.4765 98.1724Z" fill="#E6E6E6"/>
<path d="M57.3574 97.8837C57.3574 97.8837 58.5067 97.6842 58.5204 98.1659C58.5204 98.1659 59.4908 98.1108 59.36 97.7048C59.2224 97.2988 57.3574 97.8906 57.3574 97.8906V97.8837Z" fill="#E6E6E6"/>
<g opacity="0.2">
<path d="M56.4765 98.1724C56.4765 98.1724 57.4743 98.9638 59.5251 98.5027C59.5251 98.5027 56.2907 100.657 56.4765 98.1724Z" fill="#FAFAFA"/>
</g>
<g opacity="0.2">
<path d="M57.3574 97.8837C57.3574 97.8837 58.5067 97.6842 58.5204 98.1659C58.5204 98.1659 59.4908 98.1108 59.36 97.7048C59.2224 97.2988 57.3574 97.8906 57.3574 97.8906V97.8837Z" fill="#FAFAFA"/>
</g>
<path d="M56.0293 102.473C56.4421 103.147 57.2884 103.491 58.0728 103.395C58.8572 103.299 59.559 102.81 60.0132 102.163C60.4673 101.517 60.6806 100.725 60.7288 99.9409C60.7425 99.7345 60.7563 99.2253 60.4879 99.1496C60.2402 99.0808 60.0889 99.4248 59.9788 99.5831C59.6485 100.044 59.3045 100.478 58.8847 100.863C58.4788 101.234 58.0316 101.565 57.5499 101.833C57.4123 101.909 56.105 102.59 56.0293 102.473Z" fill="#E6E6E6"/>
<path d="M61.6165 99.5623C61.8643 100.154 61.7748 100.87 61.3894 101.386C61.1348 101.723 60.777 101.964 60.4191 102.177C60.1714 102.329 59.8479 102.473 59.6002 102.315C59.3318 102.143 59.3593 101.758 59.4213 101.441C59.5176 100.966 59.6208 100.491 59.7378 100.017C59.8342 99.6311 59.8961 98.9842 60.1232 98.6539C60.3365 98.3442 60.6393 98.5301 60.9628 98.7503C61.2518 98.9498 61.4858 99.232 61.6234 99.5554L61.6165 99.5623Z" fill="#E6E6E6"/>
<g opacity="0.2">
<path d="M56.3599 101.661C55.8575 101.641 55.3827 101.297 55.1969 100.829C55.0592 100.485 55.0661 99.6038 55.5134 99.4868C55.713 100.271 55.8851 100.98 56.3599 101.655V101.661Z" fill="#FAFAFA"/>
</g>
<g opacity="0.2">
<path d="M59.751 101.627C60.2259 101.489 60.6181 101.104 60.7626 100.629C60.8452 100.367 60.742 99.0324 60.3428 99.5967C60.2121 99.7825 60.2396 100.367 60.1708 100.601C60.0676 100.959 59.9299 101.303 59.7441 101.627H59.751Z" fill="#FAFAFA"/>
</g>
<g opacity="0.2">
<path d="M57.9352 102.452C58.2999 102.762 58.8918 102.782 59.2703 102.487C59.2221 102.741 58.41 102.961 58.1554 103.037C57.5017 103.23 57.1576 102.941 56.5176 102.672C56.5176 102.672 57.5223 102.824 57.9283 102.452H57.9352Z" fill="#FAFAFA"/>
</g>
<path d="M56.7998 129.252L56.8617 109.402L57.8801 103.36L58.2654 103.429L57.2539 109.436L57.1782 129.631L56.7998 129.252Z" fill="#E0E0E0"/>
<path d="M57.2129 109.299L56.9033 109.539C56.5937 109.133 56.3116 108.604 55.9882 107.991C55.4859 107.042 54.9148 105.968 54.0479 105.019L54.3368 104.757C55.2382 105.748 55.8162 106.842 56.3322 107.812C56.6487 108.411 56.9239 108.927 57.2129 109.305V109.299Z" fill="#E0E0E0"/>
<path d="M57.4541 106.636C57.984 106.498 58.4589 106.161 58.7617 105.707C59.1058 105.191 59.2296 104.565 59.3397 103.952C58.6516 104.159 57.9152 103.821 57.2064 103.904C56.6421 103.966 56.1122 104.317 55.8232 104.805C55.4516 105.445 55.3002 106.168 55.6305 106.464C55.8989 106.705 56.7453 106.822 57.4541 106.636Z" fill="#E6E6E6"/>
<path d="M54.8114 105.266C54.1783 105.666 53.3662 105.769 52.6505 105.535C51.9348 105.301 51.7284 104.234 51.4531 103.532C52.1 103.402 53.7379 103.491 54.1095 103.532C54.4811 103.567 54.8596 103.739 55.0591 104.055C55.2587 104.372 55.2243 104.847 54.9215 105.06C54.9009 105.046 54.8114 105.266 54.8114 105.266Z" fill="#E6E6E6"/>
<path d="M51.5567 106.422C51.9903 105.892 53.0638 105.514 53.7382 105.638C54.4126 105.762 54.9838 106.223 55.2247 106.773C55.0458 107.2 54.5709 107.441 54.1098 107.475C53.6488 107.51 53.1946 107.372 52.7541 107.234C52.3137 107.097 51.8595 106.966 51.3984 106.994L51.5636 106.422H51.5567Z" fill="#E6E6E6"/>
<path d="M64.8033 103.009C64.8033 103.009 65.5189 103.649 65.6634 104.551C65.8078 105.445 64.1771 106.518 64.1771 106.518C64.1771 106.518 62.9662 106.904 62.113 106.154L61.2598 105.397C61.2598 105.397 63.8538 102.982 64.6863 103.202L64.7964 103.009H64.8033Z" fill="#E6E6E6"/>
<path d="M60.5643 101.681C60.0139 103.037 60.3373 105.06 61.5482 105.555C62.7592 106.051 64.3968 104.819 64.9473 103.463C65.4977 102.108 64.5344 101.661 63.3234 101.172C62.1125 100.684 61.1079 100.333 60.5643 101.688V101.681Z" fill="#E6E6E6"/>
<path d="M64.3423 102.397C64.3423 102.397 63.1586 102.865 61.335 101.819C61.335 101.819 63.7917 104.833 64.3423 102.397Z" fill="#E6E6E6"/>
<path d="M63.5852 101.861C63.5852 101.861 62.5461 101.331 62.3878 101.785C62.3878 101.785 61.4725 101.448 61.7203 101.097C61.968 100.746 63.5783 101.861 63.5783 101.861H63.5852Z" fill="#E6E6E6"/>
<g opacity="0.2">
<path d="M64.3423 102.397C64.3423 102.397 63.1586 102.865 61.335 101.819C61.335 101.819 63.7917 104.833 64.3423 102.397Z" fill="#FAFAFA"/>
</g>
<g opacity="0.2">
<path d="M63.5852 101.861C63.5852 101.861 62.5461 101.331 62.3878 101.785C62.3878 101.785 61.4725 101.448 61.7203 101.097C61.968 100.746 63.5783 101.861 63.5783 101.861H63.5852Z" fill="#FAFAFA"/>
</g>
<path d="M63.5024 106.636C62.9107 107.159 62.0025 107.234 61.28 106.918C60.5575 106.601 60.0277 105.92 59.7869 105.17C59.5461 104.42 59.5736 103.601 59.7525 102.831C59.8007 102.631 59.9314 102.143 60.2135 102.143C60.4681 102.143 60.5163 102.521 60.5782 102.707C60.7571 103.243 60.9635 103.76 61.2456 104.255C61.5208 104.73 61.858 105.177 62.2364 105.576C62.3396 105.686 63.3992 106.725 63.5024 106.636Z" fill="#E6E6E6"/>
<path d="M59.0232 102.211C58.6172 102.707 58.4865 103.416 58.7067 104.021C58.8512 104.42 59.1196 104.751 59.4017 105.067C59.5944 105.287 59.8628 105.514 60.145 105.439C60.4478 105.356 60.5372 104.971 60.5716 104.661C60.6198 104.179 60.6611 103.691 60.6817 103.209C60.7024 102.81 60.8331 102.177 60.7161 101.791C60.606 101.434 60.262 101.516 59.8903 101.64C59.5531 101.75 59.2503 101.943 59.0232 102.218V102.211Z" fill="#E6E6E6"/>
<g opacity="0.2">
<path d="M63.4268 105.769C63.9154 105.9 64.4659 105.714 64.7825 105.315C65.0164 105.026 65.2711 104.179 64.8719 103.945C64.4521 104.633 64.0805 105.26 63.4268 105.769Z" fill="#FAFAFA"/>
</g>
<g opacity="0.2">
<path d="M60.1931 104.737C59.7802 104.468 59.5118 103.98 59.5187 103.484C59.5187 103.209 60.0073 101.97 60.2206 102.617C60.2894 102.831 60.0967 103.381 60.0899 103.629C60.083 104.001 60.1174 104.372 60.1931 104.737Z" fill="#FAFAFA"/>
</g>
<g opacity="0.2">
<path d="M61.6861 106.058C61.2457 106.25 60.6745 106.092 60.3992 105.7C60.3717 105.961 61.0874 106.409 61.3007 106.553C61.8719 106.932 62.2848 106.753 62.973 106.691C62.973 106.691 61.9614 106.539 61.6861 106.064V106.058Z" fill="#FAFAFA"/>
</g>
<path d="M56.2363 126.287L56.484 125.475L56.8143 124.381L57.1996 123.101L60.289 112.938L60.6743 110.021L61.0183 107.434L61.0872 106.897L61.2798 106.918V106.924L61.4793 106.945L61.4725 106.993L61.4037 107.502L61.039 110.268L60.7362 112.518L60.6743 113.014L60.6468 113.096L57.1996 124.449L56.8074 125.722L56.6285 126.314L56.3877 127.119L56.2363 126.287Z" fill="#E0E0E0"/>
<path d="M60.3643 112.814L60.5913 113.131C61.011 112.835 61.4307 112.408 61.9262 111.92C62.683 111.163 63.5431 110.303 64.6509 109.649L64.4513 109.312C63.3023 109.993 62.4216 110.874 61.6509 111.645C61.1693 112.126 60.7564 112.539 60.3711 112.814H60.3643Z" fill="#E0E0E0"/>
<path d="M60.9221 110.2C60.461 109.911 60.1032 109.45 59.9449 108.927C59.766 108.335 59.8348 107.695 59.9036 107.083C60.4954 107.482 61.3006 107.378 61.9543 107.667C62.4774 107.895 62.8765 108.383 63.0072 108.934C63.1724 109.656 63.1036 110.393 62.7045 110.572C62.3741 110.723 61.5346 110.585 60.9152 110.2H60.9221Z" fill="#E6E6E6"/>
<path d="M63.8468 109.67C64.3354 110.241 65.0855 110.578 65.8287 110.565C66.5788 110.551 67.095 109.587 67.5629 109.002C66.9848 108.686 65.3883 108.294 65.0236 108.218C64.6588 108.142 64.2459 108.19 63.9638 108.438C63.6816 108.679 63.5784 109.147 63.7986 109.443C63.8193 109.436 63.8468 109.67 63.8468 109.67Z" fill="#E6E6E6"/>
<path d="M66.6197 111.734C66.3582 111.101 65.4429 110.42 64.7685 110.344C64.0872 110.262 63.4059 110.537 63.0137 110.991C63.055 111.452 63.4403 111.824 63.8739 111.989C64.3074 112.154 64.7823 112.161 65.2433 112.161C65.7044 112.161 66.1793 112.161 66.6128 112.333L66.6266 111.734H66.6197Z" fill="#E6E6E6"/>
<path d="M50.8626 102.218C50.8626 102.218 50.0713 102.776 49.8236 103.643C49.5759 104.516 51.069 105.776 51.069 105.776C51.069 105.776 52.225 106.305 53.1607 105.652L54.0965 105.005C54.0965 105.005 51.7984 102.301 50.9521 102.425L50.8626 102.218Z" fill="#E6E6E6"/>
<path d="M55.2253 101.4C55.6106 102.81 55.0533 104.785 53.7942 105.129C52.535 105.473 51.0488 104.062 50.6635 102.652C50.2782 101.241 51.2827 100.911 52.5488 100.567C53.8148 100.223 54.8469 99.9891 55.2322 101.407L55.2253 101.4Z" fill="#E6E6E6"/>
<path d="M51.3926 101.661C51.3926 101.661 52.5143 102.26 54.4481 101.441C54.4481 101.441 51.6541 104.145 51.3926 101.661Z" fill="#E6E6E6"/>
<path d="M52.2051 101.221C52.2051 101.221 53.2993 100.815 53.4025 101.29C53.4025 101.29 54.3522 101.063 54.1457 100.684C53.9393 100.306 52.2051 101.221 52.2051 101.221Z" fill="#E6E6E6"/>
<g opacity="0.2">
<path d="M51.3926 101.661C51.3926 101.661 52.5143 102.26 54.4481 101.441C54.4481 101.441 51.6541 104.145 51.3926 101.661Z" fill="#FAFAFA"/>
</g>
<g opacity="0.2">
<path d="M52.2051 101.221C52.2051 101.221 53.2993 100.815 53.4025 101.29C53.4025 101.29 54.3522 101.063 54.1457 100.684C53.9393 100.306 52.2051 101.221 52.2051 101.221Z" fill="#FAFAFA"/>
</g>
<path d="M51.7227 105.975C52.2525 106.56 53.147 106.753 53.897 106.519C54.6538 106.285 55.2593 105.679 55.5827 104.964C55.913 104.248 55.9818 103.429 55.8855 102.645C55.8648 102.445 55.7823 101.936 55.507 101.909C55.2524 101.881 55.163 102.246 55.0804 102.425C54.8396 102.941 54.5781 103.429 54.2341 103.883C53.9039 104.324 53.5185 104.723 53.0988 105.081C52.9818 105.177 51.8121 106.085 51.7158 105.982L51.7227 105.975Z" fill="#E6E6E6"/>
<path d="M56.6973 102.102C57.0483 102.638 57.0896 103.361 56.8005 103.932C56.6147 104.311 56.3051 104.606 55.9885 104.889C55.7683 105.081 55.4792 105.281 55.204 105.171C54.9149 105.047 54.8668 104.661 54.8737 104.345C54.8737 103.856 54.9012 103.375 54.9356 102.886C54.9631 102.487 54.9012 101.84 55.0663 101.475C55.2177 101.131 55.5481 101.262 55.9059 101.42C56.2225 101.565 56.5046 101.799 56.6973 102.095V102.102Z" fill="#E6E6E6"/>
<g opacity="0.2">
<path d="M51.9092 105.116C51.4137 105.185 50.8838 104.937 50.6154 104.51C50.4227 104.194 50.2644 103.326 50.6842 103.134C51.0214 103.87 51.3173 104.538 51.9023 105.116H51.9092Z" fill="#FAFAFA"/>
</g>
<g opacity="0.2">
<path d="M55.2383 104.476C55.6787 104.256 56.0022 103.801 56.0572 103.313C56.0916 103.045 55.7475 101.751 55.4585 102.37C55.3622 102.577 55.4929 103.148 55.4723 103.389C55.4379 103.76 55.3553 104.125 55.2383 104.476Z" fill="#FAFAFA"/>
</g>
<g opacity="0.2">
<path d="M53.6017 105.611C54.0215 105.852 54.5996 105.762 54.923 105.404C54.923 105.666 54.1592 106.024 53.9252 106.141C53.3127 106.45 52.9273 106.223 52.2529 106.079C52.2529 106.079 53.2714 106.051 53.6017 105.611Z" fill="#FAFAFA"/>
</g>
<path d="M57.2889 132.176L53.7867 112.635L53.7041 106.519L54.0963 106.512L54.1789 112.608L57.7361 132.479L57.2889 132.176Z" fill="#E0E0E0"/>
<path d="M54.1177 112.478L53.8562 112.767C53.4777 112.423 53.1061 111.955 52.6725 111.404C52.005 110.565 51.2549 109.608 50.2295 108.824L50.4704 108.514C51.5301 109.326 52.3009 110.303 52.9822 111.164C53.402 111.694 53.7598 112.155 54.1177 112.478Z" fill="#E0E0E0"/>
<path d="M53.8693 109.815C54.3648 109.581 54.7708 109.168 54.991 108.666C55.2388 108.095 55.2457 107.455 55.2457 106.835C54.6057 107.159 53.8211 106.966 53.1398 107.173C52.5962 107.338 52.1351 107.771 51.9424 108.308C51.6947 109.003 51.674 109.746 52.0457 109.974C52.3553 110.159 53.2018 110.125 53.8693 109.815Z" fill="#E6E6E6"/>
<path d="M51.0279 108.941C50.4774 109.45 49.6929 109.698 48.9497 109.595C48.2064 109.492 47.8073 108.48 47.415 107.84C48.0275 107.592 49.6585 107.393 50.0301 107.358C50.4017 107.324 50.8008 107.427 51.0555 107.703C51.3101 107.978 51.3583 108.446 51.0968 108.721C51.0761 108.714 51.0211 108.941 51.0211 108.941H51.0279Z" fill="#E6E6E6"/>
<path d="M48.0345 110.668C48.3649 110.069 49.3558 109.505 50.0371 109.505C50.7184 109.505 51.3653 109.856 51.7025 110.358C51.6062 110.812 51.1795 111.136 50.7322 111.246C50.2849 111.356 49.81 111.308 49.3558 111.253C48.8948 111.198 48.4268 111.15 47.9795 111.26L48.0345 110.668Z" fill="#E6E6E6"/>
<path d="M58.7264 120.19H54.6118C54.3022 120.19 54.027 120.383 53.9375 120.679C53.6004 121.745 52.8779 124.553 52.8779 128.977C52.8779 133.835 54.144 140.282 54.543 142.188C54.6118 142.511 54.8939 142.738 55.2173 142.738H58.0797C58.4099 142.738 58.6852 142.504 58.754 142.188C59.153 140.282 60.4191 133.835 60.4191 128.977C60.4191 124.553 59.6966 121.752 59.3595 120.679C59.27 120.397 59.0154 120.204 58.7196 120.19H58.7264Z" fill="#F0F0F0"/>
<path d="M172.015 256C245.695 256 305.423 252.513 305.423 248.211C305.423 243.91 245.695 240.422 172.015 240.422C98.3362 240.422 38.6074 243.91 38.6074 248.211C38.6074 252.513 98.3362 256 172.015 256Z" fill="#F5F5F5"/>
<path d="M83.1035 221.432C82.8695 221.418 82.6837 221.218 82.6906 220.984C83.1998 200.762 84.2456 167.591 84.3007 167.405C84.3695 167.171 84.6172 167.047 84.8442 167.109C85.0782 167.178 85.2089 167.426 85.1401 167.653C85.1263 167.694 84.0736 200.982 83.5713 220.998C83.5713 221.239 83.3649 221.432 83.1241 221.425C83.1241 221.425 83.1103 221.425 83.1035 221.425V221.432Z" fill="#001640"/>
<path d="M80.3854 153.905C80.5575 155.46 82.4221 160.862 83.9771 160.696C85.5321 160.524 86.1927 154.855 86.0275 153.293C85.8555 151.738 84.4588 150.609 82.9038 150.781C81.3487 150.954 80.2203 152.35 80.3923 153.905H80.3854Z" fill="#00A843"/>
<path d="M87.9471 170.935C87.7751 169.38 85.9104 163.978 84.3554 164.151C82.8004 164.323 82.1398 169.992 82.305 171.554C82.477 173.109 83.8738 174.237 85.4288 174.065C86.9838 173.893 88.1122 172.497 87.9402 170.942L87.9471 170.935Z" fill="#00A843"/>
<path d="M75.6519 166.201C77.2069 166.029 82.6082 164.164 82.4362 162.609C82.2642 161.054 76.5946 160.394 75.0327 160.559C73.4776 160.731 72.3492 162.128 72.5212 163.683C72.6932 165.238 74.09 166.366 75.645 166.194L75.6519 166.201Z" fill="#00A843"/>
<path d="M92.6816 158.639C91.1266 158.811 85.7253 160.676 85.8904 162.231C86.0624 163.786 91.7321 164.447 93.294 164.281C94.849 164.109 95.9774 162.713 95.8054 161.158C95.6334 159.603 94.2366 158.474 92.6816 158.646V158.639Z" fill="#00A843"/>
<path d="M75.4735 159.073C76.6982 160.057 81.8312 162.554 82.8151 161.329C83.799 160.105 80.2486 155.625 79.0308 154.648C77.8129 153.664 76.0239 153.864 75.04 155.082C74.0561 156.3 74.2556 158.089 75.4735 159.073Z" fill="#00A843"/>
<path d="M92.8604 165.767C91.6426 164.783 86.5028 162.286 85.5188 163.511C84.5349 164.728 88.0853 169.208 89.3032 170.192C90.521 171.176 92.31 170.976 93.2939 169.758C94.2778 168.54 94.0783 166.751 92.8604 165.767Z" fill="#00A843"/>
<path d="M80.8197 171.114C81.8036 169.896 84.3013 164.756 83.0765 163.772C81.8587 162.788 77.3794 166.339 76.3955 167.557C75.4115 168.774 75.6111 170.563 76.8289 171.547C78.0468 172.531 79.8358 172.332 80.8197 171.114Z" fill="#00A843"/>
<path d="M87.5145 153.726C86.5306 154.944 84.0329 160.084 85.2576 161.068C86.4755 162.052 90.9548 158.502 91.9387 157.284C92.9226 156.066 92.7231 154.277 91.5052 153.293C90.2874 152.309 88.4984 152.509 87.5145 153.726Z" fill="#00A843"/>
<g opacity="0.6">
<path d="M80.3854 153.905C80.5575 155.46 82.4221 160.862 83.9771 160.696C85.5321 160.524 86.1927 154.855 86.0275 153.293C85.8555 151.738 84.4588 150.609 82.9038 150.781C81.3487 150.954 80.2203 152.35 80.3923 153.905H80.3854Z" fill="white"/>
<path d="M87.9471 170.935C87.7751 169.38 85.9104 163.978 84.3554 164.151C82.8004 164.323 82.1398 169.992 82.305 171.554C82.477 173.109 83.8738 174.237 85.4288 174.065C86.9838 173.893 88.1122 172.497 87.9402 170.942L87.9471 170.935Z" fill="white"/>
<path d="M75.6519 166.201C77.2069 166.029 82.6082 164.164 82.4362 162.609C82.2642 161.054 76.5946 160.394 75.0327 160.559C73.4776 160.731 72.3492 162.128 72.5212 163.683C72.6932 165.238 74.09 166.366 75.645 166.194L75.6519 166.201Z" fill="white"/>
<path d="M92.6816 158.639C91.1266 158.811 85.7253 160.676 85.8904 162.231C86.0624 163.786 91.7321 164.447 93.294 164.281C94.849 164.109 95.9774 162.713 95.8054 161.158C95.6334 159.603 94.2366 158.474 92.6816 158.646V158.639Z" fill="white"/>
<path d="M75.4735 159.073C76.6982 160.057 81.8312 162.554 82.8151 161.329C83.799 160.105 80.2486 155.625 79.0308 154.648C77.8129 153.664 76.0239 153.864 75.04 155.082C74.0561 156.3 74.2556 158.089 75.4735 159.073Z" fill="white"/>
<path d="M92.8604 165.767C91.6426 164.783 86.5028 162.286 85.5188 163.511C84.5349 164.728 88.0853 169.208 89.3032 170.192C90.521 171.176 92.31 170.976 93.2939 169.758C94.2778 168.54 94.0783 166.751 92.8604 165.767Z" fill="white"/>
<path d="M80.8197 171.114C81.8036 169.896 84.3013 164.756 83.0765 163.772C81.8587 162.788 77.3794 166.339 76.3955 167.557C75.4115 168.774 75.6111 170.563 76.8289 171.547C78.0468 172.531 79.8358 172.332 80.8197 171.114Z" fill="white"/>
<path d="M87.5145 153.726C86.5306 154.944 84.0329 160.084 85.2576 161.068C86.4755 162.052 90.9548 158.502 91.9387 157.284C92.9226 156.066 92.7231 154.277 91.5052 153.293C90.2874 152.309 88.4984 152.509 87.5145 153.726Z" fill="white"/>
</g>
<path d="M80.8264 162.781C81.0259 164.625 82.6842 165.96 84.5282 165.76C86.3722 165.561 87.707 163.903 87.5075 162.059C87.3079 160.215 85.6497 158.88 83.8057 159.079C81.9617 159.279 80.6269 160.937 80.8264 162.781Z" fill="#00A843"/>
<path d="M81.1565 206.618C77.2827 206.7 70.6498 203.122 68.0352 199.627C65.3862 196.083 72.8172 198.264 72.0466 195.478C71.276 192.691 62.1316 194.776 60.4321 190.785C58.7326 186.794 65.338 187.689 65.0697 185.652C64.8013 183.609 57.962 184.042 55.7533 179.804C53.5446 175.558 59.5652 177.925 58.6157 176.164C57.6661 174.403 50.1043 167.013 53.2557 165.458C56.407 163.903 63.494 171.602 65.8678 172.455C68.2416 173.308 68.7783 167.976 71.8677 170.515C74.9571 173.054 72.6796 184.214 76.3126 185.673C79.0167 186.76 77.8538 181.662 80.9708 182.941C86.4202 185.178 82.7322 206.583 81.1565 206.618Z" fill="#00A843"/>
<g opacity="0.2">
<path d="M81.1565 206.618C77.2827 206.7 70.6498 203.122 68.0352 199.627C65.3862 196.083 72.8172 198.264 72.0466 195.478C71.276 192.691 62.1316 194.776 60.4321 190.785C58.7326 186.794 65.338 187.689 65.0697 185.652C64.8013 183.609 57.962 184.042 55.7533 179.804C53.5446 175.558 59.5652 177.925 58.6157 176.164C57.6661 174.403 50.1043 167.013 53.2557 165.458C56.407 163.903 63.494 171.602 65.8678 172.455C68.2416 173.308 68.7783 167.976 71.8677 170.515C74.9571 173.054 72.6796 184.214 76.3126 185.673C79.0167 186.76 77.8538 181.662 80.9708 182.941C86.4202 185.178 82.7322 206.583 81.1565 206.618Z" fill="white"/>
</g>
<path d="M86.7296 201.698C86.7915 201.808 86.2135 202.359 88.1263 202.434C92.8396 202.627 101.172 202.31 104.303 198.024C108.768 191.907 98.4679 192.464 99.4656 189.093C100.47 185.721 111.541 188.474 113.702 183.657C115.862 178.841 107.812 179.783 108.183 177.299C108.555 174.822 117.004 178.036 119.791 172.923C122.578 167.811 115.195 170.55 116.392 168.43C117.589 166.311 126.961 157.497 123.162 155.536C119.364 153.575 110.564 162.774 107.66 163.758C104.757 164.742 104.082 155.722 100.271 158.736C96.4519 161.756 98.9564 175.38 94.5047 177.065C91.1882 178.325 92.9978 173.446 88.9038 173.632C83.3443 173.887 81.5209 192.987 86.7227 201.691L86.7296 201.698Z" fill="#00A843"/>
<g opacity="0.3">
<path d="M86.7296 201.698C86.7915 201.808 86.2135 202.359 88.1263 202.434C92.8396 202.627 101.172 202.31 104.303 198.024C108.768 191.907 98.4679 192.464 99.4656 189.093C100.47 185.721 111.541 188.474 113.702 183.657C115.862 178.841 107.812 179.783 108.183 177.299C108.555 174.822 117.004 178.036 119.791 172.923C122.578 167.811 115.195 170.55 116.392 168.43C117.589 166.311 126.961 157.497 123.162 155.536C119.364 153.575 110.564 162.774 107.66 163.758C104.757 164.742 104.082 155.722 100.271 158.736C96.4519 161.756 98.9564 175.38 94.5047 177.065C91.1882 178.325 92.9978 173.446 88.9038 173.632C83.3443 173.887 81.5209 192.987 86.7227 201.691L86.7296 201.698Z" fill="white"/>
</g>
<path d="M83.1995 218.377C83.1995 218.377 83.1857 218.377 83.172 218.377C83.0068 218.356 82.883 218.205 82.9036 218.033C86.7705 186.368 105.011 173.501 105.197 173.377C105.334 173.281 105.527 173.316 105.623 173.453C105.72 173.591 105.685 173.783 105.548 173.88C105.369 174.004 87.3485 186.733 83.516 218.108C83.4953 218.267 83.3577 218.384 83.1995 218.377Z" fill="#001640"/>
<path d="M101.041 177.774C100.917 177.774 100.8 177.685 100.758 177.561C100.703 177.403 100.793 177.224 100.958 177.175C101.068 177.141 103.786 176.281 108.238 177.224C108.403 177.258 108.506 177.423 108.472 177.588C108.437 177.753 108.272 177.864 108.107 177.822C103.827 176.914 101.171 177.747 101.144 177.753C101.109 177.767 101.075 177.767 101.034 177.767L101.041 177.774Z" fill="#001640"/>
<path d="M97.676 181.62C97.5109 181.62 97.387 181.483 97.3801 181.318C97.2838 171.74 102.83 164.261 102.885 164.185C102.988 164.047 103.18 164.02 103.311 164.123C103.449 164.226 103.476 164.419 103.373 164.55C103.318 164.625 97.8962 171.946 97.9925 181.304C97.9925 181.476 97.8549 181.613 97.6898 181.613H97.676V181.62Z" fill="#001640"/>
<path d="M92.2402 189.726C92.1646 189.726 92.0889 189.692 92.027 189.63C91.91 189.506 91.9169 189.313 92.0407 189.196C92.082 189.155 96.1828 185.364 101.557 187.29C101.715 187.345 101.797 187.524 101.742 187.682C101.687 187.841 101.508 187.923 101.35 187.868C96.3273 186.065 92.4948 189.609 92.4604 189.643C92.3985 189.698 92.3159 189.733 92.2402 189.726Z" fill="#001640"/>
<path d="M89.3991 195.375C89.2821 195.375 89.1789 195.299 89.1308 195.189C89.0413 194.989 87.0322 190.173 88.14 183.313C88.1675 183.148 88.3188 183.031 88.4909 183.058C88.656 183.086 88.773 183.244 88.7454 183.409C87.6652 190.083 89.6743 194.9 89.695 194.948C89.7638 195.106 89.695 195.285 89.5298 195.347C89.4885 195.368 89.4404 195.375 89.3991 195.375Z" fill="#001640"/>
<path d="M83.3164 229.688C83.1581 229.688 83.0274 229.551 83.0205 229.393L82.6214 221.005C81.4449 193.125 62.3236 174.155 62.131 173.969C62.0071 173.852 62.0071 173.66 62.131 173.536C62.2479 173.412 62.4406 173.412 62.5645 173.536C62.7571 173.728 82.0572 192.85 83.2407 220.991L83.6398 229.379C83.6398 229.551 83.509 229.688 83.3439 229.695C83.337 229.695 83.3301 229.695 83.3233 229.695L83.3164 229.688Z" fill="#001640"/>
<path d="M70.0235 184.441C70.0235 184.441 69.9891 184.441 69.9753 184.441C69.9478 184.441 69.9134 184.421 69.8859 184.407L69.7895 184.366C67.285 183.327 64.4915 182.783 61.9112 182.845C61.7392 182.852 61.6016 182.714 61.5947 182.542C61.5947 182.37 61.7255 182.233 61.8975 182.226C64.5534 182.171 67.4432 182.721 70.0235 183.795L70.1267 183.836C70.1267 183.836 70.1611 183.85 70.1817 183.864C70.2987 183.925 70.3744 184.063 70.34 184.201C70.3125 184.352 70.1748 184.448 70.0304 184.441H70.0235Z" fill="#001640"/>
<path d="M72.7274 188.033C72.7274 188.033 72.7205 188.033 72.7136 188.033C72.5485 188.019 72.4177 187.868 72.4384 187.703C73.1815 179.474 68.9155 172.703 68.8742 172.634C68.7848 172.49 68.8261 172.304 68.9705 172.208C69.115 172.118 69.3008 172.16 69.3971 172.304C69.4384 172.373 73.8145 179.315 73.0576 187.758C73.0439 187.923 72.8994 188.04 72.7411 188.04L72.7274 188.033Z" fill="#001640"/>
<path d="M75.5212 192.801C75.4456 192.801 75.3699 192.767 75.3148 192.712C75.2804 192.678 72.1773 189.616 67.6292 190.827C67.464 190.875 67.2989 190.772 67.2507 190.607C67.2095 190.441 67.3058 190.276 67.4709 190.228C72.3699 188.921 75.6107 192.141 75.7483 192.279C75.8653 192.402 75.8653 192.595 75.7483 192.712C75.6864 192.774 75.6038 192.801 75.5212 192.801Z" fill="#001640"/>
<path d="M79.0647 200.659C79.0235 200.659 78.9753 200.645 78.934 200.625C78.7826 200.549 78.7276 200.363 78.8033 200.212C78.8239 200.171 80.9294 196.056 80.4477 190.118C80.434 189.946 80.5578 189.802 80.7299 189.788C80.9019 189.767 81.0464 189.898 81.0601 190.07C81.5555 196.194 79.4363 200.322 79.3468 200.494C79.2918 200.604 79.1748 200.666 79.0647 200.659Z" fill="#001640"/>
<path d="M100.567 231.009C100.567 240.787 96.1702 248.72 82.8494 248.72C69.5285 248.72 65.1318 240.787 65.1318 231.009C65.1318 227.321 66.2671 223.888 68.1937 221.053H97.512C99.4385 223.888 100.574 227.321 100.574 231.009H100.567Z" fill="#00A843"/>
<path opacity="0.7" d="M100.567 231.009C100.567 240.787 96.1702 248.72 82.8494 248.72C69.5285 248.72 65.1318 240.787 65.1318 231.009C65.1318 227.321 66.2671 223.888 68.1937 221.053H97.512C99.4385 223.888 100.574 227.321 100.574 231.009H100.567Z" fill="white"/>
<path d="M202.359 240.072L209.212 239.074L207.485 223.035L200.625 224.04L202.359 240.072Z" fill="#E8BFBF"/>
<path d="M214.484 239.315C215.082 239.274 215.64 239.026 216.08 238.62C216.266 238.386 216.328 238.069 216.238 237.78C216.197 237.601 216.066 237.45 215.894 237.395C214.979 237.065 212.474 238.916 212.192 239.122C212.137 239.163 212.116 239.239 212.13 239.308C212.151 239.37 212.213 239.418 212.282 239.418C213.018 239.452 213.754 239.418 214.484 239.315ZM215.447 237.705C215.55 237.677 215.66 237.684 215.757 237.711C215.826 237.732 215.881 237.794 215.901 237.87C215.956 238.062 215.922 238.269 215.798 238.42C215.447 238.861 214.325 239.108 212.763 239.108C213.575 238.489 214.491 238.007 215.461 237.691H215.44L215.447 237.705Z" fill="#00A843"/>
<path d="M212.323 239.418L212.378 239.391C213.142 238.889 214.511 237.148 214.25 236.391C214.174 236.218 214.029 236.005 213.568 236.033C213.238 236.033 212.921 236.184 212.701 236.439C211.958 237.292 212.109 239.171 212.109 239.246C212.109 239.301 212.13 239.357 212.178 239.391C212.219 239.425 212.268 239.432 212.323 239.418ZM213.472 236.377L213.561 236.335C213.864 236.322 213.899 236.432 213.906 236.473C214.064 236.927 213.155 238.269 212.398 238.889C212.33 238.097 212.509 237.306 212.921 236.631C213.066 236.48 213.266 236.384 213.479 236.37H213.465L213.472 236.377Z" fill="#00A843"/>
<path d="M208.511 236.232L202.435 237.677C202.16 237.732 201.974 237.987 202.002 238.269L202.201 247.062C202.284 247.682 202.855 248.108 203.467 248.026C203.509 248.026 203.55 248.012 203.591 247.998C206.226 247.344 207.465 246.897 210.816 246.126C212.866 245.652 219.368 245.163 222.031 243.98C224.694 242.796 223.655 240.092 222.444 240.354C218.536 241.193 213.52 239.521 210.671 236.975C210.286 236.783 208.93 236.129 208.518 236.232H208.511Z" fill="#001640"/>
<path opacity="0.2" d="M207.485 223.035L208.373 231.306L201.519 232.31L200.625 224.047L207.485 223.035Z" fill="black"/>
<path d="M211.146 227.9L198.465 230.267C198.465 230.267 192.307 221.473 191.144 215.232C189.933 208.73 191.227 186.602 191.144 186.306C187.559 174.196 177.809 142.821 173.11 131.275C170.502 124.876 168.672 120.569 168.672 120.569L169.986 120.273L180.335 116.035L187.876 117.459C187.876 117.459 210.795 163.807 213.203 181.242C214.999 194.26 211.139 227.9 211.139 227.9H211.146Z" fill="#00A843"/>
<path opacity="0.3" d="M211.146 227.9L198.465 230.267C198.465 230.267 192.307 221.473 191.144 215.232C189.933 208.73 191.227 186.602 191.144 186.306C187.559 174.196 177.809 142.821 173.11 131.275C170.502 124.876 168.672 120.569 168.672 120.569L169.986 120.273L180.335 116.035L187.876 117.459C187.876 117.459 210.795 163.807 213.203 181.242C214.999 194.26 211.139 227.9 211.139 227.9H211.146Z" fill="white"/>
<path opacity="0.2" d="M188.158 175.827C184.573 163.717 177.335 145.353 172.629 133.807L169.512 122.805L168.913 120.686L170.007 122.688L182.289 149.901C187.711 160.318 188.241 176.123 188.158 175.834V175.827Z" fill="black"/>
<path d="M132.5 236.294L138.61 238.867L145.126 224.886L139.023 222.312L132.5 236.294Z" fill="#E8BFBF"/>
<path d="M142.587 241.799C143.069 242.101 143.647 242.232 144.211 242.163C144.487 242.088 144.714 241.881 144.803 241.606C144.872 241.448 144.858 241.255 144.755 241.11C144.232 240.34 141.252 240.346 140.922 240.353C140.853 240.353 140.798 240.402 140.771 240.457C140.75 240.519 140.771 240.587 140.826 240.629C141.376 241.069 141.961 241.461 142.58 241.792L142.587 241.799ZM144.239 241.103C144.335 241.145 144.418 241.207 144.473 241.289C144.514 241.344 144.521 241.427 144.494 241.489C144.432 241.668 144.287 241.805 144.101 241.86C143.578 241.998 142.58 241.558 141.369 240.677C142.346 240.656 143.324 240.801 144.253 241.11H144.232L144.239 241.103Z" fill="#00A843"/>
<path d="M140.86 240.663L140.915 240.677C141.782 240.718 143.833 240.147 144.06 239.418C144.094 239.246 144.108 238.998 143.736 238.757C143.475 238.571 143.152 238.509 142.842 238.578C141.789 238.819 140.839 240.347 140.798 240.409C140.764 240.45 140.75 240.512 140.77 240.56C140.784 240.608 140.819 240.643 140.867 240.663H140.86ZM143.468 238.963L143.564 238.984C143.805 239.142 143.771 239.252 143.757 239.287C143.626 239.727 142.167 240.25 141.232 240.305C141.624 239.659 142.216 239.149 142.911 238.86C143.11 238.826 143.317 238.86 143.489 238.977H143.475L143.468 238.963Z" fill="#00A843"/>
<path d="M139.718 236.046L134.206 233.727C133.966 233.617 133.677 233.707 133.539 233.941L128.723 240.842C128.44 241.365 128.633 242.019 129.156 242.301C129.19 242.321 129.232 242.335 129.266 242.356C131.667 243.34 132.878 243.697 135.906 244.991C137.757 245.789 143.055 249.078 145.78 249.67C148.504 250.262 149.227 247.592 148.147 247.096C144.658 245.535 141.727 241.413 140.963 237.835C140.771 237.47 140.096 236.198 139.718 236.046Z" fill="#001640"/>
<path opacity="0.2" d="M145.394 225.051L141.858 232.172L135.816 229.461L139.339 222.333L145.394 225.051Z" fill="black"/>
<path d="M146.667 232.812L134.502 226.331C134.502 226.331 132.17 217.668 134.502 212.143C138.989 201.512 150.672 185.88 150.748 185.584C153.865 173.343 159.328 139.835 161.199 127.505C162.238 120.672 162.844 119.2 162.844 119.2L164.13 119.619L182.742 119.654C182.742 119.654 186.252 147.844 172.793 191.487C169.442 202.345 163.835 211.372 154.601 223.592C151.099 228.23 146.661 232.812 146.661 232.812H146.667Z" fill="#00A843"/>
<path opacity="0.3" d="M146.667 232.812L134.502 226.331C134.502 226.331 132.17 217.668 134.502 212.143C138.989 201.512 150.672 185.88 150.748 185.584C153.865 173.343 159.328 139.835 161.199 127.505C162.238 120.672 162.844 119.2 162.844 119.2L164.13 119.619L182.742 119.654C182.742 119.654 186.252 147.844 172.793 191.487C169.442 202.345 163.835 211.372 154.601 223.592C151.099 228.23 146.661 232.812 146.661 232.812H146.667Z" fill="white"/>
<path d="M199.235 96.6249C199.373 94.5332 200.756 91.8429 201.953 90.5975C202.339 90.1985 203.79 89.593 204.609 89.0563C208.648 86.4072 216.74 83.0977 216.74 83.0977L219.237 85.2719C219.237 85.2719 214.311 90.0333 211.38 92.3177C210.802 92.7649 210.134 93.3085 209.432 93.8865C208.16 94.953 202.16 98.9093 201.011 99.9001L199.235 96.6181V96.6249Z" fill="#E8BFBF"/>
<path d="M223.854 81.8727L219.238 85.2855L216.65 83.3795C216.65 83.3795 217.71 82.0309 218.79 80.992C219.265 80.531 219.526 79.9048 219.533 79.2443C219.54 78.2259 219.699 77.0494 220.249 76.1824C220.263 76.1618 220.27 76.1411 220.283 76.1274C221.281 74.6205 223.627 75.0746 224.095 76.8154L224.763 79.2787C225.024 80.2488 224.666 81.2809 223.854 81.8796V81.8727Z" fill="#E8BFBF"/>
<path d="M200.708 97.5468L199.49 98.6615C199.111 98.3587 198.506 97.8702 197.749 97.2441C191.818 92.3175 176.949 80.3797 182.88 76.9669C187.958 74.0427 193.359 82.9874 196.05 85.6709C196.6 86.2282 198.1 87.9552 199.311 90.1295C200.577 92.407 201.513 95.1661 200.708 97.5468Z" fill="#001640"/>
<path d="M199.304 89.063C197.198 90.6042 195.402 92.5583 194.047 94.7876C195.024 98.0215 197.48 100.829 200.577 102.177C202.276 98.2417 203.06 94.0033 202.73 89.7304C201.657 89.4965 200.377 89.2969 199.304 89.063Z" fill="#001640"/>
<path d="M166.655 76.2719C164.536 76.9531 162.107 76.4095 160.745 78.1709C159.383 79.9324 158.977 82.2649 158.977 84.4942C158.977 87.5905 159.685 90.6455 160.394 93.6592C161.247 97.3197 162.1 100.98 162.96 104.641C163.545 107.145 162.933 118.773 163.552 118.973C163.552 118.973 183.004 118.595 187.882 117.906C187.882 117.906 188.309 105.948 188.694 101.875C188.783 100.973 190.153 97.1339 190.311 96.1706C191.068 91.6294 189.581 88.423 188.006 84.0951C188.006 84.0951 184.559 77.1595 182.88 76.9737C179.887 76.6366 172.566 74.3728 166.655 76.2788V76.2719Z" fill="#001640"/>
<path d="M165.837 82.0102C165.768 81.6042 162.314 74.6342 159.004 79.5057C154.401 86.2899 154.092 94.8081 154.092 94.8081C154.092 94.8081 151.264 103.092 153.232 104.902C155.206 106.712 157.332 107.874 158.708 106.849C160.085 105.824 160.979 103.774 160.979 103.774C160.979 103.774 167.041 89.111 165.837 82.0102Z" fill="#001640"/>
<path d="M165.61 73.6845C164.158 74.8198 164.351 77.4413 165.947 78.3564C165.548 79.76 166.016 81.3839 167.11 82.354C168.204 83.3242 169.869 83.5994 171.218 83.0352C170.633 84.0811 171.293 85.4572 172.298 86.104C173.303 86.7508 174.548 86.8677 175.731 87.026C176.915 87.1842 178.167 87.4388 179.034 88.2714C180.259 86.5099 181.484 84.7416 182.715 82.9802C183.19 82.2921 183.685 81.5559 183.727 80.7233C183.761 79.8908 183.128 78.9688 182.296 79.0307C183.142 78.15 183.162 76.595 182.33 75.6936C181.504 74.7922 179.956 74.6753 179 75.4459C179.172 74.7372 178.759 73.9872 178.16 73.5744C177.562 73.1615 176.819 73.017 176.096 72.9482L165.61 73.6913V73.6845Z" fill="#001640"/>
<path d="M167.819 64.7056C168.775 68.2147 169.938 74.6893 167.612 77.2489C167.612 77.2489 174.183 79.8773 178.848 85.1547C181.023 83.0424 180.796 80.6686 180.128 78.9347C179.612 77.5929 178.504 76.5953 177.176 76.031C174.617 74.9439 174.596 72.4256 175.023 70.0174L167.812 64.7056H167.819Z" fill="#E8BFBF"/>
<path opacity="0.2" d="M169.249 70.6846L171.664 71.3383C172.696 71.6204 173.783 71.6823 174.843 71.524C174.836 72.047 174.74 73.1479 175.07 73.7327C173.68 74.4001 171.334 73.946 170.302 72.7213C169.875 72.2465 169.49 71.2763 169.256 70.6777L169.249 70.6846Z" fill="black"/>
<path d="M163.133 61.7195C165.692 67.1139 166.656 69.4533 170.598 71.1734C176.529 73.7674 182.584 69.4327 181.683 63.3846C180.878 57.942 176.825 50.0293 170.529 50.0018C166.03 49.9605 162.348 53.566 162.3 58.0659C162.287 59.3319 162.569 60.5842 163.126 61.7264L163.133 61.7195Z" fill="#E8BFBF"/>
<path d="M165.94 51.4125C164.075 50.5455 161.763 51.2542 160.208 52.6166C158.633 54.0064 157.669 55.9468 156.747 57.8389C156.245 58.8642 155.743 59.91 155.509 61.0247C155.275 62.1462 155.344 63.371 155.935 64.348C156.513 65.3044 157.594 65.9374 158.708 65.9994C159.348 66.0338 160.098 66.5016 160.311 67.1071C160.504 67.6713 160.415 68.2837 160.325 68.8686C160.236 69.4397 160.153 70.0314 160.332 70.575C160.628 71.4832 161.598 72.0337 162.555 72.13C163.504 72.2194 164.447 71.9442 165.369 71.6759C165.947 71.5038 166.532 71.6002 166.986 72.0061C167.096 72.1093 167.192 72.2263 167.261 72.3639C167.543 72.9075 168.369 72.818 168.609 72.2538C169.442 70.2722 168.231 67.114 166.428 64.6989C165.472 63.4191 165.52 63.7425 165.149 62.1875C164.832 60.8939 165.307 59.5453 165.892 58.3481C166.662 56.7518 167.66 55.1899 167.35 53.284C167.22 52.479 166.697 51.7565 165.96 51.4125H165.94Z" fill="#001640"/>
<path d="M163.291 67.2377C164.137 68.139 165.314 68.6688 166.552 68.7101C168.197 68.7445 168.61 67.1757 167.818 65.8409C167.103 64.6368 165.383 63.1712 163.896 63.7492C162.41 64.334 162.259 66.1092 163.291 67.2377Z" fill="#E8BFBF"/>
<path d="M173.411 60.7564C173.604 61.2312 173.976 61.4789 174.271 61.3551C174.567 61.2312 174.643 60.7839 174.478 60.3228C174.313 59.8617 173.914 59.6071 173.618 59.7241C173.322 59.8411 173.232 60.3022 173.411 60.7564Z" fill="#001640"/>
<path d="M178.448 58.589C178.634 59.0639 179.013 59.3116 179.309 59.1946C179.598 59.0776 179.68 58.6234 179.515 58.1623C179.35 57.7013 178.951 57.4466 178.655 57.5568C178.359 57.6669 178.269 58.1348 178.448 58.589Z" fill="#001640"/>
<path d="M178.524 57.6466L179.481 56.8965C179.481 56.8965 179.275 57.9631 178.524 57.6466Z" fill="#001640"/>
<path d="M177.141 59.6006C178.311 60.7567 179.191 60.9632 180.458 61.7614C180.423 62.8832 179.363 63.1447 179.363 63.1447L177.141 59.6075V59.6006Z" fill="#ED847E"/>
<path d="M178.827 65.346C179.048 65.2634 179.254 65.1671 179.461 65.0501C179.529 65.0157 179.55 64.9331 179.516 64.8643C179.474 64.7954 179.392 64.7748 179.323 64.8023C178.256 65.4217 176.956 65.4905 175.827 64.9881C175.758 64.9537 175.669 64.9744 175.634 65.0501C175.6 65.1189 175.621 65.2083 175.696 65.2428C176.687 65.6969 177.816 65.7382 178.834 65.3529L178.827 65.346Z" fill="#001640"/>
<path d="M173.226 57.0131C173.219 57.1438 173.13 57.2539 173.006 57.2883C171.685 57.6806 171.1 59.3528 171.1 59.3666C171.045 59.5249 170.88 59.6075 170.721 59.5524C170.563 59.4974 170.481 59.3322 170.536 59.1739C170.584 59.112 171.224 57.192 172.834 56.7103C172.992 56.669 173.158 56.7584 173.206 56.9098C173.219 56.9442 173.226 56.9718 173.233 57.0062L173.226 57.0131Z" fill="#001640"/>
<path d="M179.316 56.2015C179.206 56.2703 179.068 56.2566 178.965 56.174C177.891 55.3138 176.178 55.7886 176.171 55.7886C176.013 55.8368 175.847 55.7473 175.799 55.589C175.751 55.4308 175.84 55.2656 175.999 55.2174C176.081 55.2174 178.022 54.6531 179.336 55.6991C179.46 55.8024 179.481 55.9882 179.385 56.1189C179.371 56.1465 179.343 56.174 179.316 56.1946V56.2015Z" fill="#001640"/>
<path d="M173.501 59.8067L174.458 59.0635C174.458 59.0635 174.237 60.1301 173.501 59.8067Z" fill="#001640"/>
<path d="M166.352 50.5108C164.852 50.6278 163.421 51.4878 162.609 52.7539C162.066 53.6071 161.873 54.9006 162.678 55.5061C163.056 55.7882 163.559 55.8433 164.027 55.8845C166.118 56.0703 168.705 54.4534 168.705 54.4534C167.9 51.0337 175.07 48.3847 178.607 53.6827C179.645 55.2378 179.363 56.3662 181.09 57.0887C181.902 57.4258 182.976 57.3364 183.499 58.0451C184.366 59.2216 182.7 61.217 183.76 62.2285C184.483 62.9234 186.12 62.6551 186.216 63.6528C186.265 64.1206 185.955 64.7949 186.409 64.9326C186.657 65.0082 186.884 64.7812 187.049 64.5748C187.441 64.0794 187.84 63.5633 187.971 62.9509C188.102 62.3386 187.888 61.5955 187.31 61.334C186.87 61.1345 185.707 61.3546 185.79 61.8363C185.886 62.4074 185.391 59.5932 185.611 58.5336C185.804 57.6047 186.684 56.8065 186.416 55.8983C186.127 54.9281 184.978 54.5428 183.98 54.3983C182.983 54.2538 181.847 54.13 181.235 53.3318C180.554 52.4374 180.863 51.1576 180.643 50.0567C180.361 48.653 179.191 47.559 177.877 46.9879C173.886 45.2609 167.721 45.5017 166.345 50.5177L166.352 50.5108Z" fill="#001640"/>
<path d="M177.685 68.8687L163.93 75.7768C159.41 78.0474 157.359 83.3936 159.21 88.1068L165.843 105.026C167.694 109.739 172.827 112.272 177.692 110.868L192.485 106.602C198.031 105.006 200.996 98.9851 198.891 93.6113L191.219 74.0429C189.113 68.6691 182.845 66.2678 177.692 68.8618L177.685 68.8687ZM175.414 97.9323C172.345 99.1365 168.884 97.6227 167.68 94.554C166.476 91.4852 167.99 88.0243 171.059 86.827C174.127 85.6229 177.588 87.1367 178.793 90.2054C179.997 93.2742 178.483 96.7351 175.414 97.9323Z" fill="#00A843"/>
<path d="M177.685 68.8687L163.93 75.7768C159.41 78.0474 157.359 83.3936 159.21 88.1068L165.843 105.026C167.694 109.739 172.827 112.272 177.692 110.868L192.485 106.602C198.031 105.006 200.996 98.9851 198.891 93.6113L191.219 74.0429C189.113 68.6691 182.845 66.2678 177.692 68.8618L177.685 68.8687ZM175.414 97.9323C172.345 99.1365 168.884 97.6227 167.68 94.554C166.476 91.4852 167.99 88.0243 171.059 86.827C174.127 85.6229 177.588 87.1367 178.793 90.2054C179.997 93.2742 178.483 96.7351 175.414 97.9323Z" fill="#00A843"/>
<path opacity="0.1" d="M198.884 93.6247L191.205 74.0563C189.1 68.6825 182.831 66.2812 177.678 68.8683L173.68 70.8774L170.997 72.226L163.924 75.7833C159.396 78.0539 157.353 83.4001 159.197 88.1133L165.829 105.033C167.68 109.746 172.813 112.278 177.678 110.874L192.478 106.608C193.689 106.258 194.776 105.693 195.719 104.971C196.448 104.414 197.088 103.767 197.618 103.044C199.558 100.437 200.171 96.9068 198.884 93.6247ZM175.4 97.932C172.339 99.1361 168.871 97.6224 167.673 94.5536C166.469 91.4917 167.983 88.0239 171.052 86.8267C174.114 85.6226 177.582 87.1363 178.779 90.1982C179.976 93.2669 178.469 96.7279 175.4 97.9251V97.932Z" fill="white"/>
<path d="M177.822 70.1551L164.921 76.6366C160.675 78.7696 158.763 83.7787 160.49 88.196L166.71 104.063C168.444 108.48 173.26 110.861 177.822 109.54L191.7 105.535C196.902 104.035 199.682 98.3931 197.707 93.3565L190.51 75.0059C188.535 69.9693 182.652 67.7125 177.822 70.1482V70.1551ZM167.673 94.5468C166.469 91.4781 167.983 88.0171 171.051 86.8199C174.12 85.6158 177.581 87.1295 178.785 90.1983C179.989 93.267 178.476 96.728 175.407 97.9252C172.338 99.1293 168.877 97.6156 167.673 94.5468Z" fill="#00A843"/>
<path opacity="0.1" d="M177.822 70.1551L164.921 76.6366C160.675 78.7696 158.763 83.7787 160.49 88.196L166.71 104.063C168.444 108.48 173.26 110.861 177.822 109.54L191.7 105.535C196.902 104.035 199.682 98.3931 197.707 93.3565L190.51 75.0059C188.535 69.9693 182.652 67.7125 177.822 70.1482V70.1551ZM167.673 94.5468C166.469 91.4781 167.983 88.0171 171.051 86.8199C174.12 85.6158 177.581 87.1295 178.785 90.1983C179.989 93.267 178.476 96.728 175.407 97.9252C172.338 99.1293 168.877 97.6156 167.673 94.5468Z" fill="#00A843"/>
<path d="M241.936 64.0383L241.544 64.7608L241.324 65.1598L240.705 66.2951L240.966 69.2056C240.98 69.3295 240.966 69.4533 240.925 69.5703C240.842 69.8249 240.65 70.0313 240.395 70.1345L234.959 72.2606C234.705 72.3638 234.423 72.3363 234.189 72.2056C234.113 72.1643 234.044 72.1093 233.982 72.0473L230.907 68.9235H230.9L226.531 70.623L227.164 72.24L222.794 73.9533L223.84 76.6161L220.62 77.8752C220.359 77.9784 220.063 77.9578 219.822 77.8339C219.739 77.7926 219.671 77.7376 219.602 77.6757L217.744 75.928L213.375 77.6413L214.421 80.3041L209.825 82.1068L210.87 84.7765C211.042 85.2099 210.829 85.7053 210.389 85.8774L197.797 90.8039L192.334 76.8706L237.877 59.043L238.592 59.4076L240.904 60.5911C242.163 61.2379 242.638 62.7929 241.964 64.0314L241.936 64.0383Z" fill="#00A843"/>
<g opacity="0.1">
<path d="M241.936 64.0383L241.544 64.7608L241.324 65.1598L240.705 66.2951L240.966 69.2056C240.98 69.3295 240.966 69.4533 240.925 69.5703C240.842 69.8249 240.65 70.0313 240.395 70.1345L234.959 72.2606C234.705 72.3638 234.423 72.3363 234.189 72.2056C234.113 72.1643 234.044 72.1093 233.982 72.0473L230.907 68.9235H230.9L226.531 70.623L227.164 72.24L222.794 73.9533L223.84 76.6161L220.62 77.8752C220.359 77.9784 220.063 77.9578 219.822 77.8339C219.739 77.7926 219.671 77.7376 219.602 77.6757L217.744 75.928L213.375 77.6413L214.421 80.3041L209.825 82.1068L210.87 84.7765C211.042 85.2099 210.829 85.7053 210.389 85.8774L197.797 90.8039L192.334 76.8706L237.877 59.043L238.592 59.4076L240.904 60.5911C242.163 61.2379 242.638 62.7929 241.964 64.0314L241.936 64.0383Z" fill="white"/>
</g>
<path d="M241.757 62.4491L193.07 81.5084L191.652 77.9305L238.076 59.7588L240.388 60.9423C241.268 61.3964 241.771 61.8092 241.764 62.4491H241.757Z" fill="#00A843"/>
<path opacity="0.1" d="M241.757 62.4491L193.07 81.5084L191.652 77.9305L238.076 59.7588L240.388 60.9423C241.268 61.3964 241.771 61.8092 241.764 62.4491H241.757Z" fill="black"/>
<path d="M240.793 65.1391L240.326 66.1987C240.326 66.1987 240.312 66.2331 240.319 66.2537L240.58 69.1367C240.587 69.2399 240.58 69.3431 240.553 69.4463C240.546 69.4807 240.518 69.5082 240.484 69.522L234.573 71.8476C234.573 71.8476 234.505 71.8614 234.477 71.8408C234.422 71.8064 234.367 71.7651 234.319 71.71L230.94 68.311C230.94 68.311 230.865 68.2697 230.823 68.2835L226.021 70.1757C225.966 70.1963 225.938 70.2651 225.959 70.3201L226.53 71.7651C226.551 71.8201 226.53 71.8889 226.468 71.9096L222.374 73.5196C222.319 73.5403 222.291 73.6091 222.312 73.6641L223.296 76.1618C223.317 76.2168 223.296 76.2856 223.234 76.3063L220.234 77.4897C220.234 77.4897 220.165 77.5035 220.138 77.4897C220.076 77.4553 220.014 77.4072 219.959 77.359L217.764 75.3361C217.764 75.3361 217.688 75.3017 217.647 75.3155L212.879 77.1939C212.824 77.2145 212.796 77.2833 212.817 77.3384L213.828 79.898C213.849 79.953 213.828 80.0218 213.766 80.0424L195.457 87.2464C195.402 87.2671 195.333 87.2464 195.313 87.1845L193.482 82.602C193.462 82.547 193.482 82.4782 193.544 82.4575L241.254 63.6804C241.344 63.646 241.44 63.7354 241.399 63.8317L240.8 65.1528L240.793 65.1391Z" fill="#00A843"/>
<path opacity="0.1" d="M240.793 65.1391L240.326 66.1987C240.326 66.1987 240.312 66.2331 240.319 66.2537L240.58 69.1367C240.587 69.2399 240.58 69.3431 240.553 69.4463C240.546 69.4807 240.518 69.5082 240.484 69.522L234.573 71.8476C234.573 71.8476 234.505 71.8614 234.477 71.8408C234.422 71.8064 234.367 71.7651 234.319 71.71L230.94 68.311C230.94 68.311 230.865 68.2697 230.823 68.2835L226.021 70.1757C225.966 70.1963 225.938 70.2651 225.959 70.3201L226.53 71.7651C226.551 71.8201 226.53 71.8889 226.468 71.9096L222.374 73.5196C222.319 73.5403 222.291 73.6091 222.312 73.6641L223.296 76.1618C223.317 76.2168 223.296 76.2856 223.234 76.3063L220.234 77.4897C220.234 77.4897 220.165 77.5035 220.138 77.4897C220.076 77.4553 220.014 77.4072 219.959 77.359L217.764 75.3361C217.764 75.3361 217.688 75.3017 217.647 75.3155L212.879 77.1939C212.824 77.2145 212.796 77.2833 212.817 77.3384L213.828 79.898C213.849 79.953 213.828 80.0218 213.766 80.0424L195.457 87.2464C195.402 87.2671 195.333 87.2464 195.313 87.1845L193.482 82.602C193.462 82.547 193.482 82.4782 193.544 82.4575L241.254 63.6804C241.344 63.646 241.44 63.7354 241.399 63.8317L240.8 65.1528L240.793 65.1391Z" fill="black"/>
<path opacity="0.3" d="M170.687 85.3339C166.841 86.8408 164.942 91.1825 166.449 95.0287C167.956 98.875 172.297 100.774 176.15 99.2672C179.997 97.7603 181.896 93.4186 180.389 89.5724C178.882 85.7261 174.54 83.8271 170.687 85.3339ZM175.407 97.9255C172.338 99.1296 168.878 97.6158 167.673 94.5471C166.469 91.4783 167.983 88.0174 171.052 86.8201C174.121 85.616 177.581 87.1298 178.786 90.1985C179.99 93.2673 178.476 96.7282 175.407 97.9255Z" fill="white"/>
<path opacity="0.1" d="M197.619 103.038C197.083 103.76 196.45 104.414 195.72 104.964L170.998 72.2193L170.978 72.1918C170.978 72.1918 173.159 71.0978 173.647 70.7744C173.647 70.8019 173.661 70.8363 173.682 70.8776C174.762 73.1964 194.193 98.4276 197.619 103.044V103.038Z" fill="white"/>
<path opacity="0.1" d="M194.048 105.996C193.889 106.072 186.692 108.26 186.692 108.26L178.663 97.6293C180.741 95.5926 181.518 92.4413 180.39 89.5652C178.883 85.719 174.541 83.8199 170.688 85.3268C170.351 85.4575 170.034 85.6089 169.725 85.7878L162.624 76.382C162.624 76.382 168.865 73.4096 169.56 72.9761C169.745 74.2972 194.048 105.721 194.048 106.003V105.996Z" fill="white"/>
<path d="M164.578 54.35C163.773 55.3064 163.442 56.6481 163.717 57.866C163.986 59.0838 164.853 60.1572 165.988 60.687C166.573 60.9622 167.22 61.093 167.805 61.3751C168.383 61.6641 168.926 62.1664 168.988 62.8131C169.057 63.5287 168.534 64.1893 168.582 64.9048C168.63 65.5585 169.139 66.0745 169.655 66.4805C170.172 66.8865 170.749 67.2649 171.032 67.8566C171.314 68.4484 171.135 69.3222 170.502 69.4942C170.371 69.7006 170.316 70.1892 170.488 70.3612C170.66 70.5332 170.956 70.5745 171.162 70.4437C172.132 69.8451 172.8 68.7236 172.807 67.5814C172.814 66.4392 172.098 65.3314 171.059 64.8636C170.873 64.4851 171.018 64.0035 171.176 63.6113C171.493 62.8269 171.809 62.0356 172.119 61.2512C172.243 60.9416 172.132 60.3774 171.919 60.1228C171.706 59.8682 171.389 59.7237 171.08 59.593L169.05 58.726C168.286 58.3958 166.009 55.3545 168.706 54.4669C168.355 53.6826 167.743 53.4417 166.903 53.2835C166.064 53.1252 165.135 53.7101 164.584 54.3637L164.578 54.35Z" fill="#001640"/>
<path d="M168.258 51.0752C168.189 51.8735 168.121 52.6787 168.059 53.477C168.733 52.3759 169.979 50.2357 169.93 50.3182C169.401 50.6073 168.788 50.7862 168.258 51.0752Z" fill="#001640"/>
<path d="M169.167 52.3897C170.11 51.5227 171.046 50.6487 171.988 49.7816C171.266 49.5132 170.385 49.7128 169.855 50.2771C169.869 50.2151 169.435 51.5502 169.174 52.3897H169.167Z" fill="#001640"/>
<path d="M163.435 117.487C159.768 122.042 160.986 125.53 155.922 133.594C162.307 138.328 169.312 139.113 178.022 138.438C179.054 136.615 179.571 134.716 180.603 132.892C182.075 134.723 183.265 136.264 184.738 138.094C189.3 137.379 194.722 136.099 198.327 133.773C195.141 130.12 193.16 125.558 191.123 121.526C190.167 119.634 190.566 118.842 188.027 116.365C179.942 116.737 171.926 116.936 163.841 117.308C164.055 117.322 163.222 117.48 163.435 117.487Z" fill="#001640"/>
<path d="M164.439 116.723L163.93 118.849C163.855 119.014 164.054 119.172 164.329 119.158L186.609 118.174C186.822 118.174 186.994 118.05 187.001 117.92L187.118 115.807C187.118 115.663 186.932 115.546 186.698 115.56L164.804 116.523C164.653 116.523 164.515 116.592 164.433 116.716L164.439 116.723Z" fill="#00A843"/>
<path d="M164.439 116.723L163.93 118.849C163.855 119.014 164.054 119.172 164.329 119.158L186.609 118.174C186.822 118.174 186.994 118.05 187.001 117.92L187.118 115.807C187.118 115.663 186.932 115.546 186.698 115.56L164.804 116.523C164.653 116.523 164.515 116.592 164.433 116.716L164.439 116.723Z" fill="#00A843"/>
<path d="M169.353 119.166L168.706 119.193C168.582 119.193 168.479 119.138 168.486 119.062L168.658 116.317C168.658 116.241 168.768 116.172 168.899 116.165L169.545 116.131C169.669 116.131 169.773 116.186 169.766 116.268L169.594 119.007C169.587 119.083 169.477 119.159 169.353 119.166Z" fill="#001640"/>
<path d="M185.44 118.471L184.793 118.498C184.669 118.498 184.566 118.443 184.573 118.368L184.745 115.629C184.745 115.546 184.855 115.477 184.979 115.47L185.625 115.443C185.749 115.443 185.853 115.498 185.846 115.574L185.674 118.313C185.674 118.395 185.57 118.464 185.44 118.471Z" fill="#001640"/>
<path d="M172.229 105.803C172.27 106.003 174.004 108.762 175.359 108.569C175.373 108.569 175.38 108.569 175.394 108.569C175.786 108.514 176.185 108.672 176.426 108.989C176.969 109.698 177.3 110.104 177.664 110.571C178.263 111.328 179.302 111.569 180.169 111.163C180.43 111.046 180.685 110.909 180.939 110.778C181.779 110.331 182.205 109.367 181.978 108.445C181.731 107.434 181.338 106.457 180.822 105.549C180.643 105.239 180.444 104.929 180.134 104.75C179.825 104.572 176.839 103.67 175.683 103.705C174.478 103.746 173.329 105.322 172.229 105.81V105.803Z" fill="#E8BFBF"/>
<path d="M175.717 103.608C175.717 103.608 157.429 98.0694 153.479 101.757C151.16 103.925 152.254 105.975 153.555 107.289C154.518 108.273 156.624 108.033 157.993 107.964L172.401 106.553L175.717 103.608Z" fill="#E8BFBF"/>
<path d="M165.203 101.076C165.107 100.085 164.336 99.2665 163.449 98.8193C162.561 98.3789 161.55 98.2413 160.566 98.1175C158.268 97.8285 155.97 97.5326 153.671 97.2437C152.502 98.7161 151.662 100.746 151.704 102.631C151.738 104.51 152.447 106.374 153.671 107.805C154.772 105.679 156.224 103.491 158.371 102.432C160.518 101.379 162.857 100.65 165.21 101.076H165.203Z" fill="#001640"/>
<path opacity="0.1" d="M160.491 67.6786C160.469 67.6336 160.469 67.6112 160.491 67.6037C160.649 67.5587 160.626 67.5887 160.491 67.6786Z" fill="white"/>
<path d="M205.93 38.0568L211.028 47.5039L231.821 29.8483C232.007 29.69 231.794 29.4079 231.594 29.5455L212.102 42.4123L209.095 36.55L205.93 38.0568Z" fill="#00A843"/>
<path d="M238.736 38.1048C238.736 46.5267 229.895 53.3523 218.996 53.3523C214.813 53.3523 210.932 52.3546 207.739 50.6275L196.146 55.6641L203.46 47.5175C200.824 44.9373 199.249 41.669 199.249 38.1117C199.249 29.6898 208.09 22.8643 218.989 22.8643C229.888 22.8643 238.73 29.6898 238.73 38.1117L238.736 38.1048Z" stroke="#00A843" stroke-width="1.3" stroke-miterlimit="10"/>
</g>
<defs>
<clipPath id="clip0_47_12362">
<rect width="344.03" height="256" fill="white"/>
</clipPath>
</defs>
</svg>
