<svg width="344" height="256" viewBox="0 0 344 256" fill="none" xmlns="http://www.w3.org/2000/svg">
<g clip-path="url(#clip0_47_10829)">
<path d="M343.523 224.973H0V225.145H343.523V224.973Z" fill="#EBEBEB"/>
<path d="M216.88 229.652H199.388V229.824H216.88V229.652Z" fill="#EBEBEB"/>
<path d="M312.908 233.369H271.459V233.54H312.908V233.369Z" fill="#EBEBEB"/>
<path d="M195.663 229.734H152.84V229.906H195.663V229.734Z" fill="#EBEBEB"/>
<path d="M125.069 234.874H116.11V235.045H125.069V234.874Z" fill="#EBEBEB"/>
<path d="M174.571 234.874H133.774V235.045H174.571V234.874Z" fill="#EBEBEB"/>
<path d="M62.4589 231.974H36.042V232.146H62.4589V231.974Z" fill="#EBEBEB"/>
<path d="M162.837 194.331H30.1681C28.004 194.331 26.2451 192.572 26.2451 190.408V3.92303C26.2451 1.75884 28.004 0 30.1681 0H162.837C165.001 0 166.76 1.75884 166.76 3.92303V190.408C166.76 192.572 165.001 194.331 162.837 194.331ZM30.1681 0.171761C28.1001 0.171761 26.4169 1.85502 26.4169 3.92303V190.408C26.4169 192.476 28.1001 194.159 30.1681 194.159H162.837C164.905 194.159 166.588 192.476 166.588 190.408V3.92303C166.588 1.85502 164.905 0.171761 162.837 0.171761H30.1681Z" fill="#EBEBEB"/>
<path d="M311.444 194.331H178.776C176.611 194.331 174.853 192.572 174.853 190.408V3.92303C174.853 1.75884 176.611 0 178.776 0H311.444C313.608 0 315.367 1.75884 315.367 3.92303V190.408C315.367 192.572 313.608 194.331 311.444 194.331ZM178.776 0.171761C176.708 0.171761 175.024 1.85502 175.024 3.92303V190.408C175.024 192.476 176.708 194.159 178.776 194.159H311.444C313.512 194.159 315.195 192.476 315.195 190.408V3.92303C315.195 1.85502 313.512 0.171761 311.444 0.171761H178.776Z" fill="#EBEBEB"/>
<path d="M134.633 165.379H89.0129L86.2441 133.431H131.864L134.633 165.379Z" fill="#E6E6E6"/>
<path d="M136.996 165.379H91.3762L88.6074 133.431H134.227L136.996 165.379Z" fill="#F0F0F0"/>
<path d="M97.6151 158.522L96.0898 140.295H127.989L129.515 158.522H97.6151Z" fill="white"/>
<path d="M144.89 165.379H139.538V224.966H144.89V165.379Z" fill="#E6E6E6"/>
<path d="M146.581 165.379H142.864V224.966H146.581V165.379Z" fill="#F0F0F0"/>
<path d="M94.7709 171.961H146.581V165.386H94.7709V171.961Z" fill="#F0F0F0"/>
<path d="M96.5982 171.961H91.2461V224.973H96.5982V171.961Z" fill="#E6E6E6"/>
<path d="M98.2882 171.961H94.5713V224.973H98.2882V171.961Z" fill="#F0F0F0"/>
<path d="M58.5015 171.961H53.1494V224.973H58.5015V171.961Z" fill="#E6E6E6"/>
<path d="M60.1915 171.961H56.4746V224.973H60.1915V171.961Z" fill="#F0F0F0"/>
<path d="M111.019 171.961H105.667V224.973H111.019V171.961Z" fill="#E6E6E6"/>
<path d="M112.702 171.961H108.985V224.973H112.702V171.961Z" fill="#F0F0F0"/>
<path d="M94.7706 165.379H53.1494V171.954H94.7706V165.379Z" fill="#E6E6E6"/>
<path d="M249.975 16.8052H88.9795V106.437H249.975V16.8052Z" fill="#E0E0E0"/>
<path d="M258.817 16.8052H89.79V106.437H258.817V16.8052Z" fill="#F5F5F5"/>
<path d="M256.055 103.675V19.5669L92.5515 19.5669V103.675L256.055 103.675Z" fill="white"/>
<path d="M158.756 103.675L189.625 19.5669H138.681L107.812 103.675H158.756Z" fill="#F5F5F5"/>
<path d="M207.79 103.675L238.659 19.5669H200.225L169.356 103.675H207.79Z" fill="#F5F5F5"/>
<path d="M301.001 139.367H287.315V224.973H301.001V139.367Z" fill="#E6E6E6"/>
<path d="M297.402 224.973H301.002V218.377H293.63L297.402 224.973Z" fill="#FAFAFA"/>
<path d="M174.819 139.367H161.133V224.973H174.819V139.367Z" fill="#E6E6E6"/>
<path d="M301.001 139.367H171.679V223.194H301.001V139.367Z" fill="#FAFAFA"/>
<path d="M298.556 166.416H174.132V142.741H298.556V166.416ZM174.819 165.729H297.869V143.428H174.819V165.729Z" fill="#E6E6E6"/>
<path d="M276.652 154.235H198.453C194.818 154.235 191.321 151.308 188.862 146.196L188.621 145.702H286.477L286.236 146.196C283.777 151.301 280.28 154.235 276.645 154.235H276.652ZM189.72 146.396C192.043 150.951 195.203 153.548 198.446 153.548H276.645C279.888 153.548 283.049 150.951 285.378 146.396H189.72Z" fill="#E6E6E6"/>
<path d="M175.279 224.973H171.679V218.377H179.051L175.279 224.973Z" fill="#FAFAFA"/>
<path d="M298.556 193.115H174.132V169.439H298.556V193.115ZM174.819 192.428H297.869V170.126H174.819V192.428Z" fill="#E6E6E6"/>
<path d="M276.652 180.934H198.453C194.818 180.934 191.321 178.007 188.862 172.895L188.621 172.4H286.477L286.236 172.895C283.777 178 280.28 180.934 276.645 180.934H276.652ZM189.72 173.094C192.043 177.649 195.203 180.246 198.446 180.246H276.645C279.888 180.246 283.049 177.649 285.378 173.094H189.72Z" fill="#E6E6E6"/>
<path d="M298.556 219.82H174.132V196.145H298.556V219.82ZM174.819 219.133H297.869V196.832H174.819V219.133Z" fill="#E6E6E6"/>
<path d="M276.652 207.639H198.453C194.818 207.639 191.321 204.712 188.862 199.601L188.621 199.106H286.477L286.236 199.601C283.777 204.705 280.28 207.639 276.645 207.639H276.652ZM189.72 199.8C192.043 204.355 195.203 206.952 198.446 206.952H276.645C279.888 206.952 283.049 204.355 285.378 199.8H189.72Z" fill="#E6E6E6"/>
<path d="M83.1187 150.689V152.352H82.0538L81.1812 165.378H68.2373L67.3647 152.352H66.2998V150.689H83.1187Z" fill="#E6E6E6"/>
<path d="M78.8591 118.35C77.7941 110.587 67.3236 108.374 54.0292 108.086C41.3807 107.818 37.3271 103.338 37.3271 103.338C37.3271 103.338 37.3684 121.463 55.5957 128.024C72.9024 134.255 79.924 126.121 78.8591 118.35Z" fill="#E6E6E6"/>
<path d="M72.4013 135.945C72.6212 132.751 77.7191 126.883 89.9828 129.556C98.8457 131.486 102.144 126.89 102.144 126.89C102.144 126.89 101.326 139.862 87.9904 143.764C75.3281 147.467 72.0097 141.565 72.4013 135.952V135.945Z" fill="#E6E6E6"/>
<path d="M75.197 155.581C75.3344 155.581 75.465 155.526 75.5612 155.416C76.4475 154.365 75.7261 151.851 74.7161 148.367C73.4245 143.902 71.8168 138.336 73.1771 134.304C73.9466 132.023 74.8947 130.016 75.8154 128.072C77.7391 124.005 79.4018 120.487 78.0139 116.818C77.9246 116.571 77.6498 116.447 77.4025 116.543C77.1551 116.633 77.0383 116.908 77.1276 117.155C78.3712 120.453 76.8666 123.634 74.9566 127.674C74.0703 129.549 73.0603 131.679 72.2771 134.008C70.8206 138.33 72.4763 144.046 73.8023 148.642C74.5856 151.349 75.3963 154.152 74.8329 154.819C74.6611 155.018 74.6886 155.313 74.8879 155.485C74.9772 155.561 75.0871 155.595 75.1902 155.595L75.197 155.581Z" fill="#E6E6E6"/>
<path d="M171.761 256C245.332 256 304.972 252.518 304.972 248.223C304.972 243.927 245.332 240.445 171.761 240.445C98.1905 240.445 38.5498 243.927 38.5498 248.223C38.5498 252.518 98.1905 256 171.761 256Z" fill="#F5F5F5"/>
<path d="M171.734 210.304H74.1733L68.835 53.4038H166.395L171.734 210.304Z" fill="#00A843"/>
<path d="M176.605 205.433H79.0444L73.6992 48.5327H171.26L176.605 205.433Z" fill="#00A843"/>
<path opacity="0.3" d="M176.605 205.433H79.0444L73.6992 48.5327H171.26L176.605 205.433Z" fill="white"/>
<path d="M143.92 113.096C154.366 102.47 153.921 85.0943 142.927 74.2866C131.933 63.4788 114.552 63.3317 104.106 73.9578C93.6605 84.584 94.1049 101.96 105.099 112.767C116.093 123.575 133.474 123.722 143.92 113.096Z" fill="#00A843"/>
<path d="M146.664 93.5342C146.794 97.4435 145.929 101.119 144.294 104.321C140.714 111.377 133.397 116.179 124.788 116.179C116.18 116.179 108.533 111.377 104.472 104.321C102.617 101.119 101.504 97.4435 101.367 93.5342C100.941 81.0231 110.731 70.8823 123.242 70.8823C135.754 70.8823 146.238 81.0231 146.664 93.5342Z" fill="white"/>
<path opacity="0.6" d="M144.294 104.321C140.714 111.377 133.397 116.179 124.789 116.179C116.18 116.179 108.533 111.377 104.473 104.321C110.045 100.515 116.812 98.2886 124.177 98.2886C131.542 98.2886 138.461 100.515 144.294 104.321Z" fill="#00A843"/>
<path opacity="0.6" d="M131.071 92.9679C134.912 89.0606 134.749 82.6714 130.706 78.6973C126.664 74.7232 120.273 74.6691 116.431 78.5765C112.59 82.4838 112.754 88.873 116.796 92.8471C120.839 96.8212 127.23 96.8753 131.071 92.9679Z" fill="#00A843"/>
<path d="M157.003 148.614H94.7707L94.3516 136.248H156.584L157.003 148.614Z" fill="white"/>
<path d="M157.759 170.717H95.5197L95.1006 158.35H157.34L157.759 170.717Z" fill="white"/>
<path d="M133.741 160.054L118.742 162.094C118.124 162.177 117.719 162.74 117.835 163.338L119.807 173.389C119.924 173.987 120.522 174.413 121.14 174.324L136.138 172.283C136.757 172.201 137.162 171.644 137.045 171.04L135.073 160.988C134.957 160.39 134.359 159.965 133.741 160.054ZM129.433 170.236L126.719 170.607L126.444 167.364C125.867 167.11 125.448 166.595 125.331 165.99C125.139 165.007 125.805 164.094 126.808 163.963C127.811 163.826 128.787 164.513 128.979 165.495C129.096 166.1 128.897 166.698 128.443 167.089L129.426 170.236H129.433Z" fill="#00A843"/>
<path d="M132.256 159.511C131.706 159.587 131.177 159.216 131.074 158.68L130.882 157.697C130.353 154.99 127.763 152.943 124.959 153.19C121.964 153.451 119.958 156.097 120.514 158.955L120.734 160.081C120.837 160.617 120.48 161.105 119.93 161.181C119.381 161.256 118.852 160.885 118.749 160.349L118.563 159.388C117.821 155.616 120.198 151.988 124.039 151.315C128.079 150.614 132.063 153.335 132.833 157.265L133.053 158.391C133.156 158.927 132.799 159.415 132.249 159.491L132.256 159.511Z" fill="#00A843"/>
<path d="M147.488 188.037H106.973L106.698 179.985H147.213L147.488 188.037Z" fill="#00A843"/>
<path d="M127.942 142.431C127.983 143.682 127.008 144.692 125.757 144.692C124.507 144.692 123.462 143.682 123.421 142.431C123.38 141.181 124.356 140.171 125.606 140.171C126.856 140.171 127.901 141.181 127.942 142.431Z" fill="#263238"/>
<path d="M118.199 142.431C118.24 143.682 117.264 144.692 116.014 144.692C114.764 144.692 113.719 143.682 113.678 142.431C113.637 141.181 114.612 140.171 115.863 140.171C117.113 140.171 118.158 141.181 118.199 142.431Z" fill="#263238"/>
<path d="M108.463 142.431C108.505 143.682 107.529 144.692 106.279 144.692C105.028 144.692 103.984 143.682 103.943 142.431C103.901 141.181 104.877 140.171 106.127 140.171C107.378 140.171 108.422 141.181 108.463 142.431Z" fill="#263238"/>
<path d="M137.677 142.431C137.719 143.682 136.743 144.692 135.492 144.692C134.242 144.692 133.198 143.682 133.157 142.431C133.115 141.181 134.091 140.171 135.341 140.171C136.592 140.171 137.636 141.181 137.677 142.431Z" fill="#263238"/>
<path d="M147.413 142.431C147.454 143.682 146.478 144.692 145.228 144.692C143.977 144.692 142.933 143.682 142.892 142.431C142.851 141.181 143.826 140.171 145.077 140.171C146.327 140.171 147.371 141.181 147.413 142.431Z" fill="#263238"/>
<path d="M229.411 81.9849C230.325 83.4483 231.088 84.8567 231.871 86.3201C232.654 87.7698 233.362 89.2538 234.056 90.7584C235.423 93.7677 236.646 96.8731 237.56 100.192C237.683 100.597 237.773 101.03 237.876 101.456L238.027 102.095L238.102 102.411L238.192 102.933C238.391 104.328 238.212 105.468 237.979 106.471C237.484 108.47 236.694 110.071 235.842 111.597C234.104 114.613 232.077 117.182 229.734 119.614L226.842 117.423C228.271 114.716 229.679 111.878 230.717 109.151C231.218 107.797 231.644 106.416 231.768 105.283C231.83 104.726 231.789 104.245 231.713 104.067L231.438 103.228C231.328 102.885 231.225 102.541 231.088 102.191C230.098 99.4152 228.841 96.6327 227.467 93.8914C226.114 91.1569 224.616 88.3744 223.146 85.7705L229.418 81.9849H229.411Z" fill="#FF8B7B"/>
<path d="M227.576 116.434L224.423 118.11L228.05 122.356C228.05 122.356 230.318 120.824 230.414 118.488L227.576 116.44V116.434Z" fill="#FF8B7B"/>
<path d="M220.177 120.728L224.059 123.812L228.043 122.356L224.416 118.11L220.177 120.728Z" fill="#FF8B7B"/>
<path d="M206.904 59.5047C206.828 59.8895 206.56 60.1574 206.313 60.1025C206.066 60.0544 205.921 59.704 206.004 59.3192C206.079 58.9345 206.347 58.6665 206.595 58.7215C206.842 58.7696 206.986 59.12 206.904 59.5047Z" fill="#263238"/>
<path d="M206.595 60.1646C206.595 60.1646 205.275 62.1913 204.107 63.0639C204.657 63.8334 205.859 63.7784 205.859 63.7784L206.595 60.1714V60.1646Z" fill="#FF5652"/>
<path d="M205.357 73.6442L205.385 69.144L211.348 69.8654C211.348 69.8654 211.245 73.7404 207.913 74.874L205.351 73.6442H205.357Z" fill="#FF8B7B"/>
<path d="M207.075 65.8945L211.273 67.1037L211.348 69.8588L205.385 69.1374L207.075 65.8945Z" fill="#FF8B7B"/>
<path opacity="0.2" d="M211.273 67.1037L207.075 65.8945L206.258 67.461C206.361 70.1199 207.982 72.3047 210.133 73.2871C211.301 71.755 211.349 69.8588 211.349 69.8588L211.273 67.1037Z" fill="black"/>
<path d="M208.731 57.6707C208.786 57.6707 208.841 57.65 208.889 57.6088C208.985 57.5264 208.985 57.3752 208.903 57.2859C208.044 56.3584 206.999 56.5233 206.958 56.5302C206.835 56.5508 206.752 56.6676 206.773 56.7912C206.793 56.9149 206.917 56.9974 207.034 56.9767C207.068 56.9767 207.886 56.8531 208.573 57.5951C208.621 57.6432 208.676 57.6707 208.738 57.6707H208.731Z" fill="#263238"/>
<path d="M217.511 66.458C216.817 69.9963 216.398 74.8949 218.872 77.2515C218.872 77.2515 217.903 80.8379 211.335 80.8379C204.114 80.8379 207.858 77.6912 207.858 77.6912C210.861 76.7568 210.833 73.3422 210.146 70.594L217.504 66.458H217.511Z" fill="#FF8B7B"/>
<path d="M220.225 79.6147C220.871 78.701 220.843 75.8222 220.156 75.3207C219.05 74.5031 214.303 74.3107 207.913 75.781C208.6 78.5704 207.13 80.027 207.13 80.027L220.225 79.6147Z" fill="#00A843"/>
<path d="M241.702 242.719C241.214 242.822 240.733 242.85 240.5 242.651C240.403 242.568 240.3 242.41 240.39 242.122C240.438 241.97 240.534 241.854 240.685 241.785C241.338 241.476 242.836 242.087 242.904 242.108C242.945 242.122 242.973 242.163 242.973 242.211C242.973 242.259 242.952 242.3 242.911 242.314C242.684 242.424 242.197 242.609 241.709 242.712L241.702 242.719ZM240.919 241.95C240.871 241.963 240.822 241.977 240.781 241.991C240.692 242.032 240.637 242.101 240.61 242.183C240.548 242.389 240.623 242.451 240.651 242.479C240.912 242.699 241.874 242.499 242.554 242.225C242.094 242.06 241.345 241.854 240.919 241.95Z" fill="#00A843"/>
<path d="M242.877 242.335C242.877 242.335 242.843 242.335 242.822 242.335C242.273 242.177 241.105 241.345 241.091 240.796C241.091 240.699 241.125 240.514 241.386 240.425C241.558 240.363 241.723 240.377 241.895 240.466C242.54 240.796 242.946 242.135 242.966 242.19C242.98 242.232 242.966 242.273 242.939 242.307C242.925 242.321 242.905 242.335 242.884 242.342L242.877 242.335ZM241.51 240.624C241.51 240.624 241.476 240.631 241.462 240.638C241.318 240.686 241.324 240.754 241.324 240.789C241.331 241.112 242.101 241.764 242.671 242.025C242.527 241.641 242.204 240.878 241.792 240.665C241.695 240.617 241.606 240.603 241.517 240.624H241.51Z" fill="#00A843"/>
<path d="M206.017 243.53C205.399 243.53 204.801 243.448 204.595 243.166C204.526 243.07 204.471 242.905 204.602 242.664C204.677 242.534 204.801 242.444 204.966 242.396C205.77 242.177 207.46 243.138 207.528 243.18C207.57 243.2 207.59 243.248 207.583 243.296C207.577 243.345 207.542 243.379 207.494 243.393C207.185 243.454 206.587 243.53 206.01 243.53H206.017ZM205.247 242.596C205.165 242.596 205.089 242.603 205.028 242.623C204.925 242.651 204.849 242.706 204.801 242.781C204.718 242.925 204.753 242.994 204.78 243.035C205.007 243.345 206.23 243.358 207.123 243.228C206.677 243.001 205.811 242.596 205.247 242.596Z" fill="#00A843"/>
<path d="M207.48 243.4C207.48 243.4 207.446 243.4 207.432 243.393C206.848 243.132 205.694 242.087 205.783 241.538C205.804 241.407 205.893 241.249 206.209 241.215C206.443 241.194 206.656 241.256 206.841 241.414C207.453 241.916 207.583 243.221 207.59 243.276C207.59 243.317 207.576 243.358 207.542 243.379C207.521 243.393 207.501 243.4 207.473 243.4H207.48ZM206.299 241.442C206.299 241.442 206.25 241.442 206.23 241.442C206.024 241.462 206.01 241.545 206.01 241.572C205.955 241.902 206.745 242.719 207.336 243.077C207.274 242.699 207.102 241.916 206.697 241.586C206.573 241.483 206.443 241.435 206.299 241.435V241.442Z" fill="#00A843"/>
<path d="M212.791 243.283H207.961L207.48 232.091H212.31L212.791 243.283Z" fill="#FF8B7B"/>
<path d="M248.263 241.049L243.537 242.073L238.796 231.644L243.523 230.627L248.263 241.049Z" fill="#FF8B7B"/>
<path d="M243.084 241.599L248.388 240.452C248.58 240.411 248.779 240.507 248.862 240.685L250.703 244.684C250.895 245.096 250.641 245.584 250.195 245.673C248.333 246.044 247.412 246.127 245.076 246.635C243.64 246.944 240.397 247.735 238.419 248.167C236.481 248.586 235.753 246.69 236.529 246.34C239.999 244.753 241.442 243.358 242.383 242.06C242.555 241.826 242.802 241.661 243.084 241.606V241.599Z" fill="#263238"/>
<path d="M207.996 242.726H213.273C213.472 242.726 213.644 242.863 213.685 243.056L214.64 247.35C214.736 247.796 214.399 248.216 213.946 248.209C212.043 248.174 209.295 248.064 206.897 248.064C204.1 248.064 201.682 248.216 198.405 248.216C196.419 248.216 195.87 246.209 196.701 246.031C200.48 245.206 203.571 245.117 206.835 243.104C207.192 242.884 207.584 242.726 207.996 242.726Z" fill="#263238"/>
<path d="M227.529 78.3437C232.056 79.3812 235.794 90.9441 235.794 90.9441L226.697 97.8764C226.697 97.8764 223.358 94.7298 221.874 88.9449C220.315 82.8851 222.898 77.2788 227.529 78.3437Z" fill="#00A843"/>
<path opacity="0.4" d="M227.529 78.3437C232.056 79.3812 235.794 90.9441 235.794 90.9441L226.697 97.8764C226.697 97.8764 223.358 94.7298 221.874 88.9449C220.315 82.8851 222.898 77.2788 227.529 78.3437Z" fill="black"/>
<path d="M203.709 92.1395C202.575 93.3625 201.448 94.4411 200.287 95.561C199.71 96.1175 199.112 96.6603 198.508 97.1962L197.594 97.9932L197.367 98.1924C197.257 98.2886 197.12 98.3985 196.976 98.5153C196.673 98.7421 196.343 98.9963 195.65 99.2986C195.285 99.4428 194.811 99.6283 193.98 99.6421C193.588 99.6421 193.053 99.5803 192.537 99.3879C192.015 99.1955 191.507 98.8589 191.163 98.5153C190.442 97.7939 190.229 97.1619 190.085 96.7359C189.954 96.2962 189.913 95.987 189.885 95.7122C189.844 95.1763 189.872 94.819 189.899 94.4824C189.933 94.1526 189.975 93.864 190.03 93.5961C190.229 92.538 190.517 91.6792 190.827 90.8273C191.143 89.9822 191.486 89.1646 191.891 88.3471C192.324 87.4745 192.75 86.8356 193.169 86.1073C194.866 83.2698 196.859 80.6796 198.975 78.2337C201.139 75.8085 203.406 73.5893 206.017 71.5557L208.545 74.1596C206.766 76.5367 205.021 79.0857 203.406 81.5934C201.792 84.1217 200.301 86.6981 199.009 89.3227C198.714 89.9685 198.35 90.6761 198.144 91.2189C197.903 91.8098 197.683 92.4487 197.498 93.0739C197.319 93.6923 197.175 94.3381 197.106 94.8122C197.092 94.929 197.086 95.0251 197.086 95.087C197.086 95.1419 197.099 95.1694 197.086 95.0251C197.079 94.9427 197.072 94.8259 196.996 94.5786C196.914 94.3381 196.783 93.8846 196.206 93.3007C195.924 93.0258 195.505 92.7373 195.072 92.5861C194.653 92.4212 194.214 92.3731 193.918 92.3731C193.279 92.3869 192.998 92.5174 192.812 92.5861C192.475 92.7304 192.469 92.7716 192.469 92.7579L192.73 92.5174L193.554 91.7617L195.196 90.2227C196.282 89.199 197.374 88.1066 198.412 87.0898L203.702 92.1602L203.709 92.1395Z" fill="#FF8B7B"/>
<path opacity="0.2" d="M223.647 86.8491C226.106 89.2813 226.91 93.7196 227.103 97.5739L226.704 97.8831C226.704 97.8831 223.365 94.7295 221.874 88.9515C221.785 88.5873 221.702 88.2301 221.641 87.8728L223.654 86.856L223.647 86.8491Z" fill="black"/>
<path d="M198.906 83.1873C197.917 88.4089 197.299 99.1268 200.17 120.363H226.017C226.196 116.392 223.702 97.0382 227.529 78.3437C227.529 78.3437 223.097 77.4574 218.879 77.2513C215.574 77.0932 210.792 76.9902 207.893 77.2513C206.684 77.3612 205.488 77.5398 204.43 77.7253C201.634 78.22 199.435 80.3979 198.913 83.1873H198.906Z" fill="#00A843"/>
<path opacity="0.4" d="M198.906 83.1873C197.917 88.4089 197.299 99.1268 200.17 120.363H226.017C226.196 116.392 223.702 97.0382 227.529 78.3437C227.529 78.3437 223.097 77.4574 218.879 77.2513C215.574 77.0932 210.792 76.9902 207.893 77.2513C206.684 77.3612 205.488 77.5398 204.43 77.7253C201.634 78.22 199.435 80.3979 198.913 83.1873H198.906Z" fill="black"/>
<path opacity="0.2" d="M202.864 90.9031L198.192 89.7832C198.048 92.6138 198.034 96.1178 198.247 100.453C200.397 98.0072 203.139 94.194 202.864 90.9031Z" fill="black"/>
<path opacity="0.2" d="M207.48 232.097L207.728 237.868H212.565L212.317 232.097H207.48Z" fill="black"/>
<path opacity="0.2" d="M243.523 230.627L238.796 231.651L241.242 237.023L245.969 236L243.523 230.627Z" fill="black"/>
<path d="M219.806 61.2844C218.562 65.9151 218.074 68.6908 215.216 70.6145C210.915 73.5138 205.563 70.1886 205.392 65.2762C205.24 60.8585 207.295 54.0224 212.269 53.088C217.167 52.1673 221.049 56.6469 219.806 61.2776V61.2844Z" fill="#FF8B7B"/>
<path d="M208.964 61.4629C208.737 60.8446 207.666 56.0559 208.669 54.8123C209.672 53.5688 221.111 54.4619 222.801 56.1246C225.604 58.8865 223.66 61.353 220.589 64.5271C218.281 66.918 218.191 69.6113 217.023 70.0098C214.983 70.7037 211.815 70.051 211.176 67.873C210.544 65.6951 208.957 61.4629 208.957 61.4629H208.964Z" fill="#263238"/>
<path d="M221.414 50.6832C217.367 48.9588 209.789 50.8687 205.701 49.8794C205.557 52.0024 206.835 55.3964 210.93 56.3101C210.93 56.3101 216.742 57.4438 221.235 57.2583C225.729 57.0728 224.856 52.1398 221.421 50.6832H221.414Z" fill="#263238"/>
<path d="M222.046 56.2756C222.046 56.2756 224.547 56.5573 226.319 55.458C227.075 57.2855 222.925 57.7871 222.046 56.2756Z" fill="#263238"/>
<path d="M211.163 61.6552C211.088 62.9125 210.504 64.0873 209.803 64.8637C208.752 66.0248 207.653 65.3034 207.46 63.8881C207.295 62.617 207.639 60.4803 208.924 59.8414C210.195 59.2093 211.239 60.2261 211.157 61.662L211.163 61.6552Z" fill="#FF8B7B"/>
<path d="M209.336 120.363C209.336 120.363 214.819 157.292 217.828 171.129C221.126 186.278 238.803 236.405 238.803 236.405L247.453 234.53C247.453 234.53 235.093 193.678 232.325 172.496C230.202 156.227 226.011 120.356 226.011 120.356H209.329L209.336 120.363Z" fill="#00A843"/>
<path d="M236.735 233.52C236.701 233.527 238.349 236.646 238.349 236.646L248.085 234.537L247.267 231.61L236.742 233.513L236.735 233.52Z" fill="#263238"/>
<path opacity="0.3" d="M212.805 133.52C219.146 134.764 218.473 158.412 217.711 170.573C215.883 161.978 213.204 145.434 211.376 133.692C211.795 133.479 212.269 133.417 212.805 133.52Z" fill="black"/>
<path d="M200.164 120.363C200.164 120.363 199.497 156.495 200.026 171.232C200.576 186.56 205.928 236.749 205.928 236.749H214.118C214.118 236.749 214.42 187.453 214.784 172.4C215.183 155.987 217.161 120.363 217.161 120.363H200.171H200.164Z" fill="#00A843"/>
<path d="M204.355 233.485C204.32 233.485 204.815 236.886 204.815 236.886H214.77L215.038 233.856L204.348 233.492L204.355 233.485Z" fill="#263238"/>
<path d="M209.034 84.7744C211.349 91.0197 197.739 98.3779 197.739 98.3779L191.844 90.7998C191.844 90.7998 195.774 82.9744 200.604 79.4498C206.567 75.094 207.275 80.027 209.034 84.7813V84.7744Z" fill="#00A843"/>
<path opacity="0.4" d="M209.034 84.7744C211.349 91.0197 197.739 98.3779 197.739 98.3779L191.844 90.7998C191.844 90.7998 195.774 82.9744 200.604 79.4498C206.567 75.094 207.275 80.027 209.034 84.7813V84.7744Z" fill="black"/>
<path d="M262.362 37.3614C276.056 37.3614 287.157 30.2866 287.157 21.5594C287.157 12.8321 276.056 5.75732 262.362 5.75732C248.668 5.75732 237.566 12.8321 237.566 21.5594C237.566 30.2866 248.668 37.3614 262.362 37.3614Z" fill="#00A843"/>
<path d="M253.416 29.5151C252.042 29.5151 250.696 29.1029 249.528 28.3059C247.961 27.241 246.924 25.6196 246.594 23.7508C245.976 20.1713 248.353 16.6124 251.891 15.8017C254.804 15.1421 257.765 16.3857 259.325 18.9072L275.244 15.6231C276.535 15.3551 277.841 16.1246 278.164 17.3407C278.335 17.9865 278.232 18.6529 277.882 19.2163C277.532 19.7797 276.982 20.1644 276.329 20.3019L275.91 20.3912C275.787 20.4187 275.683 20.4942 275.622 20.6042C275.56 20.7141 275.553 20.8446 275.594 20.9614L275.876 21.6897C276.068 22.1844 275.89 22.7409 275.45 23.0088C275.113 23.2218 274.88 23.5859 274.832 23.9775C274.777 24.4654 274.454 24.8364 274.007 24.9325L273.677 25.0012C273.231 25.0906 272.784 24.8776 272.544 24.4516C272.255 23.9569 271.685 23.7027 271.121 23.8195C270.558 23.9363 270.132 24.3966 270.063 24.9669C270.002 25.4547 269.679 25.8257 269.232 25.9219L268.909 25.9906C268.469 26.0799 268.016 25.8669 267.776 25.441C267.576 25.0974 267.219 24.8501 266.821 24.7951C266.312 24.7196 265.927 24.2798 265.907 23.7508L265.872 22.9676C265.872 22.8439 265.811 22.7271 265.708 22.6516C265.611 22.576 265.488 22.5416 265.357 22.5691L260.287 23.6134C259.854 26.4853 257.69 28.7869 254.825 29.3777C254.351 29.4739 253.877 29.522 253.403 29.522L253.416 29.5151ZM252.042 16.475C248.854 17.1964 246.718 20.4118 247.274 23.634C247.563 25.3173 248.504 26.7807 249.912 27.7426C251.321 28.7044 253.025 29.0479 254.694 28.6975C257.353 28.1479 259.339 25.97 259.648 23.2768L259.675 23.0294L265.233 21.8821C265.556 21.8134 265.886 21.8958 266.147 22.095C266.408 22.2943 266.559 22.5966 266.573 22.9264L266.608 23.7096C266.614 23.9088 266.759 24.0737 266.937 24.1012C267.549 24.1905 268.078 24.5478 268.387 25.0837C268.463 25.2142 268.607 25.3379 268.792 25.3035L269.115 25.2348C269.294 25.2005 269.383 25.0219 269.397 24.8707C269.5 24.005 270.146 23.3111 270.998 23.1325C271.85 22.9538 272.715 23.3455 273.148 24.0943C273.224 24.2249 273.368 24.3554 273.554 24.3142L273.883 24.2455C274.062 24.2111 274.151 24.0325 274.165 23.8882C274.234 23.2768 274.577 22.7409 275.099 22.4111C275.251 22.3149 275.312 22.1019 275.244 21.9233L274.962 21.195C274.845 20.8927 274.866 20.5492 275.024 20.2606C275.182 19.9721 275.457 19.7728 275.773 19.7041L276.192 19.6148C276.659 19.5186 277.051 19.2438 277.298 18.8453C277.545 18.44 277.621 17.9659 277.497 17.5056C277.271 16.6399 276.322 16.0971 275.381 16.2895L258.981 19.6766L258.858 19.4637C257.484 17.0659 254.749 15.8567 252.042 16.475ZM253.423 26.9799C252.571 26.9799 251.74 26.7326 251.012 26.2517C250.029 25.6058 249.356 24.6165 249.122 23.4623C248.882 22.308 249.109 21.1332 249.754 20.1507C250.4 19.1682 251.39 18.5018 252.544 18.2613C253.698 18.0209 254.873 18.2476 255.855 18.8934C256.838 19.5392 257.504 20.5286 257.745 21.6828C257.985 22.8371 257.758 24.005 257.113 24.9875C256.467 25.97 255.477 26.6433 254.323 26.8769C254.028 26.9387 253.725 26.9662 253.423 26.9662V26.9799ZM253.444 18.8659C253.19 18.8659 252.935 18.8934 252.681 18.9415C251.712 19.1407 250.874 19.711 250.331 20.5355C249.789 21.3668 249.596 22.3561 249.796 23.3249C249.995 24.2936 250.565 25.1318 251.39 25.6745C252.221 26.2173 253.21 26.4097 254.179 26.2104C255.155 26.0112 255.986 25.441 256.529 24.6165C257.071 23.7852 257.264 22.7958 257.065 21.8271C256.865 20.8515 256.295 20.0202 255.471 19.4705C254.859 19.0652 254.158 18.8591 253.444 18.8591V18.8659Z" fill="white"/>
<path opacity="0.6" d="M242.184 46.6298C246.684 46.6298 250.332 44.3044 250.332 41.4358C250.332 38.5672 246.684 36.2417 242.184 36.2417C237.683 36.2417 234.035 38.5672 234.035 41.4358C234.035 44.3044 237.683 46.6298 242.184 46.6298Z" fill="#00A843"/>
<path opacity="0.3" d="M229.219 48.7528C231.067 48.7528 232.565 47.7993 232.565 46.623C232.565 45.4467 231.067 44.4932 229.219 44.4932C227.371 44.4932 225.873 45.4467 225.873 46.623C225.873 47.7993 227.371 48.7528 229.219 48.7528Z" fill="#00A843"/>
</g>
<defs>
<clipPath id="clip0_47_10829">
<rect width="343.523" height="256" fill="white"/>
</clipPath>
</defs>
</svg>
