<svg width="344" height="256" viewBox="0 0 344 256" fill="none" xmlns="http://www.w3.org/2000/svg">
<g clip-path="url(#clip0_47_11335)">
<path d="M343.523 224.973H0V225.145H343.523V224.973Z" fill="#EBEBEB"/>
<path d="M309.102 236.028H286.347V236.2H309.102V236.028Z" fill="#EBEBEB"/>
<path d="M227.563 237.896H221.593V238.068H227.563V237.896Z" fill="#EBEBEB"/>
<path d="M285.66 229.652H272.476V229.824H285.66V229.652Z" fill="#EBEBEB"/>
<path d="M65.7155 230.806H36.042V230.978H65.7155V230.806Z" fill="#EBEBEB"/>
<path d="M76.1869 230.806H71.8379V230.978H76.1869V230.806Z" fill="#EBEBEB"/>
<path d="M154.689 233.705H90.3262V233.877H154.689V233.705Z" fill="#EBEBEB"/>
<path d="M162.837 194.331H30.1681C28.004 194.331 26.2451 192.572 26.2451 190.408V3.92303C26.2451 1.75884 28.004 0 30.1681 0H162.837C165.001 0 166.76 1.75884 166.76 3.92303V190.408C166.76 192.572 165.001 194.331 162.837 194.331ZM30.1681 0.171761C28.1001 0.171761 26.4169 1.85502 26.4169 3.92303V190.408C26.4169 192.476 28.1001 194.159 30.1681 194.159H162.837C164.905 194.159 166.588 192.476 166.588 190.408V3.92303C166.588 1.85502 164.905 0.171761 162.837 0.171761H30.1681Z" fill="#EBEBEB"/>
<path d="M311.445 194.331H178.777C176.612 194.331 174.854 192.572 174.854 190.408V3.92303C174.854 1.75884 176.612 0 178.777 0H311.445C313.609 0 315.368 1.75884 315.368 3.92303V190.408C315.368 192.572 313.609 194.331 311.445 194.331ZM178.777 0.171761C176.709 0.171761 175.025 1.85502 175.025 3.92303V190.408C175.025 192.476 176.709 194.159 178.777 194.159H311.445C313.513 194.159 315.196 192.476 315.196 190.408V3.92303C315.196 1.85502 313.513 0.171761 311.445 0.171761H178.777Z" fill="#EBEBEB"/>
<path d="M152.998 88.478H45.4482V224.664H152.998V88.478Z" fill="#F0F0F0"/>
<path d="M149.192 93.4385H49.248V122.562H149.192V93.4385Z" fill="#E0E0E0"/>
<path d="M54.923 98.1587H49.248V122.563H54.923V98.1587Z" fill="#EBEBEB"/>
<path d="M82.3771 98.1587H76.7021V122.563H82.3771V98.1587Z" fill="#EBEBEB"/>
<path d="M113.539 97.5448L107.946 98.5088L112.092 122.558L117.684 121.594L113.539 97.5448Z" fill="#EBEBEB"/>
<path d="M61.9582 101.374H56.2832V122.563H61.9582V101.374Z" fill="#EBEBEB"/>
<path d="M75.0051 101.374H69.3301V122.563H75.0051V101.374Z" fill="#EBEBEB"/>
<path d="M107.943 101.374H102.268V122.563H107.943V101.374Z" fill="#EBEBEB"/>
<path d="M89.8318 100.643L84.292 101.874L88.8888 122.558L94.4287 121.327L89.8318 100.643Z" fill="#EBEBEB"/>
<path d="M66.8707 96.9424H64.0332V122.562H66.8707V96.9424Z" fill="#EBEBEB"/>
<path d="M100.639 96.9424H97.8018V122.562H100.639V96.9424Z" fill="#EBEBEB"/>
<path d="M49.2479 156.296H149.192V127.173L49.2479 127.173V156.296Z" fill="#E0E0E0"/>
<path d="M143.517 156.296H149.192V131.893H143.517V156.296Z" fill="#EBEBEB"/>
<path d="M116.063 156.296H121.738V131.893H116.063V156.296Z" fill="#EBEBEB"/>
<path d="M80.7512 155.329L86.3438 156.293L90.4891 132.244L84.8966 131.28L80.7512 155.329Z" fill="#EBEBEB"/>
<path d="M136.475 156.296H142.15V135.108H136.475V156.296Z" fill="#EBEBEB"/>
<path d="M123.435 156.296H129.11V135.108H123.435V156.296Z" fill="#EBEBEB"/>
<path d="M90.491 156.296H96.166V135.108H90.491V156.296Z" fill="#EBEBEB"/>
<path d="M104.018 155.061L109.558 156.292L114.154 135.608L108.615 134.377L104.018 155.061Z" fill="#EBEBEB"/>
<path d="M131.57 156.296H134.407V130.676H131.57V156.296Z" fill="#EBEBEB"/>
<path d="M97.8012 156.296H100.639V130.676H97.8012V156.296Z" fill="#EBEBEB"/>
<path d="M54.923 131.885H49.248V156.289H54.923V131.885Z" fill="#EBEBEB"/>
<path d="M61.9582 135.101H56.2832V156.29H61.9582V135.101Z" fill="#EBEBEB"/>
<path d="M75.0051 135.101H69.3301V156.29H75.0051V135.101Z" fill="#EBEBEB"/>
<path d="M66.8707 130.676H64.0332V156.296H66.8707V130.676Z" fill="#EBEBEB"/>
<path d="M149.192 160.906H49.2471V190.03H149.192V160.906Z" fill="#E0E0E0"/>
<path d="M112.283 165.619H106.608V190.023H112.283V165.619Z" fill="#EBEBEB"/>
<path d="M143.458 165.011L137.865 165.975L142.011 190.024L147.603 189.06L143.458 165.011Z" fill="#EBEBEB"/>
<path d="M91.8645 168.835H86.1895V190.023H91.8645V168.835Z" fill="#EBEBEB"/>
<path d="M104.918 168.835H99.2432V190.023H104.918V168.835Z" fill="#EBEBEB"/>
<path d="M137.856 168.835H132.181V190.023H137.856V168.835Z" fill="#EBEBEB"/>
<path d="M119.749 168.1L114.209 169.332L118.806 190.015L124.346 188.784L119.749 168.1Z" fill="#EBEBEB"/>
<path d="M96.777 164.41H93.9395V190.03H96.777V164.41Z" fill="#EBEBEB"/>
<path d="M130.545 164.41H127.708V190.03H130.545V164.41Z" fill="#EBEBEB"/>
<path d="M78.1345 165.01L72.542 165.974L76.6874 190.023L82.2799 189.059L78.1345 165.01Z" fill="#EBEBEB"/>
<path d="M72.5383 168.835H66.8633V190.023H72.5383V168.835Z" fill="#EBEBEB"/>
<path d="M54.4275 168.104L48.8877 169.335L53.4845 190.019L59.0244 188.788L54.4275 168.104Z" fill="#EBEBEB"/>
<path d="M65.2281 164.41H62.3906V190.03H65.2281V164.41Z" fill="#EBEBEB"/>
<path d="M209.741 143.373H270.346C276.921 143.373 282.252 148.705 282.252 155.28V202.603H197.842V155.28C197.842 148.705 203.173 143.373 209.748 143.373H209.741Z" fill="#E6E6E6"/>
<path d="M179.923 178.454H190.772C194.681 178.454 197.848 181.621 197.848 185.53V224.671H172.854V185.53C172.854 181.621 176.021 178.454 179.93 178.454H179.923Z" fill="#E0E0E0"/>
<path d="M179.923 178.454H180.15C184.059 178.454 187.227 181.621 187.227 185.53V224.671H172.854V185.53C172.854 181.621 176.021 178.454 179.93 178.454H179.923Z" fill="#EBEBEB"/>
<path d="M273.424 206.684H190.25V224.664H273.424V206.684Z" fill="#E6E6E6"/>
<path d="M270.345 190.243H190.133C186.16 190.243 182.939 193.464 182.939 197.437V201.909C182.939 205.882 186.16 209.103 190.133 209.103H270.345C274.318 209.103 277.539 205.882 277.539 201.909V197.437C277.539 193.464 274.318 190.243 270.345 190.243Z" fill="#F5F5F5"/>
<path d="M270.208 190.243H260.267C256.294 190.243 253.073 193.464 253.073 197.437V201.909C253.073 205.882 256.294 209.103 260.267 209.103H270.208C274.181 209.103 277.402 205.882 277.402 201.909V197.437C277.402 193.464 274.181 190.243 270.208 190.243Z" fill="#E0E0E0"/>
<path d="M271.286 178.454H282.135C286.044 178.454 289.212 181.621 289.212 185.53V224.671H264.217V185.53C264.217 181.621 267.384 178.454 271.293 178.454H271.286Z" fill="#E0E0E0"/>
<path d="M271.286 178.454H271.513C275.422 178.454 278.59 181.621 278.59 185.53V224.671H264.217V185.53C264.217 181.621 267.384 178.454 271.293 178.454H271.286Z" fill="#F0F0F0"/>
<path d="M103.237 71.9294C112.057 70.4977 118.047 62.1866 116.615 53.3661C115.183 44.5456 106.872 38.5559 98.0519 39.9876C89.2315 41.4194 83.2417 49.7305 84.6735 58.551C86.1053 67.3714 94.4163 73.3612 103.237 71.9294Z" fill="#E0E0E0"/>
<path d="M102.849 69.5421C110.351 68.3243 115.446 61.2555 114.228 53.7534C113.01 46.2513 105.941 41.1569 98.4392 42.3746C90.9371 43.5924 85.8427 50.6612 87.0604 58.1633C88.2782 65.6654 95.347 70.7599 102.849 69.5421Z" fill="#F0F0F0"/>
<path d="M99.9861 65.3931V55.7744L93.6172 59.3814" fill="#F0F0F0"/>
<path d="M99.9861 65.3931V55.7744L93.6172 59.3814" stroke="#E0E0E0" stroke-width="2" stroke-linecap="round" stroke-linejoin="round"/>
<path d="M294.474 35.541H190.902V127.447H294.474V35.541Z" fill="#E6E6E6"/>
<path d="M291.747 38.0625H193.492V124.981H291.747V38.0625Z" fill="#F0F0F0"/>
<path d="M216.549 38.0625L193.492 124.788V84.0327L205.667 38.0625H216.549Z" fill="white"/>
<path d="M224.718 38.0625L201.455 124.981H197.745L221.008 38.0625H224.718Z" fill="white"/>
<path d="M291.746 92.9092V106.794L287.04 124.98H283.33L291.746 92.9092Z" fill="white"/>
<path d="M227.762 36.4961H226.106V126.918H227.762V36.4961Z" fill="#E6E6E6"/>
<path d="M259.84 36.4961H258.185V126.918H259.84V36.4961Z" fill="#E6E6E6"/>
<path d="M171.761 256C245.332 256 304.972 252.518 304.972 248.223C304.972 243.927 245.332 240.445 171.761 240.445C98.1905 240.445 38.5498 243.927 38.5498 248.223C38.5498 252.518 98.1905 256 171.761 256Z" fill="#F5F5F5"/>
<path d="M276.123 231.04C276.123 231.04 279.387 223.922 275.656 216.9C271.926 209.879 270.847 208.23 273.224 206.787C275.601 205.344 276.694 212.4 276.694 212.4C276.694 212.4 278.7 207.55 277.044 202.472C275.388 197.395 274.351 189.123 276.611 188.237C278.872 187.351 277.044 198.556 279.002 202.376C279.002 202.376 280.651 198.123 280.919 194.042C281.187 189.961 280.768 183.448 282.554 181.779C284.341 180.109 285.481 181.263 283.729 190.264C281.977 199.264 281.991 206.581 281.991 206.581C281.991 206.581 285.866 194.771 288.463 194.427C291.06 194.084 291.06 197.904 288.834 201.222C286.608 204.54 282.321 210.483 281.613 213.541C281.613 213.541 285.866 204.657 289.686 207.378C293.513 210.099 286.36 215.471 283.173 217.409C279.985 219.346 277.772 231.507 277.772 231.507L276.13 231.04H276.123Z" fill="#00A843"/>
<path opacity="0.2" d="M276.123 231.04C276.123 231.04 279.387 223.922 275.656 216.9C271.926 209.879 270.847 208.23 273.224 206.787C275.601 205.344 276.694 212.4 276.694 212.4C276.694 212.4 278.7 207.55 277.044 202.472C275.388 197.395 274.351 189.123 276.611 188.237C278.872 187.351 277.044 198.556 279.002 202.376C279.002 202.376 280.651 198.123 280.919 194.042C281.187 189.961 280.768 183.448 282.554 181.779C284.341 180.109 285.481 181.263 283.729 190.264C281.977 199.264 281.991 206.581 281.991 206.581C281.991 206.581 285.866 194.771 288.463 194.427C291.06 194.084 291.06 197.904 288.834 201.222C286.608 204.54 282.321 210.483 281.613 213.541C281.613 213.541 285.866 204.657 289.686 207.378C293.513 210.099 286.36 215.471 283.173 217.409C279.985 219.346 277.772 231.507 277.772 231.507L276.13 231.04H276.123Z" fill="black"/>
<path d="M278.7 233.96C278.7 233.96 275.519 226.794 279.332 219.827C283.145 212.861 284.244 211.225 281.888 209.755C279.531 208.285 278.356 215.32 278.356 215.32C278.356 215.32 276.412 210.435 278.13 205.386C279.847 200.329 280.981 192.078 278.734 191.157C276.487 190.236 278.178 201.469 276.171 205.255C276.171 205.255 274.578 200.982 274.351 196.894C274.124 192.806 274.632 186.306 272.867 184.609C271.101 182.912 269.947 184.053 271.589 193.081C273.231 202.108 273.135 209.425 273.135 209.425C273.135 209.425 269.404 197.56 266.807 197.175C264.21 196.791 264.169 200.617 266.354 203.963C268.538 207.316 272.757 213.321 273.423 216.385C273.423 216.385 269.28 207.44 265.426 210.106C261.572 212.771 268.655 218.247 271.822 220.233C274.99 222.218 277.051 234.406 277.051 234.406L278.7 233.96Z" fill="#00A843"/>
<path d="M264.038 228.848H290.29L288.167 247.632H266.168L264.038 228.848Z" fill="#001640"/>
<path d="M166.676 244.615V247.082C166.676 247.391 166.429 247.631 166.12 247.631H96.4399C93.8634 247.631 92.1046 245.027 93.0665 242.643L115.148 187.955L150.833 188.195L149.617 195.292L141.744 241.221C141.489 242.705 142.63 244.059 144.135 244.059H166.12C166.429 244.059 166.676 244.299 166.676 244.608V244.615Z" fill="#001640"/>
<path opacity="0.5" d="M166.677 244.615V247.082C166.677 247.391 166.429 247.631 166.12 247.631H96.4399C93.8634 247.631 92.1046 245.027 93.0665 242.643L106.759 208.745L115.148 187.955L150.833 188.195L149.617 195.292L146.196 215.265L141.751 241.214C141.496 242.698 142.637 244.052 144.141 244.052H166.127C166.436 244.052 166.683 244.292 166.683 244.601L166.677 244.615Z" fill="white"/>
<path opacity="0.2" d="M144.135 244.066H98.7967C97.663 244.066 96.8935 242.912 97.3264 241.867L116.687 195.306H149.617L141.744 241.235C141.49 242.719 142.63 244.073 144.135 244.073V244.066Z" fill="black"/>
<path opacity="0.1" d="M150.834 188.202L149.618 195.299L146.189 215.271L106.76 208.745L115.149 187.961L150.834 188.202Z" fill="black"/>
<path d="M220.218 86.2593H55.0183C52.6823 86.2593 50.793 88.1486 50.793 90.4846V202.322C50.793 204.658 52.6823 206.547 55.0183 206.547H220.218C222.554 206.547 224.444 204.658 224.444 202.322V90.4846C224.444 88.1486 222.547 86.2593 220.218 86.2593Z" fill="#001640"/>
<path opacity="0.6" d="M220.218 86.2593H55.0183C52.6823 86.2593 50.793 88.1486 50.793 90.4846V202.322C50.793 204.658 52.6823 206.547 55.0183 206.547H220.218C222.554 206.547 224.444 204.658 224.444 202.322V90.4846C224.444 88.1486 222.547 86.2593 220.218 86.2593Z" fill="white"/>
<path opacity="0.2" d="M58.5222 206.546H55.0183C52.6892 206.546 50.793 204.657 50.793 202.321V90.4837C50.793 88.1477 52.6823 86.2515 55.0183 86.2515H58.5222C56.1931 86.2515 54.2969 88.1408 54.2969 90.4837V202.321C54.2969 204.65 56.1863 206.546 58.5222 206.546Z" fill="black"/>
<path d="M220.645 89.8857H58.1104V197.731H220.645V89.8857Z" fill="#00A843"/>
<path opacity="0.4" d="M137.133 130.944C144.927 130.944 151.245 124.625 151.245 116.832C151.245 109.038 144.927 102.72 137.133 102.72C129.34 102.72 123.021 109.038 123.021 116.832C123.021 124.625 129.34 130.944 137.133 130.944Z" fill="white"/>
<path d="M133.767 114.688V113.369C133.767 112.084 134.812 111.047 136.09 111.047H138.171C139.456 111.047 140.494 112.091 140.494 113.369V114.688H141.998V113.369C141.998 111.26 140.281 109.542 138.171 109.542H136.09C133.98 109.542 132.263 111.26 132.263 113.369V114.688H133.767Z" fill="white"/>
<path d="M130.366 116.426V123.359C130.366 123.784 130.71 124.128 131.136 124.128H143.132C143.557 124.128 143.901 123.784 143.901 123.359V116.426C143.901 116 143.557 115.657 143.132 115.657H131.136C130.71 115.657 130.366 116 130.366 116.426ZM137.566 120.356V121.716H136.701V120.356C136.453 120.205 136.282 119.944 136.282 119.635C136.282 119.161 136.666 118.776 137.14 118.776C137.615 118.776 137.999 119.161 137.999 119.635C137.999 119.944 137.828 120.205 137.58 120.356H137.566Z" fill="white"/>
<path d="M102.706 142.63H89.3773C88.5843 142.63 87.9414 143.273 87.9414 144.066V157.395C87.9414 158.188 88.5843 158.831 89.3773 158.831H102.706C103.499 158.831 104.142 158.188 104.142 157.395V144.066C104.142 143.273 103.499 142.63 102.706 142.63Z" fill="white"/>
<path d="M123.256 142.61H109.927C109.134 142.61 108.491 143.253 108.491 144.046V157.374C108.491 158.167 109.134 158.81 109.927 158.81H123.256C124.049 158.81 124.692 158.167 124.692 157.374V144.046C124.692 143.253 124.049 142.61 123.256 142.61Z" fill="white"/>
<path d="M143.798 142.582H130.469C129.676 142.582 129.033 143.225 129.033 144.018V157.347C129.033 158.14 129.676 158.783 130.469 158.783H143.798C144.591 158.783 145.234 158.14 145.234 157.347V144.018C145.234 143.225 144.591 142.582 143.798 142.582Z" fill="white"/>
<path d="M164.341 142.562H151.012C150.219 142.562 149.576 143.204 149.576 143.997V157.326C149.576 158.119 150.219 158.762 151.012 158.762H164.341C165.134 158.762 165.777 158.119 165.777 157.326V143.997C165.777 143.204 165.134 142.562 164.341 142.562Z" fill="white"/>
<path d="M184.884 142.541H171.555C170.762 142.541 170.119 143.184 170.119 143.977V157.306C170.119 158.099 170.762 158.742 171.555 158.742H184.884C185.677 158.742 186.32 158.099 186.32 157.306V143.977C186.32 143.184 185.677 142.541 184.884 142.541Z" fill="white"/>
<path d="M174.653 150.958C174.653 148.106 176.179 146.485 178.226 146.485C180.273 146.485 181.785 148.113 181.785 150.958C181.785 153.802 180.26 155.43 178.226 155.43C176.192 155.43 174.653 153.809 174.653 150.958ZM180.541 150.958C180.541 148.718 179.593 147.598 178.226 147.598C176.859 147.598 175.904 148.725 175.904 150.958C175.904 153.19 176.852 154.317 178.226 154.317C179.6 154.317 180.541 153.19 180.541 150.958Z" fill="#001640"/>
<path d="M99.2986 150.84C99.2986 153.829 97.6084 155.423 95.1626 155.423C94.3381 155.423 93.548 155.258 92.9915 154.908L93.4656 153.932C93.9259 154.234 94.5167 154.344 95.1557 154.344C96.9283 154.344 98.055 153.231 98.055 151.046V150.737C97.5397 151.5 96.6191 151.885 95.5336 151.885C93.7953 151.885 92.5449 150.847 92.5449 149.233C92.5449 147.618 93.8915 146.471 95.6298 146.471C97.9795 146.471 99.3054 148.044 99.3054 150.833L99.2986 150.84ZM97.7596 149.178C97.7596 148.278 97.0382 147.488 95.671 147.488C94.5305 147.488 93.7473 148.147 93.7473 149.185C93.7473 150.222 94.5099 150.875 95.7328 150.875C96.9558 150.875 97.7596 150.14 97.7596 149.178Z" fill="#001640"/>
<path d="M113.019 150.958C113.019 148.106 114.544 146.485 116.591 146.485C118.639 146.485 120.15 148.113 120.15 150.958C120.15 153.802 118.625 155.43 116.591 155.43C114.558 155.43 113.019 153.809 113.019 150.958ZM118.907 150.958C118.907 148.718 117.958 147.598 116.591 147.598C115.224 147.598 114.269 148.725 114.269 150.958C114.269 153.19 115.217 154.317 116.591 154.317C117.965 154.317 118.907 153.19 118.907 150.958Z" fill="#001640"/>
<path d="M140.294 154.242V155.327H134.007V154.475L137.566 151.04C138.494 150.14 138.666 149.59 138.666 149.041C138.666 148.141 138.027 147.591 136.804 147.591C135.869 147.591 135.107 147.893 134.564 148.539L133.712 147.804C134.385 146.966 135.546 146.478 136.914 146.478C138.741 146.478 139.916 147.412 139.916 148.917C139.916 149.769 139.669 150.532 138.48 151.665L135.807 154.242H140.294Z" fill="#001640"/>
<path d="M158.679 146.581V155.327H157.443V147.667H155.471V146.581H158.679Z" fill="#001640"/>
<g opacity="0.6">
<path d="M121.765 138.675V138.984H119.381V135.617H121.689V135.926H119.738V137.122H121.483V137.424H119.738V138.675H121.765Z" fill="white"/>
<path d="M124.856 137.512V138.982H124.513V137.546C124.513 137.01 124.231 136.735 123.75 136.735C123.208 136.735 122.864 137.072 122.864 137.649V138.975H122.521V136.447H122.85V136.914C123.036 136.605 123.372 136.426 123.812 136.426C124.43 136.426 124.85 136.784 124.85 137.512H124.856Z" fill="white"/>
<path d="M127.117 138.824C126.98 138.941 126.78 139.002 126.581 139.002C126.107 139.002 125.839 138.735 125.839 138.267V136.735H125.386V136.447H125.839V135.89H126.183V136.447H126.952V136.735H126.183V138.247C126.183 138.542 126.334 138.707 126.622 138.707C126.76 138.707 126.904 138.666 127 138.576L127.117 138.824Z" fill="white"/>
<path d="M129.844 137.821H127.728C127.769 138.35 128.168 138.7 128.724 138.7C129.034 138.7 129.308 138.59 129.501 138.371L129.693 138.59C129.466 138.858 129.116 139.003 128.718 139.003C127.928 139.003 127.392 138.467 127.392 137.711C127.392 136.955 127.914 136.426 128.628 136.426C129.343 136.426 129.858 136.948 129.858 137.711C129.858 137.739 129.858 137.78 129.858 137.814L129.844 137.821ZM127.728 137.567H129.521C129.48 137.072 129.116 136.722 128.621 136.722C128.127 136.722 127.769 137.065 127.728 137.567Z" fill="white"/>
<path d="M131.823 136.426V136.756C131.823 136.756 131.768 136.756 131.74 136.756C131.211 136.756 130.888 137.093 130.888 137.69V138.982H130.545V136.454H130.875V136.948C131.033 136.612 131.356 136.433 131.823 136.433V136.426Z" fill="white"/>
<path d="M135.863 136.447L134.599 139.277C134.386 139.772 134.118 139.93 133.754 139.93C133.52 139.93 133.294 139.855 133.136 139.697L133.294 139.442C133.417 139.566 133.575 139.635 133.754 139.635C133.981 139.635 134.132 139.532 134.276 139.209L134.386 138.961L133.253 136.433H133.61L134.565 138.584L135.52 136.433H135.856L135.863 136.447Z" fill="white"/>
<path d="M136.015 137.711C136.015 136.962 136.564 136.426 137.306 136.426C138.048 136.426 138.591 136.962 138.591 137.711C138.591 138.46 138.048 139.003 137.306 139.003C136.564 139.003 136.015 138.467 136.015 137.711ZM138.241 137.711C138.241 137.12 137.842 136.722 137.299 136.722C136.757 136.722 136.358 137.113 136.358 137.711C136.358 138.309 136.764 138.7 137.299 138.7C137.835 138.7 138.241 138.309 138.241 137.711Z" fill="white"/>
<path d="M141.565 136.447V138.975H141.236V138.515C141.057 138.824 140.727 139.003 140.329 139.003C139.683 139.003 139.257 138.638 139.257 137.917V136.447H139.6V137.883C139.6 138.419 139.882 138.693 140.363 138.693C140.892 138.693 141.222 138.35 141.222 137.773V136.447H141.565Z" fill="white"/>
<path d="M143.798 136.426V136.756C143.798 136.756 143.743 136.756 143.716 136.756C143.187 136.756 142.864 137.093 142.864 137.69V138.982H142.521V136.454H142.85V136.948C143.008 136.612 143.331 136.433 143.798 136.433V136.426Z" fill="white"/>
<path d="M145.481 137.292C145.481 136.309 146.23 135.581 147.254 135.581C148.278 135.581 149.02 136.309 149.02 137.292C149.02 138.274 148.264 139.003 147.254 139.003C146.244 139.003 145.481 138.274 145.481 137.292ZM148.662 137.292C148.662 136.488 148.058 135.897 147.254 135.897C146.45 135.897 145.832 136.488 145.832 137.292C145.832 138.096 146.436 138.687 147.254 138.687C148.072 138.687 148.662 138.096 148.662 137.292Z" fill="white"/>
<path d="M150.422 135.918H149.24V135.608H151.961V135.918H150.779V138.975H150.422V135.918Z" fill="white"/>
<path d="M155.17 136.763C155.17 137.477 154.647 137.91 153.795 137.91H152.889V138.975H152.531V135.608H153.789C154.647 135.608 155.163 136.041 155.163 136.763H155.17ZM154.812 136.763C154.812 136.227 154.455 135.918 153.782 135.918H152.889V137.601H153.782C154.455 137.601 154.812 137.292 154.812 136.763Z" fill="white"/>
</g>
<g opacity="0.6">
<path d="M123.771 167.598L123.908 167.323C124.148 167.556 124.574 167.728 125.021 167.728C125.653 167.728 125.928 167.467 125.928 167.13C125.928 166.21 123.853 166.773 123.853 165.53C123.853 165.035 124.238 164.609 125.097 164.609C125.474 164.609 125.873 164.719 126.141 164.904L126.024 165.186C125.735 165.001 125.399 164.904 125.103 164.904C124.485 164.904 124.21 165.179 124.21 165.516C124.21 166.436 126.285 165.88 126.285 167.11C126.285 167.604 125.893 168.03 125.028 168.03C124.519 168.03 124.025 167.852 123.777 167.591L123.771 167.598Z" fill="white"/>
<path d="M129.177 166.848H127.061C127.102 167.377 127.501 167.728 128.057 167.728C128.367 167.728 128.641 167.618 128.834 167.398L129.026 167.618C128.799 167.886 128.449 168.03 128.051 168.03C127.261 168.03 126.725 167.494 126.725 166.738C126.725 165.983 127.247 165.454 127.961 165.454C128.676 165.454 129.191 165.976 129.191 166.738C129.191 166.766 129.191 166.807 129.191 166.841L129.177 166.848ZM127.061 166.594H128.854C128.813 166.099 128.449 165.749 127.954 165.749C127.46 165.749 127.102 166.093 127.061 166.594Z" fill="white"/>
<path d="M132.207 166.539V168.009H131.864V166.573C131.864 166.038 131.582 165.763 131.101 165.763C130.558 165.763 130.215 166.099 130.215 166.677V168.003H129.871V165.474H130.201V165.941C130.386 165.632 130.723 165.454 131.163 165.454C131.781 165.454 132.2 165.811 132.2 166.539H132.207Z" fill="white"/>
<path d="M135.457 164.437V168.01H135.127V167.508C134.921 167.852 134.571 168.03 134.152 168.03C133.43 168.03 132.888 167.508 132.888 166.739C132.888 165.969 133.424 165.454 134.152 165.454C134.557 165.454 134.901 165.626 135.114 165.955V164.437H135.457ZM135.121 166.745C135.121 166.155 134.715 165.756 134.179 165.756C133.643 165.756 133.238 166.148 133.238 166.745C133.238 167.343 133.643 167.735 134.179 167.735C134.715 167.735 135.121 167.343 135.121 166.745Z" fill="white"/>
<path d="M139.579 166.436V168.003H139.249V167.611C139.098 167.872 138.796 168.03 138.377 168.03C137.806 168.03 137.456 167.735 137.456 167.295C137.456 166.903 137.703 166.58 138.432 166.58H139.235V166.429C139.235 165.996 138.988 165.763 138.521 165.763C138.191 165.763 137.889 165.88 137.676 166.058L137.525 165.804C137.779 165.584 138.157 165.46 138.555 165.46C139.208 165.46 139.579 165.79 139.579 166.443V166.436ZM139.235 167.247V166.835H138.439C137.951 166.835 137.786 167.027 137.786 167.288C137.786 167.583 138.019 167.762 138.425 167.762C138.83 167.762 139.091 167.577 139.229 167.247H139.235Z" fill="white"/>
<path d="M142.857 165.474V167.7C142.857 168.573 142.431 168.964 141.593 168.964C141.132 168.964 140.679 168.827 140.411 168.573L140.583 168.312C140.823 168.532 141.187 168.655 141.579 168.655C142.218 168.655 142.513 168.36 142.513 167.735V167.412C142.3 167.735 141.943 167.9 141.524 167.9C140.803 167.9 140.253 167.391 140.253 166.67C140.253 165.948 140.803 165.447 141.524 165.447C141.95 165.447 142.314 165.619 142.527 165.955V165.467H142.857V165.474ZM142.527 166.677C142.527 166.127 142.122 165.756 141.565 165.756C141.009 165.756 140.61 166.134 140.61 166.677C140.61 167.219 141.009 167.604 141.565 167.604C142.122 167.604 142.527 167.226 142.527 166.677Z" fill="white"/>
<path d="M145.722 166.436V168.003H145.392V167.611C145.241 167.872 144.938 168.03 144.519 168.03C143.949 168.03 143.599 167.735 143.599 167.295C143.599 166.903 143.846 166.58 144.574 166.58H145.378V166.429C145.378 165.996 145.131 165.763 144.664 165.763C144.334 165.763 144.031 165.88 143.818 166.058L143.667 165.804C143.922 165.584 144.299 165.46 144.698 165.46C145.351 165.46 145.722 165.79 145.722 166.443V166.436ZM145.378 167.247V166.835H144.581C144.093 166.835 143.928 167.027 143.928 167.288C143.928 167.583 144.162 167.762 144.567 167.762C144.973 167.762 145.234 167.577 145.371 167.247H145.378Z" fill="white"/>
<path d="M146.573 164.677C146.573 164.547 146.683 164.437 146.821 164.437C146.958 164.437 147.068 164.54 147.068 164.671C147.068 164.808 146.965 164.918 146.821 164.918C146.676 164.918 146.573 164.808 146.573 164.671V164.677ZM146.649 165.474H146.992V168.003H146.649V165.474Z" fill="white"/>
<path d="M150.27 166.539V168.009H149.926V166.573C149.926 166.038 149.644 165.763 149.163 165.763C148.621 165.763 148.277 166.099 148.277 166.677V168.003H147.934V165.474H148.263V165.941C148.449 165.632 148.786 165.454 149.225 165.454C149.844 165.454 150.263 165.811 150.263 166.539H150.27Z" fill="white"/>
</g>
<path opacity="0.4" d="M156.275 185.186H117.986C114.832 185.186 112.276 182.63 112.276 179.476C112.276 176.323 114.832 173.767 117.986 173.767H156.275C159.428 173.767 161.984 176.323 161.984 179.476C161.984 182.63 159.428 185.186 156.275 185.186Z" fill="white"/>
<path d="M122.197 179.181C122.197 178.048 123.063 177.216 124.238 177.216C124.829 177.216 125.351 177.422 125.701 177.814L125.344 178.158C125.049 177.848 124.684 177.704 124.265 177.704C123.4 177.704 122.754 178.329 122.754 179.181C122.754 180.033 123.4 180.658 124.265 180.658C124.691 180.658 125.049 180.507 125.344 180.198L125.701 180.542C125.351 180.94 124.836 181.146 124.238 181.146C123.07 181.146 122.204 180.315 122.204 179.181H122.197Z" fill="white"/>
<path d="M126.093 179.181C126.093 178.054 126.958 177.216 128.14 177.216C129.322 177.216 130.181 178.054 130.181 179.181C130.181 180.308 129.315 181.146 128.14 181.146C126.965 181.146 126.093 180.308 126.093 179.181ZM129.631 179.181C129.631 178.329 128.992 177.704 128.14 177.704C127.288 177.704 126.642 178.329 126.642 179.181C126.642 180.033 127.281 180.658 128.14 180.658C128.999 180.658 129.631 180.033 129.631 179.181Z" fill="white"/>
<path d="M134.33 177.264V181.112H133.877L131.568 178.247V181.112H131.019V177.264H131.472L133.78 180.129V177.264H134.33Z" fill="white"/>
<path d="M136.247 177.738H134.928V177.257H138.109V177.738H136.79V181.105H136.247V177.738Z" fill="white"/>
<path d="M138.707 177.264H139.257V181.112H138.707V177.264Z" fill="white"/>
<path d="M143.723 177.264V181.112H143.269L140.961 178.247V181.112H140.411V177.264H140.865L143.173 180.129V177.264H143.723Z" fill="white"/>
<path d="M144.842 179.449V177.264H145.391V179.428C145.391 180.28 145.783 180.665 146.47 180.665C147.157 180.665 147.556 180.28 147.556 179.428V177.264H148.092V179.449C148.092 180.562 147.48 181.153 146.463 181.153C145.446 181.153 144.835 180.562 144.835 179.449H144.842Z" fill="white"/>
<path d="M152.015 180.631V181.112H149.226V177.264H151.939V177.745H149.775V178.927H151.706V179.394H149.775V180.638H152.015V180.631Z" fill="white"/>
<path opacity="0.1" d="M203.702 90.3945C181.229 112.909 123.51 163.015 58.1104 159.312V90.3945H203.702Z" fill="white"/>
<path opacity="0.1" d="M220.638 131.775V198.24H122.782C126.533 184.815 134.036 166.43 148.588 153.294C174.764 129.659 205.145 129.728 220.638 131.775Z" fill="white"/>
<path d="M241.311 79.7935L243.592 89.8655L245.873 79.7935H241.311Z" fill="#00A843"/>
<path opacity="0.7" d="M241.311 79.7935L243.592 89.8655L245.873 79.7935H241.311Z" fill="white"/>
<path d="M269.122 51.2744H218.068C214.808 51.2744 212.166 53.9167 212.166 57.1761V76.1249C212.166 79.3843 214.808 82.0266 218.068 82.0266H269.122C272.382 82.0266 275.024 79.3843 275.024 76.1249V57.1761C275.024 53.9167 272.382 51.2744 269.122 51.2744Z" fill="#00A843"/>
<path opacity="0.7" d="M269.122 51.2744H218.068C214.808 51.2744 212.166 53.9167 212.166 57.1761V76.1249C212.166 79.3843 214.808 82.0266 218.068 82.0266H269.122C272.382 82.0266 275.024 79.3843 275.024 76.1249V57.1761C275.024 53.9167 272.382 51.2744 269.122 51.2744Z" fill="white"/>
<g opacity="0.5">
<path d="M224.718 62.5556V63.8885H224.176V62.5487L222.65 60.041H223.241L224.471 62.0678L225.708 60.041H226.251L224.725 62.5556H224.718Z" fill="#001640"/>
<path d="M226.127 62.4323C226.127 61.5666 226.773 60.9482 227.645 60.9482C228.518 60.9482 229.157 61.5666 229.157 62.4323C229.157 63.2979 228.518 63.9232 227.645 63.9232C226.773 63.9232 226.127 63.3048 226.127 62.4323ZM228.621 62.4323C228.621 61.8139 228.202 61.4086 227.645 61.4086C227.089 61.4086 226.663 61.8071 226.663 62.4323C226.663 63.0575 227.089 63.4628 227.645 63.4628C228.202 63.4628 228.621 63.0575 228.621 62.4323Z" fill="#001640"/>
<path d="M232.599 60.9756V63.8887H232.097V63.4489C231.884 63.7512 231.52 63.923 231.108 63.923C230.352 63.923 229.857 63.5108 229.857 62.652V60.9756H230.386V62.5901C230.386 63.1604 230.675 63.4489 231.17 63.4489C231.719 63.4489 232.07 63.1054 232.07 62.4802V60.9756H232.599Z" fill="#001640"/>
<path d="M235.175 60.9482V61.4567C235.134 61.4567 235.092 61.4567 235.051 61.4567C234.488 61.4567 234.131 61.8002 234.131 62.4391V63.8888H233.602V60.9757H234.11V61.4635C234.295 61.12 234.66 60.9482 235.168 60.9482H235.175Z" fill="#001640"/>
<path d="M237.105 61.965C237.105 60.8382 237.971 60 239.153 60C240.335 60 241.193 60.8313 241.193 61.965C241.193 63.0986 240.328 63.9299 239.153 63.9299C237.978 63.9299 237.105 63.0917 237.105 61.965ZM240.644 61.965C240.644 61.113 240.005 60.4878 239.153 60.4878C238.301 60.4878 237.655 61.113 237.655 61.965C237.655 62.8169 238.294 63.4421 239.153 63.4421C240.012 63.4421 240.644 62.8169 240.644 61.965Z" fill="#001640"/>
<path d="M242.747 60.5219H241.428V60.041H244.609V60.5219H243.29V63.8885H242.747V60.5219Z" fill="#001640"/>
<path d="M248.311 61.3808C248.311 62.219 247.707 62.7205 246.711 62.7205H245.763V63.8816H245.213V60.0342H246.711C247.714 60.0342 248.311 60.5426 248.311 61.3739V61.3808ZM247.762 61.3808C247.762 60.8312 247.391 60.5151 246.69 60.5151H245.756V62.2396H246.69C247.391 62.2396 247.762 61.9236 247.762 61.3739V61.3808Z" fill="#001640"/>
<path d="M250.338 61.965C250.338 60.8245 251.204 60 252.378 60C252.969 60 253.491 60.2061 253.842 60.5977L253.485 60.9412C253.189 60.6252 252.825 60.4878 252.406 60.4878C251.54 60.4878 250.894 61.113 250.894 61.965C250.894 62.8169 251.54 63.4421 252.406 63.4421C252.832 63.4421 253.189 63.2909 253.485 62.9818L253.842 63.3253C253.491 63.7238 252.976 63.9299 252.378 63.9299C251.21 63.9299 250.345 63.0986 250.345 61.965H250.338Z" fill="#001640"/>
<path d="M254.158 62.4323C254.158 61.5666 254.804 60.9482 255.677 60.9482C256.549 60.9482 257.188 61.5666 257.188 62.4323C257.188 63.2979 256.549 63.9232 255.677 63.9232C254.804 63.9232 254.158 63.3048 254.158 62.4323ZM256.652 62.4323C256.652 61.8139 256.233 61.4086 255.677 61.4086C255.12 61.4086 254.694 61.8071 254.694 62.4323C254.694 63.0575 255.12 63.4628 255.677 63.4628C256.233 63.4628 256.652 63.0575 256.652 62.4323Z" fill="#001640"/>
<path d="M260.665 59.8145V63.8886H260.156V63.4283C259.923 63.7581 259.545 63.923 259.119 63.923C258.267 63.923 257.648 63.3253 257.648 62.4321C257.648 61.5389 258.267 60.9481 259.119 60.9481C259.531 60.9481 259.895 61.0992 260.136 61.4153V59.8145H260.665ZM260.142 62.4321C260.142 61.8138 259.716 61.4084 259.167 61.4084C258.617 61.4084 258.184 61.8069 258.184 62.4321C258.184 63.0573 258.61 63.4627 259.167 63.4627C259.723 63.4627 260.142 63.0573 260.142 62.4321Z" fill="#001640"/>
<path d="M264.285 62.6109H261.922C261.99 63.1193 262.403 63.4628 262.98 63.4628C263.323 63.4628 263.605 63.346 263.818 63.1124L264.106 63.4559C263.845 63.7651 263.44 63.93 262.959 63.93C262.018 63.93 261.393 63.3116 261.393 62.4391C261.393 61.5665 262.011 60.9551 262.856 60.9551C263.701 60.9551 264.299 61.5597 264.299 62.4528C264.299 62.4941 264.299 62.5628 264.285 62.6109ZM261.922 62.233H263.79C263.735 61.7452 263.364 61.3948 262.856 61.3948C262.348 61.3948 261.977 61.7383 261.922 62.233Z" fill="#001640"/>
</g>
<g opacity="0.5">
<path d="M235.65 69.907C235.65 72.0712 234.427 73.2255 232.654 73.2255C232.056 73.2255 231.486 73.1087 231.081 72.8545L231.424 72.1468C231.761 72.3666 232.187 72.4422 232.647 72.4422C233.932 72.4422 234.743 71.6384 234.743 70.0513V69.8246C234.372 70.3742 233.705 70.6559 232.915 70.6559C231.658 70.6559 230.751 69.907 230.751 68.7391C230.751 67.5711 231.727 66.7397 232.984 66.7397C234.688 66.7397 235.643 67.8802 235.643 69.9002L235.65 69.907ZM234.537 68.7047C234.537 68.052 234.014 67.4818 233.025 67.4818C232.201 67.4818 231.63 67.9627 231.63 68.7116C231.63 69.4604 232.18 69.9345 233.066 69.9345C233.953 69.9345 234.53 69.3986 234.53 68.7047H234.537Z" fill="#001640"/>
<path d="M236.522 69.9894C236.522 67.9283 237.629 66.7534 239.113 66.7534C240.597 66.7534 241.689 67.9283 241.689 69.9894C241.689 72.0505 240.583 73.2254 239.113 73.2254C237.642 73.2254 236.522 72.0505 236.522 69.9894ZM240.782 69.9894C240.782 68.368 240.095 67.5573 239.106 67.5573C238.116 67.5573 237.422 68.3748 237.422 69.9894C237.422 71.604 238.11 72.4215 239.106 72.4215C240.102 72.4215 240.782 71.604 240.782 69.9894Z" fill="#001640"/>
<path d="M246.986 72.3667V73.1568H242.438V72.5384L245.014 70.0513C245.68 69.3986 245.811 69.0001 245.811 68.6016C245.811 67.9489 245.351 67.5505 244.464 67.5505C243.784 67.5505 243.235 67.7703 242.843 68.2375L242.225 67.7016C242.712 67.097 243.557 66.7397 244.54 66.7397C245.859 66.7397 246.711 67.4199 246.711 68.5055C246.711 69.1238 246.532 69.6734 245.674 70.4979L243.736 72.3598H246.986V72.3667Z" fill="#001640"/>
<path d="M249.692 66.8223V73.1568H248.799V67.6124H247.37V66.8223H249.692Z" fill="#001640"/>
<path d="M251.074 69.9894C251.074 67.9283 252.18 66.7534 253.664 66.7534C255.148 66.7534 256.241 67.9283 256.241 69.9894C256.241 72.0505 255.135 73.2254 253.664 73.2254C252.194 73.2254 251.074 72.0505 251.074 69.9894ZM255.334 69.9894C255.334 68.368 254.647 67.5573 253.658 67.5573C252.668 67.5573 251.974 68.3748 251.974 69.9894C251.974 71.604 252.661 72.4215 253.658 72.4215C254.654 72.4215 255.334 71.604 255.334 69.9894Z" fill="#001640"/>
</g>
<path d="M237.944 109.337L238.652 109.804L239.428 110.298C239.957 110.628 240.5 110.944 241.043 111.253C242.135 111.865 243.248 112.456 244.382 112.971C246.656 114.008 248.992 114.854 251.369 115.383L251.479 115.41C251.52 115.417 251.568 115.431 251.52 115.424C251.486 115.424 251.445 115.424 251.348 115.424C251.19 115.431 250.874 115.479 250.496 115.706C250.125 115.932 249.878 116.283 249.796 116.482C249.706 116.695 249.713 116.791 249.713 116.805C249.734 116.846 249.754 116.667 249.748 116.461C249.748 116.255 249.713 116.001 249.672 115.733C249.486 114.647 249.15 113.397 248.751 112.174C247.968 109.714 247.034 107.186 246.106 104.699L248.758 103.277C250.345 105.572 251.761 107.921 253.004 110.463C253.609 111.748 254.206 113.047 254.639 114.586C254.749 114.977 254.845 115.389 254.921 115.85C254.99 116.317 255.052 116.819 254.983 117.533C254.948 117.877 254.866 118.309 254.626 118.825C254.399 119.326 253.932 119.951 253.272 120.35C252.606 120.755 251.946 120.858 251.451 120.879C251.19 120.886 250.977 120.879 250.778 120.851L250.572 120.824L250.435 120.803C247.487 120.405 244.636 119.601 241.97 118.467C240.63 117.904 239.318 117.293 238.047 116.592C237.415 116.235 236.79 115.87 236.172 115.479C235.862 115.28 235.553 115.087 235.251 114.881C234.935 114.668 234.66 114.469 234.296 114.194L237.93 109.33L237.944 109.337Z" fill="#DC897C"/>
<path d="M237.176 108.554C241.134 109.007 243.793 111.24 243.793 111.24L241.031 119.746C241.031 119.746 227.695 107.468 237.183 108.554H237.176Z" fill="#00A843"/>
<path opacity="0.6" d="M237.148 115.733C239.037 117.918 241.016 119.738 241.016 119.738L242.149 116.241L243.778 111.233C243.778 111.233 241.119 108.993 237.168 108.546C231.335 107.88 234.125 112.256 237.141 115.726L237.148 115.733Z" fill="white"/>
<path opacity="0.2" d="M237.148 115.733C239.037 117.918 241.016 119.739 241.016 119.739L242.149 116.242C239.724 114.373 237.161 114.524 237.161 114.524C237.113 114.936 237.113 115.348 237.141 115.733H237.148Z" fill="black"/>
<path d="M207.494 96.0078C207.494 96.0078 201.105 117.251 214.564 120.102C228.023 122.954 229.432 113.177 229.432 113.177C229.432 113.177 218.404 96.4407 207.494 96.0078Z" fill="#001640"/>
<path d="M204.334 102.879C204.334 102.879 204.994 101.656 206.175 101.58" stroke="#001640" stroke-width="0.48" stroke-linecap="round" stroke-linejoin="round"/>
<path d="M206.258 105.682C206.258 105.682 206.113 107.124 205.701 108.107C205.701 108.107 206.34 108.567 207.11 108.134L206.258 105.689V105.682Z" fill="#DE5753"/>
<path d="M204.959 104.754C205.104 105.132 205.42 105.359 205.674 105.262C205.928 105.166 206.011 104.781 205.866 104.41C205.722 104.033 205.406 103.806 205.152 103.902C204.898 103.998 204.815 104.383 204.959 104.754Z" fill="#001640"/>
<path d="M205.268 103.875H204.327C204.327 103.875 205 104.397 205.268 103.875Z" fill="#001640"/>
<path d="M218.638 108.313C218.61 108.375 218.583 108.437 218.541 108.485C218.48 108.601 218.411 108.711 218.342 108.828C217.937 109.515 217.435 110.195 216.762 110.718C214.68 112.36 212.908 112.854 211.348 112.38C211.272 112.36 211.197 112.332 211.121 112.305H211.114C208.799 111.37 207.02 108.601 205.556 104.94C204.876 103.263 204.436 101.738 204.368 100.419C204.368 100.405 204.347 100.364 204.347 100.35C204.347 100.295 204.333 100.226 204.333 100.171C204.278 98.3095 204.924 96.7843 206.504 95.5201C207.054 95.0804 207.714 94.6682 208.497 94.2903C215.402 90.9375 222.08 101.834 218.638 108.313Z" fill="#E4897B"/>
<path opacity="0.2" d="M218.343 108.828C217.937 109.515 217.436 110.195 216.763 110.717C214.681 112.36 212.908 112.854 211.349 112.38C212.613 112.044 214.124 111.37 215.258 110.01C216 109.137 217.127 108.835 218.343 108.828Z" fill="black"/>
<path d="M204.34 100.377C204.34 100.377 206.257 105.42 211.856 105.331C211.856 105.331 216.226 109.446 219.174 108.141C223.193 106.362 224.024 99.0515 219.922 93.9398C214.605 87.3167 203.007 92.0573 204.34 100.371V100.377Z" fill="#001640"/>
<path d="M208.861 105.036C208.504 104.273 208.511 102.713 209.775 102.329C211.08 101.93 213.183 104.623 210.496 106.712C210.112 107.014 209.61 106.623 208.861 105.036Z" fill="#E4897B"/>
<path d="M210.366 91.1986C210.366 91.1986 205.172 92.2223 203.489 95.3003C201.524 98.8935 201.455 101.69 206.656 103.51C206.656 103.51 213.252 97.2996 216.096 96.6125C218.94 95.9255 221.153 95.8018 221.153 95.8018C219.263 90.3948 212.468 88.9245 210.373 91.2055L210.366 91.1986Z" fill="#001640"/>
<path d="M215.402 110.855C215.402 110.855 218.975 113.328 219.909 117.409L231.046 110.91C231.046 110.91 222.327 108.917 220.823 105.544C220.823 105.544 214.997 106.265 215.402 110.848V110.855Z" fill="#E4897B"/>
<path d="M226.463 137.615C226.463 137.615 212.063 123.435 210.482 118.983C210.482 118.983 216.549 109.536 228.675 109.137C240.802 108.739 249.053 131.81 249.053 131.81L226.463 137.609V137.615Z" fill="#00A843"/>
<path opacity="0.6" d="M249.053 131.817L226.47 137.615C226.47 137.615 223.323 134.517 219.806 130.765C218.72 129.591 217.586 128.354 216.494 127.131C213.629 123.881 211.101 120.707 210.489 118.983C210.489 118.983 216.549 109.536 228.675 109.137C240.809 108.746 249.053 131.817 249.053 131.817Z" fill="white"/>
<path d="M212.97 102.906C212.97 102.906 215.079 109.914 222.486 112.243C229.892 114.572 228.03 122.122 235.21 121.236C239.03 120.762 242.3 112.985 230.586 106.128C223.757 102.136 226.409 89.0138 211.912 90.2436C211.912 90.2436 214.915 99.237 212.97 102.906Z" fill="#001640"/>
<path d="M220.177 244.437L216.749 243.654C217.264 226.491 219.745 205.708 221.936 190.105C222.28 187.66 222.616 185.351 222.939 183.194C223.097 182.17 223.242 181.188 223.386 180.239C224.094 175.561 224.705 171.864 225.083 169.576C225.358 167.907 225.523 166.993 225.523 166.993L237.869 170.009L236.983 173.128L234.063 183.42L233.733 184.595L231.795 191.39L228.511 202.96C228.731 220.432 220.177 244.437 220.177 244.437Z" fill="#E4897B"/>
<path d="M249.583 241.558L246.065 241.38C243.386 222.912 242.259 199.82 241.771 183.757C241.696 181.27 241.641 178.941 241.593 176.839C241.593 176.729 241.593 176.626 241.593 176.529C241.503 172.345 241.462 169.02 241.441 166.911C241.435 165.262 241.428 164.355 241.428 164.355L254.117 165.186L253.575 170.477L252.778 178.247L252.62 179.772L252.07 185.063L250.607 199.257C253.85 216.426 249.59 241.558 249.59 241.558H249.583Z" fill="#E4897B"/>
<path d="M250.901 240.878C250.888 240.439 245.474 240.782 245.474 240.782C245.474 240.782 242.142 244.169 238.906 244.932C235.67 245.694 237.477 247.632 241.097 247.632H250.043C252.612 247.632 251.005 245.44 250.901 240.878Z" fill="#001640"/>
<path d="M242.149 242.039C242.046 241.95 241.936 241.785 242.018 241.462C242.059 241.304 242.156 241.18 242.307 241.098C242.595 240.933 243.062 240.919 243.523 240.967C243.083 240.734 242.698 240.445 242.678 240.163C242.664 239.978 242.788 239.827 243.035 239.71C243.269 239.6 243.502 239.593 243.736 239.689C244.471 239.992 244.924 241.256 244.945 241.311C244.959 241.345 244.952 241.386 244.945 241.421C244.945 241.435 244.931 241.441 244.924 241.448C244.924 241.448 244.897 241.476 244.876 241.483C244.595 241.62 243.392 242.17 242.63 242.17C242.43 242.17 242.265 242.135 242.156 242.039H242.149ZM242.451 241.345C242.369 241.393 242.314 241.455 242.293 241.538C242.238 241.751 242.307 241.806 242.327 241.826C242.582 242.039 243.578 241.737 244.375 241.4C243.77 241.263 242.836 241.125 242.451 241.352V241.345ZM243.159 239.964C243.083 239.999 242.959 240.067 242.966 240.143C242.98 240.383 243.756 240.809 244.56 241.112C244.375 240.699 244.031 240.115 243.633 239.95C243.557 239.923 243.488 239.902 243.413 239.902C243.33 239.902 243.248 239.923 243.165 239.964H243.159Z" fill="#001640"/>
<path d="M221.922 240.878C221.908 240.439 216.494 240.782 216.494 240.782C216.494 240.782 213.162 244.169 209.926 244.932C206.69 245.694 208.497 247.632 212.118 247.632H221.063C223.633 247.632 222.025 245.44 221.922 240.878Z" fill="#001640"/>
<path d="M213.169 242.039C213.066 241.95 212.956 241.785 213.039 241.462C213.08 241.304 213.176 241.18 213.327 241.098C213.616 240.933 214.083 240.919 214.543 240.967C214.104 240.734 213.719 240.445 213.698 240.163C213.684 239.978 213.808 239.827 214.055 239.71C214.289 239.6 214.523 239.593 214.756 239.689C215.491 239.992 215.945 241.256 215.965 241.311C215.979 241.345 215.972 241.386 215.965 241.421C215.965 241.435 215.952 241.441 215.945 241.448C215.945 241.448 215.917 241.476 215.897 241.483C215.615 241.62 214.406 242.17 213.65 242.17C213.451 242.17 213.286 242.135 213.169 242.039ZM213.471 241.345C213.389 241.393 213.334 241.455 213.313 241.538C213.259 241.751 213.327 241.806 213.348 241.826C213.602 242.039 214.598 241.737 215.395 241.4C214.791 241.263 213.856 241.125 213.471 241.352V241.345ZM214.179 239.964C214.104 239.999 213.98 240.067 213.987 240.143C214.001 240.383 214.777 240.809 215.581 241.112C215.395 240.699 215.052 240.115 214.653 239.95C214.578 239.923 214.509 239.902 214.433 239.902C214.351 239.902 214.268 239.923 214.186 239.964H214.179Z" fill="#001640"/>
<path d="M223.537 172.153L226.471 151.563V137.616C234.186 131.817 249.061 131.817 249.061 131.817C249.061 131.817 260.493 147.66 254.935 173.754L240.59 175.85L239.676 170.985L237.876 175.85L223.544 172.16L223.537 172.153Z" fill="#001640"/>
<path opacity="0.2" d="M223.537 172.153L226.471 151.563V137.616C234.186 131.817 249.061 131.817 249.061 131.817C249.061 131.817 260.493 147.66 254.935 173.754L240.59 175.85L239.676 170.985L237.876 175.85L223.544 172.16L223.537 172.153Z" fill="white"/>
<path opacity="0.2" d="M239.669 170.978L242.431 162.397C242.431 162.397 245.33 161.518 249.054 155.76C249.054 155.76 248.408 165.564 239.669 170.978Z" fill="black"/>
<path opacity="0.2" d="M233.554 141.573L239.991 140.955C239.991 140.955 241.551 144.033 241.022 148.601L236.893 151.082L233.904 148.959C233.904 148.959 233.815 143.504 233.554 141.573Z" fill="black"/>
<path opacity="0.2" d="M249.054 139.993C249.054 139.993 250.256 142.72 250.957 146.581L253.245 147.55L254.475 146.018C254.475 146.018 253.636 141.525 252.235 139.333L249.061 139.993H249.054Z" fill="black"/>
<path d="M223.269 170.978L238.494 175.451L237.539 177.491L223.069 173.046L223.269 170.978Z" fill="#001640"/>
<path d="M239.991 175.156L240.245 177.031L255.175 175.156L255.402 172.778L239.991 175.156Z" fill="#001640"/>
<path d="M243.125 134.668C247.529 133.967 250.511 133.947 250.511 133.947L249.59 132.428C247.082 132.353 244.664 132.531 242.39 132.861L243.125 134.668Z" fill="#001640"/>
<path d="M229.432 136.564C227.467 137.416 226.326 138.062 226.326 138.062L226.34 139.938C227.446 139.374 228.566 138.866 229.672 138.406L229.432 136.571V136.564Z" fill="#001640"/>
<path d="M230.379 138.117C234.625 136.427 238.782 135.424 242.203 134.826L241.516 132.999C236.817 133.768 232.811 135.156 230.098 136.283L230.379 138.117Z" fill="#001640"/>
<path d="M189.102 143.497L185.2 141.93L184.54 145.613C184.54 145.613 188.058 147.749 189.521 145.207L189.095 143.497H189.102Z" fill="#E4897B"/>
<path d="M183.262 142.15L182.012 145.001L184.54 145.606L185.2 141.93L183.262 142.15Z" fill="#E4897B"/>
<path d="M248.992 103.916L248.531 99.7383L244.972 100.899C244.972 100.899 244.753 105.008 247.686 105.097L248.992 103.916Z" fill="#E4897B"/>
<path d="M247.411 98.1377L244.312 98.3782L244.972 100.893L248.531 99.7316L247.411 98.1377Z" fill="#E4897B"/>
<path opacity="0.2" d="M219.806 130.766C218.721 129.591 217.587 128.354 216.495 127.131C216.076 124.575 215.808 122.329 215.808 122.329C215.808 122.329 220.095 125.187 219.806 130.766Z" fill="black"/>
<path d="M216.206 121.14C215.8 122.851 215.319 124.404 214.818 126.018C214.309 127.612 213.725 129.179 213.128 130.745C212.537 132.311 211.877 133.857 211.156 135.383C210.805 136.145 210.434 136.908 210.043 137.664C209.857 138.041 209.644 138.412 209.445 138.79L209.143 139.354L208.985 139.642C208.895 139.8 208.799 139.965 208.703 140.109C207.892 141.284 206.958 141.964 206.085 142.5C205.199 143.029 204.333 143.421 203.482 143.751C201.771 144.397 200.088 144.809 198.411 145.139C195.051 145.757 191.767 146.08 188.387 146.094L188.112 143.098C189.644 142.768 191.225 142.418 192.757 142.019C194.296 141.642 195.821 141.222 197.298 140.735C198.768 140.261 200.211 139.725 201.489 139.093C202.128 138.783 202.719 138.44 203.2 138.083C203.674 137.732 204.031 137.354 204.107 137.162C204.12 137.135 204.12 137.121 204.127 137.107L204.244 136.846L204.485 136.317C204.643 135.96 204.808 135.616 204.959 135.252C205.261 134.538 205.57 133.823 205.859 133.088C206.436 131.638 206.985 130.161 207.514 128.677C208.044 127.193 208.518 125.688 208.992 124.177C209.473 122.686 209.912 121.126 210.318 119.684L216.212 121.147L216.206 121.14Z" fill="#DC897C"/>
<path d="M212.839 115.967C209.473 118.165 207.68 123.881 207.109 126.678L214.09 131.817L217.614 128.382C219.043 120.494 214.117 115.135 212.839 115.967Z" fill="#00A843"/>
<path opacity="0.6" d="M212.839 115.967C209.473 118.165 207.68 123.881 207.109 126.678L214.09 131.817L217.614 128.382C219.043 120.494 214.117 115.135 212.839 115.967Z" fill="white"/>
<path d="M246.917 105.255L241.936 105.785C241.654 105.812 241.421 105.578 241.414 105.249L241.111 94.6887C241.105 94.3658 241.324 94.0773 241.599 94.0498L246.58 93.5207C246.862 93.4933 247.096 93.7269 247.103 94.0566L247.405 104.617C247.412 104.939 247.192 105.228 246.917 105.255Z" fill="#001640"/>
<path opacity="0.6" d="M246.917 105.255L241.936 105.785C241.654 105.812 241.421 105.578 241.414 105.249L241.111 94.6887C241.105 94.3658 241.324 94.0773 241.599 94.0498L246.58 93.5207C246.862 93.4933 247.096 93.7269 247.103 94.0566L247.405 104.617C247.412 104.939 247.192 105.228 246.917 105.255Z" fill="white"/>
<path d="M246.478 105.306L241.496 105.835C241.215 105.862 240.981 105.629 240.974 105.299L240.672 94.739C240.665 94.4161 240.885 94.1276 241.16 94.1001L246.141 93.571C246.423 93.5436 246.656 93.7772 246.663 94.1069L246.965 104.667C246.972 104.99 246.752 105.278 246.478 105.306Z" fill="#001640"/>
<path opacity="0.7" d="M246.478 105.306L241.496 105.835C241.215 105.862 240.981 105.629 240.974 105.299L240.672 94.739C240.665 94.4161 240.885 94.1276 241.16 94.1001L246.141 93.571C246.423 93.5436 246.656 93.7772 246.663 94.1069L246.965 104.667C246.972 104.99 246.752 105.278 246.478 105.306Z" fill="white"/>
<path d="M246.148 93.7749L244.843 93.9123L244.678 94.3108L242.658 94.5237L242.465 94.1596L241.16 94.297C240.981 94.3176 240.837 94.5031 240.844 94.7161L241.146 105.276C241.146 105.489 241.304 105.64 241.49 105.62L246.471 105.091C246.65 105.07 246.794 104.884 246.787 104.671L246.485 94.1115C246.485 93.8985 246.327 93.7474 246.141 93.768L246.148 93.7749Z" fill="#00A843"/>
<path opacity="0.8" d="M245.481 97.5879L241.819 97.9795C241.641 98.0001 241.489 97.8489 241.483 97.6428L241.455 96.626C241.455 96.4199 241.592 96.2344 241.771 96.2207L245.433 95.829C245.612 95.8084 245.763 95.9596 245.77 96.1657L245.797 97.1825C245.797 97.3886 245.66 97.5741 245.481 97.5879Z" fill="white"/>
</g>
<defs>
<clipPath id="clip0_47_11335">
<rect width="343.523" height="256" fill="white"/>
</clipPath>
</defs>
</svg>
