<svg width="249" height="256" viewBox="0 0 249 256" fill="none" xmlns="http://www.w3.org/2000/svg">
<g clip-path="url(#clip0_47_11969)">
<path d="M204.827 207.154H224.879V200.773H204.827V207.154Z" fill="#EBEBEB"/>
<path d="M82.9611 104.296H103.013V97.9143H82.9611V104.296Z" fill="#EBEBEB"/>
<path d="M216.011 215.201C219.341 215.144 227.879 215.001 231.095 214.967L236.062 214.944L235.8 215.207L235.777 208.825L236.062 209.11C232.732 209.099 224.24 209.07 221.024 209.025L216.011 208.962L216.148 208.825L216.011 215.207V215.201ZM216.011 215.201L215.874 208.819V208.688H216.011C218.514 208.654 223.533 208.597 226.037 208.58L236.062 208.54H236.348V208.825L236.325 215.207V215.469H236.062L231.004 215.446C227.81 215.412 219.307 215.27 216.011 215.212V215.201Z" fill="#EBEBEB"/>
<path d="M120.663 167.633C123.994 167.576 132.531 167.433 135.748 167.399L140.715 167.376L140.452 167.638L140.43 161.257L140.715 161.542C137.384 161.531 128.893 161.502 125.676 161.456L120.663 161.394L120.8 161.257L120.663 167.638V167.633ZM120.663 167.633L120.526 161.251V161.12H120.663C123.167 161.086 128.185 161.029 130.689 161.012L140.715 160.972H141V161.257L140.977 167.638V167.901H140.715L135.656 167.878C132.463 167.844 123.96 167.701 120.663 167.644V167.633Z" fill="#EBEBEB"/>
<path d="M131.847 175.68C135.177 175.623 143.715 175.48 146.931 175.446L151.898 175.423L151.636 175.685L151.613 169.304L151.898 169.589C148.568 169.577 140.076 169.549 136.86 169.503L131.847 169.441L131.984 169.304L131.847 175.685V175.68ZM131.847 175.68L131.71 169.298V169.167H131.847C134.35 169.133 139.369 169.076 141.873 169.058L151.898 169.019H152.184V169.304L152.161 175.685V175.948H151.898L146.84 175.925C143.646 175.891 135.143 175.748 131.847 175.691V175.68Z" fill="#EBEBEB"/>
<path d="M142.985 167.627H163.036V161.246H142.985V167.627Z" fill="#EBEBEB"/>
<path d="M0.136883 215.201H20.1885V208.82H0.136883V215.201Z" fill="#EBEBEB"/>
<path d="M11.3263 10.2827L31.3779 10.2827V3.90111L11.3263 3.90111V10.2827Z" fill="#EBEBEB"/>
<path d="M0.136871 18.3295L10.2311 18.1641L15.2212 18.0957L20.1885 18.0729L19.9261 18.3352L19.9033 11.9536L20.1885 12.2388L10.1627 12.1988L5.14977 12.1532L0.136871 12.0905L0.273742 11.9536L0.136871 18.3352V18.3295ZM0.136871 18.3295L0 11.9479V11.8167H0.136871L5.14977 11.754L10.1627 11.7084L20.1885 11.6685H20.4736V11.9536L20.4508 18.3352V18.5975H20.1885L15.1299 18.5747L10.0942 18.5063L0.136871 18.3409V18.3295Z" fill="#EBEBEB"/>
<path d="M204.821 10.2826L214.916 10.1172L219.906 10.0488L224.873 10.026L224.611 10.2883L224.588 3.90673L224.873 4.19188L214.847 4.15196L209.834 4.10633L204.821 4.0436L204.958 3.90673L204.821 10.2883V10.2826ZM204.821 10.2826L204.685 3.90103V3.76986H204.821L209.834 3.70713L214.847 3.6615L224.873 3.62158H225.158V3.90673L225.135 10.2883V10.5507H224.873L219.815 10.5279L214.779 10.4594L204.821 10.294V10.2826Z" fill="#EBEBEB"/>
<path d="M164.884 230.023H231.471L233.616 187.77H162.739L164.884 230.023Z" fill="#EBEBEB"/>
<path d="M167.416 192.703H227.257L226.35 206.852H168.192L167.416 192.703Z" stroke="#DBDBDB" stroke-miterlimit="10"/>
<path d="M169.247 211.004L169.88 223.727H225.558L226.351 211.004H169.247Z" stroke="#DBDBDB" stroke-miterlimit="10"/>
<path d="M203.79 201.109H191.813L191.42 198.087H204.177L203.79 201.109Z" stroke="#DBDBDB" stroke-miterlimit="10"/>
<path d="M203.79 218.874H191.813L191.42 215.857H204.177L203.79 218.874Z" stroke="#DBDBDB" stroke-miterlimit="10"/>
<path d="M174.117 230.023L173.473 234.625L172.172 243.875H169.629V230.023H174.117Z" fill="#EBEBEB"/>
<path d="M174.117 230.023L173.473 234.625H169.629V230.023H174.117Z" fill="#DBDBDB"/>
<path d="M222.238 230.023L222.888 234.625L224.189 243.875H226.732V230.023H222.238Z" fill="#EBEBEB"/>
<path d="M222.238 230.023L222.888 234.625H226.732V230.023H222.238Z" fill="#DBDBDB"/>
<path d="M237.135 0.285156H141.861V82.2024H237.135V0.285156Z" stroke="#EBEBEB" stroke-miterlimit="10"/>
<path d="M146.361 3.15364C146.361 3.79807 145.836 4.31704 145.198 4.31704C144.559 4.31704 144.034 3.79237 144.034 3.15364C144.034 2.51491 144.559 1.99023 145.198 1.99023C145.836 1.99023 146.361 2.51491 146.361 3.15364Z" fill="#A6A6A6"/>
<path d="M151.117 3.15364C151.117 3.79807 150.592 4.31704 149.953 4.31704C149.315 4.31704 148.79 3.79237 148.79 3.15364C148.79 2.51491 149.315 1.99023 149.953 1.99023C150.592 1.99023 151.117 2.51491 151.117 3.15364Z" fill="#EBEBEB"/>
<path d="M155.88 3.15364C155.88 3.79807 155.355 4.31704 154.716 4.31704C154.077 4.31704 153.553 3.79237 153.553 3.15364C153.553 2.51491 154.077 1.99023 154.716 1.99023C155.355 1.99023 155.88 2.51491 155.88 3.15364Z" fill="#00A843"/>
<path d="M141.861 5.99951H237.135" stroke="#EBEBEB" stroke-miterlimit="10"/>
<path d="M204.69 180.579C205.157 183.772 204.981 187.069 204.205 190.194C203.84 191.659 203.338 193.068 202.734 194.443C201.97 196.199 201.171 197.921 201.359 199.843C201.547 199.969 200.909 199.946 200.886 199.758C195.742 196.832 189.144 196.29 185.186 191.506C183.309 189.236 182.363 186.361 181.918 183.487C181.433 180.356 181.296 176.889 182.106 173.809C182.785 171.197 184.313 168.682 186.765 167.405C189.298 166.087 192.611 166.196 195.274 167.028C201.023 168.813 203.88 175.018 204.696 180.579H204.69Z" fill="#00A843"/>
<path d="M207.33 218.657C206.629 216.319 205.927 213.975 205.209 211.643C203.795 207.069 202.329 202.518 200.704 198.013C199.728 195.315 198.702 192.646 197.624 190C197.806 188.34 197.881 186.681 198.24 185.027C198.668 183.031 199.295 181.109 199.877 179.153C199.911 179.033 199.717 178.97 199.671 179.085C198.514 181.771 197.008 185.215 196.974 188.397C195.719 185.403 194.373 182.455 192.93 179.546C192.851 177.071 192.759 174.67 193.159 172.178C193.176 172.064 193.005 172.03 192.987 172.144C192.6 174.237 192.332 176.484 192.486 178.651C191.379 176.467 190.216 174.311 188.978 172.19C188.864 171.996 188.602 172.19 188.699 172.384C190.632 176.108 192.423 179.906 194.105 183.755C191.773 181.691 188.955 180.122 186.041 179.085C185.916 179.039 185.819 179.221 185.944 179.278C189.258 180.664 192.041 182.62 194.67 185.056C195.879 187.873 197.031 190.719 198.126 193.581C194.909 190.428 190.501 188.352 186.241 187.24C186.098 187.2 186.058 187.422 186.195 187.468C191.128 188.951 194.955 191.745 198.707 195.104C199.141 196.262 199.569 197.425 199.991 198.583C201.582 202.991 203.087 207.428 204.53 211.888C205.22 214.027 205.905 216.165 206.572 218.309C207.29 220.619 207.855 223.054 208.79 225.279C208.882 225.49 209.264 225.444 209.212 225.187C208.79 222.98 207.986 220.807 207.342 218.652L207.33 218.657Z" fill="#001640"/>
<path d="M198.799 176.079C197.875 177.493 197.265 179.045 196.946 180.699C196.94 180.738 197.003 180.767 197.02 180.721C197.596 179.164 198.269 177.665 199.027 176.187C199.107 176.039 198.885 175.942 198.799 176.073V176.079Z" fill="#001640"/>
<path d="M189.623 186.795C188.294 186.037 186.526 185.438 185.009 185.238C184.969 185.238 184.941 185.295 184.986 185.312C185.728 185.62 186.509 185.837 187.262 186.122C188.015 186.413 188.75 186.767 189.514 187.029C189.674 187.086 189.782 186.875 189.628 186.789L189.623 186.795Z" fill="#001640"/>
<path d="M187.034 173.901C186.566 173.593 186.07 173.193 185.551 172.982C185.471 172.948 185.397 173.051 185.465 173.114C185.876 173.496 186.452 173.775 186.931 174.06C187.028 174.117 187.131 173.958 187.039 173.895L187.034 173.901Z" fill="#001640"/>
<path d="M222.033 198.052C218.326 199.153 214.602 200.168 210.901 201.257C210.581 201.354 204.314 189.355 206.578 183.168C208.671 177.447 213.461 173.165 219.17 171.22C221.816 170.319 225.067 169.566 227.861 170.182C230.348 170.729 232.099 172.765 232.908 175.104C234.009 178.28 233.644 182.067 233.045 185.312C232.492 188.317 231.391 191.283 229.401 193.644C227.434 195.982 224.924 197.197 222.033 198.058V198.052Z" fill="#00A843"/>
<path d="M227.399 186.646C225.038 187.838 222.649 188.699 220.134 189.504C218.56 190.011 216.792 190.467 215.286 191.26C216.849 187.77 218.566 184.359 220.39 180.972C222.786 180.282 225.301 179.198 227.109 177.505C227.205 177.413 227.08 177.271 226.972 177.351C224.998 178.748 222.82 179.586 220.636 180.527C221.126 179.615 221.622 178.708 222.13 177.801C222.272 177.55 221.925 177.299 221.753 177.544C219.814 180.345 218.064 183.316 216.49 186.384C216.096 183.675 215.959 181.04 216.108 178.286C216.108 178.217 216.011 178.212 215.999 178.28C215.543 181.194 215.56 184.274 216.09 187.182C214.79 189.777 213.61 192.435 212.543 195.121C212.121 193.507 211.574 191.916 211.203 190.285C210.678 187.941 210.427 185.551 210.673 183.15C210.678 183.082 210.576 183.076 210.564 183.145C209.846 187.399 210.502 192.195 212.121 196.239C211.5 197.858 210.912 199.484 210.37 201.109C207.604 209.447 205.899 218.041 205.454 226.812C205.443 227.018 205.745 227.035 205.768 226.835C206.777 218.229 208.551 209.658 211.289 201.434C212.361 198.206 213.598 195.07 214.956 191.99C217.145 191.346 219.324 190.467 221.474 189.72C223.573 188.996 225.723 188.152 227.479 186.778C227.548 186.726 227.474 186.612 227.394 186.652L227.399 186.646Z" fill="#001640"/>
<path d="M230.856 183.156C228.592 183.96 226.442 185.089 224.177 185.905C224.069 185.945 224.132 186.11 224.24 186.087C226.635 185.591 229.014 184.85 230.941 183.281C231.015 183.219 230.935 183.122 230.856 183.15V183.156Z" fill="#001640"/>
<path d="M212.355 178.269C212.384 178.149 212.207 178.081 212.173 178.206C211.551 180.293 211.124 182.512 211.728 184.645C211.751 184.73 211.882 184.73 211.888 184.633C211.996 182.483 211.876 180.39 212.355 178.269Z" fill="#001640"/>
<path d="M221.719 173.444C220.961 174.413 220.687 175.788 220.738 176.997C220.738 177.077 220.87 177.122 220.892 177.031C221.166 175.833 221.628 174.75 221.999 173.587C222.05 173.415 221.833 173.313 221.725 173.45L221.719 173.444Z" fill="#001640"/>
<path d="M177.96 203.345C179.044 206.79 181.627 211.557 185.716 211.597C188.368 211.62 191.037 211.306 193.689 211.272C196.535 211.227 199.386 211.232 202.221 211.403C202.455 211.415 201.879 202.889 195.047 198.731C193.13 197.568 190.792 197.197 188.619 196.73C186.133 196.188 183.572 195.823 181.023 195.937C179.455 196 178.149 196.33 177.59 197.939C177.008 199.621 177.447 201.708 177.966 203.345H177.96Z" fill="#00A843"/>
<path d="M180.903 199.033C182.562 199.461 184.239 199.952 185.904 200.482C185.459 200.02 185.026 199.552 184.524 199.136C183.805 198.543 183.018 198.064 182.254 197.545C182.192 197.499 182.226 197.38 182.311 197.408C183.828 198.001 185.402 199.25 186.343 200.613C188.419 201.286 190.478 202.028 192.457 202.837C193.86 203.413 195.16 204.103 196.375 204.902C195.941 204.058 195.542 203.191 194.96 202.438C194.054 201.263 192.828 200.607 191.636 199.775C191.522 199.695 191.619 199.535 191.744 199.592C194.424 200.784 196.055 202.718 197.076 205.375C198.479 206.373 199.762 207.542 200.954 208.894C205.477 214.032 209.041 220.864 209.052 227.839C209.052 228.005 208.784 228.05 208.756 227.879C207.473 220.95 204.735 214.728 200.133 209.35C199.808 208.974 199.477 208.614 199.141 208.267C197.897 208.135 196.666 207.97 195.405 207.987C193.951 208.01 192.508 208.204 191.06 208.318C188.676 208.512 186.035 208.54 183.88 207.337C183.783 207.286 183.851 207.12 183.954 207.16C188.75 208.905 193.786 206.693 198.593 207.731C196.54 205.763 194.208 204.28 191.499 203.157C191.35 203.094 191.202 203.037 191.06 202.98C187.98 203.351 184.729 204.155 181.73 203.151C181.638 203.123 181.678 202.986 181.77 203.008C184.667 203.733 187.45 202.82 190.307 202.678C187.193 201.463 184.022 200.499 180.897 199.296C180.635 199.193 180.629 198.954 180.914 199.028L180.903 199.033Z" fill="#001640"/>
<path d="M179.546 202.062C181.051 202.307 182.517 202.319 184.028 202.404C184.062 202.404 184.074 202.461 184.034 202.467C182.563 202.798 180.949 202.592 179.511 202.176C179.437 202.153 179.472 202.051 179.54 202.062H179.546Z" fill="#001640"/>
<path d="M189.668 199.107C190.484 199.393 191.248 200.083 191.887 200.653C191.967 200.721 191.858 200.864 191.773 200.801C191.396 200.528 191.008 200.271 190.621 200.02C190.267 199.792 189.868 199.609 189.543 199.336C189.44 199.25 189.549 199.073 189.674 199.113L189.668 199.107Z" fill="#001640"/>
<path d="M213.804 210.205C213.752 210.319 213.918 210.428 213.98 210.308C213.98 210.308 213.982 210.306 213.986 210.302C214.009 210.337 214.043 210.365 214.095 210.371C216.855 210.97 219.632 211.574 222.444 211.825C224.702 212.025 227.308 212.15 229.287 210.838C231.968 209.059 233.73 204.309 232.281 201.286C230.565 197.699 225.398 199.649 222.809 200.921C218.822 202.866 215.617 206.156 213.804 210.2V210.205Z" fill="#00A843"/>
<path d="M211.802 211.865C213.324 210.376 215.007 209.139 216.786 208.067C218.007 205.991 219.883 204.269 221.845 202.911C221.942 202.843 222.027 202.997 221.936 203.065C220.248 204.365 218.93 205.888 217.676 207.548C219.672 206.436 221.782 205.517 223.932 204.702C224.679 203.328 225.899 202.044 227.291 201.337C227.319 201.326 227.354 201.36 227.325 201.383C226.11 202.335 225.141 203.316 224.291 204.565C225.563 204.092 226.846 203.647 228.129 203.225C228.243 203.185 228.289 203.362 228.181 203.407C225.899 204.303 223.561 205.244 221.297 206.327C224.154 206.709 226.726 206.801 229.629 206.304C229.703 206.293 229.738 206.401 229.663 206.424C226.858 207.223 223.647 207.371 220.818 206.555C219.375 207.263 217.967 208.038 216.626 208.905C217.75 208.757 218.879 208.956 220.014 209.184C221.999 209.578 223.938 209.926 225.974 209.857C226.048 209.857 226.071 209.977 225.991 209.994C222.535 210.587 219.267 209.019 215.839 209.424C214.573 210.297 213.37 211.26 212.269 212.338C210.119 214.448 208.391 216.975 207.068 219.678C205.625 222.615 204.844 225.723 203.681 228.757C203.629 228.888 203.447 228.837 203.47 228.7C204.468 222.723 207.445 216.131 211.802 211.865Z" fill="#001640"/>
<path d="M222.221 203.664C222.421 203.253 222.774 202.9 223.105 202.592C223.396 202.318 223.75 201.97 224.126 201.827C224.16 201.816 224.177 201.862 224.16 201.885C223.875 202.204 223.482 202.443 223.179 202.751C222.871 203.059 222.615 203.424 222.307 203.727C222.261 203.766 222.198 203.715 222.227 203.664H222.221Z" fill="#001640"/>
<path d="M227.924 205.518C228.437 205.387 228.979 205.398 229.498 205.29C230.023 205.181 230.513 204.993 231.026 204.833C231.095 204.811 231.135 204.913 231.072 204.947C230.234 205.449 228.905 205.871 227.924 205.677C227.844 205.66 227.85 205.535 227.924 205.518Z" fill="#001640"/>
<path d="M197.562 221.332L198.012 226.482L199.552 243.876H213.176L215.098 226.482L215.668 221.332H197.562Z" fill="#37474F"/>
<path d="M197.562 221.332L198.012 226.482H215.098L215.668 221.332H197.562Z" fill="#001640"/>
<path d="M196.21 224.104H217.015V219.923H196.21V224.104Z" fill="#37474F"/>
<path d="M2.58301 243.875L31.4571 243.739L60.3369 243.687L118.096 243.59L175.856 243.687L204.736 243.733L233.616 243.875L204.736 244.012L175.856 244.064L118.096 244.161L60.3369 244.064L31.4571 244.012L2.58301 243.875Z" fill="#001640"/>
<path d="M223.111 10.5674H13.0879V143.435H223.111V10.5674Z" fill="white"/>
<path d="M223.111 143.435C223.076 143.469 13.0423 143.498 13.0023 143.52C12.9567 143.492 12.9795 10.6187 12.9453 10.5674V10.4248H13.0879C13.0879 10.4248 223.139 10.5275 223.168 10.5103C223.213 10.5389 223.076 143.395 223.111 143.435ZM223.111 143.435C223.111 143.435 222.979 10.3222 223.111 10.6244L13.0879 10.71L13.2305 10.5674C13.2134 10.5218 13.2932 143.817 13.0879 143.349L223.111 143.435Z" fill="#001640"/>
<path d="M223.111 10.5674H13.0879V15.6772H223.111V10.5674Z" fill="#001640"/>
<path d="M18.0156 13.1221C18.0156 13.6924 17.5537 14.1543 16.9834 14.1543C16.4131 14.1543 15.9512 13.6924 15.9512 13.1221C15.9512 12.5518 16.4131 12.0898 16.9834 12.0898C17.5537 12.0898 18.0156 12.5518 18.0156 13.1221Z" fill="#00A843"/>
<path d="M22.2246 13.1221C22.2246 13.6924 21.7627 14.1543 21.1924 14.1543C20.6221 14.1543 20.1602 13.6924 20.1602 13.1221C20.1602 12.5518 20.6221 12.0898 21.1924 12.0898C21.7627 12.0898 22.2246 12.5518 22.2246 13.1221Z" fill="white"/>
<path d="M26.4277 13.1221C26.4277 13.6924 25.9658 14.1543 25.3955 14.1543C24.8252 14.1543 24.3633 13.6924 24.3633 13.1221C24.3633 12.5518 24.8252 12.0898 25.3955 12.0898C25.9658 12.0898 26.4277 12.5518 26.4277 13.1221Z" fill="#455A64"/>
<path d="M76.6703 79.9834H54.9648V108.447H76.6703V79.9834Z" fill="#EBEBEB"/>
<path d="M102.807 79.9834H81.1016V108.447H102.807V79.9834Z" fill="#EBEBEB"/>
<path d="M128.95 79.9834H107.244V108.447H128.95V79.9834Z" fill="#EBEBEB"/>
<path d="M155.091 79.9834H133.386V108.447H155.091V79.9834Z" fill="#EBEBEB"/>
<path d="M181.234 79.9834H159.528V108.447H181.234V79.9834Z" fill="#EBEBEB"/>
<path d="M68.9544 92.7467C69.9981 93.7676 70.5056 95.1249 70.5056 96.4879C70.5056 97.8509 69.9753 99.1854 68.9544 100.206C67.9336 101.25 66.5763 101.757 65.2361 101.757H65.1962C63.8788 101.757 62.4987 101.25 61.5007 100.206C61.0102 99.7614 61.0102 98.9972 61.5007 98.5067C61.9455 98.0391 62.7325 98.0391 63.2001 98.5067C63.7533 99.0827 64.4776 99.3565 65.2418 99.3565C65.9661 99.3565 66.7075 99.0827 67.2606 98.5067C67.8138 97.9535 68.1104 97.2122 68.1104 96.4879C68.1104 95.7237 67.8366 94.9994 67.2606 94.4462C66.7075 93.8702 65.9832 93.6193 65.2418 93.6193C64.5004 93.6193 63.7533 93.8759 63.2001 94.4462C62.7325 94.9139 61.9683 94.9139 61.5007 94.4462C61.4151 94.3607 61.3524 94.2523 61.2668 94.1725C61.2668 94.1326 61.2668 94.1098 61.244 94.1098C61.244 94.0698 61.2212 94.0242 61.2041 94.0014C61.2041 93.9387 61.1813 93.893 61.1813 93.8531C61.1813 93.8303 61.1585 93.8303 61.1585 93.8132C61.1357 93.6877 61.1357 93.5566 61.1585 93.4539L61.7972 87.9506C61.8599 87.5913 62.0538 87.2947 62.3276 87.1008C62.3675 87.078 62.3903 87.078 62.4131 87.0609C62.4359 87.0381 62.4531 87.0381 62.4759 87.021C62.647 86.9354 62.818 86.8955 63.029 86.8955H69.2966C69.9753 86.8955 70.5056 87.4259 70.5056 88.1045C70.5056 88.7433 69.9753 89.2965 69.2966 89.2965H64.067L63.8104 91.4008C64.278 91.2754 64.7684 91.2069 65.2361 91.2069C66.5763 91.2069 67.9336 91.7145 68.9544 92.7581V92.7467Z" fill="#C7C7C7"/>
<path d="M95.0856 92.7238C96.1292 93.7446 96.6368 95.1019 96.6368 96.4421C96.6368 97.7823 96.1292 99.1396 95.0856 100.183C94.0648 101.204 92.7075 101.734 91.3445 101.734C89.9814 101.734 88.647 101.204 87.6261 100.183C87.1585 99.7156 87.1585 98.9514 87.6261 98.4838C88.0938 98.0162 88.858 98.0162 89.3256 98.4838C89.8788 99.037 90.6031 99.3107 91.3445 99.3107C92.0858 99.3107 92.8101 99.037 93.3861 98.4838C93.9621 97.9078 94.2359 97.1892 94.2359 96.4421C94.2359 95.6951 93.9621 94.9765 93.3861 94.4233C92.8329 93.8473 92.1087 93.5964 91.3673 93.5736C91.0251 93.5964 90.7114 93.4481 90.4947 93.1915C90.4947 93.1915 90.4871 93.1838 90.4719 93.1686C89.9814 92.701 89.9815 91.9596 90.432 91.4692L92.5991 89.2564H89.1545C88.4987 89.2564 87.9626 88.726 87.9626 88.0474C87.9626 87.3687 88.493 86.8555 89.1545 86.8555H95.4221C96.1007 86.8555 96.6311 87.3858 96.6311 88.0474C96.6311 88.2584 96.5684 88.4523 96.4828 88.6234C96.4201 88.7317 96.3573 88.8344 96.2718 88.9199L93.5971 91.6802C94.1503 91.9368 94.6579 92.2733 95.0856 92.7238Z" fill="#C7C7C7"/>
<path d="M121.227 92.7238C122.265 93.7446 122.778 95.1019 122.778 96.4421C122.778 97.7823 122.271 99.1396 121.227 100.183C120.206 101.204 118.849 101.734 117.486 101.734C116.123 101.734 114.789 101.204 113.768 100.183C113.3 99.7156 113.3 98.9514 113.768 98.4838C114.235 98.0162 115 98.0162 115.467 98.4838C116.02 99.037 116.745 99.3107 117.486 99.3107C118.227 99.3107 118.952 99.037 119.528 98.4838C120.104 97.9078 120.377 97.1892 120.377 96.4421C120.377 95.6951 120.104 94.9765 119.528 94.4233C118.975 93.8473 118.25 93.5964 117.509 93.5736C117.167 93.5964 116.853 93.4481 116.636 93.1915C116.636 93.1915 116.629 93.1838 116.613 93.1686C116.123 92.701 116.123 91.9596 116.574 91.4692L118.741 89.2564H115.296C114.64 89.2564 114.104 88.726 114.104 88.0474C114.104 87.3687 114.635 86.8555 115.296 86.8555H121.564C122.242 86.8555 122.773 87.3858 122.773 88.0474C122.773 88.2584 122.71 88.4523 122.624 88.6234C122.562 88.7317 122.499 88.8344 122.413 88.9199L119.739 91.6802C120.292 91.9368 120.799 92.2733 121.227 92.7238Z" fill="#C7C7C7"/>
<path d="M149.32 96.6991C149.32 99.4821 147.045 101.758 144.262 101.758C141.478 101.758 139.163 99.4821 139.163 96.6991C139.163 94.9368 140.058 93.3856 141.439 92.4732C140.994 91.8972 140.737 91.1558 140.737 90.3688C140.737 88.4583 142.311 86.8843 144.262 86.8843C146.212 86.8843 147.746 88.4583 147.746 90.3688C147.746 91.1558 147.489 91.8972 147.045 92.4732C148.402 93.3856 149.32 94.9368 149.32 96.6991ZM147.005 96.6991C147.005 95.1878 145.773 93.9388 144.262 93.9388C142.75 93.9388 141.501 95.1935 141.478 96.6991C141.501 98.2103 142.733 99.4422 144.262 99.4422C145.79 99.4422 147.005 98.2103 147.005 96.6991ZM143.052 90.3688C143.052 91.0246 143.583 91.5778 144.262 91.5778C144.9 91.5778 145.431 91.0246 145.431 90.3688C145.431 89.7129 144.9 89.1997 144.262 89.1997C143.583 89.1997 143.052 89.7301 143.052 90.3688Z" fill="#C7C7C7"/>
<path d="M133.528 118.404H102.664V128.077H133.528V118.404Z" fill="#00A843"/>
<path d="M109.246 123.988C109.331 123.879 109.491 123.868 109.593 123.954C109.804 124.125 110.169 124.324 110.506 124.324C110.745 124.324 110.962 124.25 111.105 124.147C111.247 124.045 111.31 123.925 111.31 123.805C111.31 123.743 111.293 123.703 111.264 123.651C111.236 123.606 111.19 123.554 111.122 123.509C110.985 123.417 110.751 123.338 110.466 123.286H110.455C110.232 123.246 110.021 123.184 109.839 123.098C109.656 123.013 109.502 122.893 109.394 122.727C109.32 122.613 109.286 122.476 109.286 122.334C109.286 122.049 109.445 121.798 109.668 121.638C109.89 121.478 110.187 121.387 110.495 121.387C110.951 121.387 111.293 121.61 111.538 121.769C111.647 121.843 111.681 121.997 111.607 122.111C111.532 122.226 111.384 122.26 111.264 122.186C111.019 122.02 110.785 121.878 110.495 121.878C110.278 121.878 110.09 121.946 109.958 122.037C109.827 122.134 109.776 122.237 109.776 122.34C109.776 122.397 109.787 122.437 109.81 122.471C109.833 122.511 109.879 122.551 109.941 122.596C110.067 122.682 110.284 122.762 110.54 122.807H110.552C110.797 122.853 111.019 122.916 111.213 123.007C111.407 123.104 111.584 123.229 111.692 123.406C111.761 123.52 111.806 123.663 111.806 123.811C111.806 124.119 111.635 124.381 111.396 124.552C111.162 124.723 110.848 124.826 110.512 124.826C109.993 124.826 109.559 124.564 109.291 124.347C109.189 124.261 109.171 124.102 109.251 123.999L109.246 123.988Z" fill="white"/>
<path d="M113.922 124.82C113.152 124.82 112.542 124.199 112.542 123.44V121.741C112.542 121.593 112.656 121.479 112.804 121.479C112.953 121.479 113.072 121.593 113.072 121.741V123.44C113.072 123.908 113.454 124.29 113.922 124.29C114.39 124.29 114.772 123.908 114.772 123.44V121.741C114.772 121.593 114.892 121.479 115.04 121.479C115.188 121.479 115.302 121.593 115.302 121.741V123.44C115.302 124.199 114.686 124.82 113.922 124.82Z" fill="white"/>
<path d="M116.42 124.558V121.741C116.42 121.593 116.54 121.479 116.682 121.479H117.361C117.863 121.479 118.268 121.883 118.268 122.385C118.268 122.591 118.199 122.779 118.085 122.933C118.37 123.115 118.57 123.435 118.57 123.8C118.57 124.37 118.114 124.826 117.549 124.826H116.705C116.694 124.826 116.694 124.826 116.694 124.826C116.551 124.826 116.431 124.706 116.431 124.564L116.42 124.558ZM116.95 122.773H117.361C117.572 122.773 117.737 122.596 117.737 122.385C117.737 122.174 117.572 122.009 117.361 122.009H116.95V122.773ZM116.95 124.29H117.549C117.823 124.29 118.04 124.068 118.04 123.794C118.04 123.52 117.817 123.309 117.549 123.303H116.95V124.29Z" fill="white"/>
<path d="M122.135 121.741V124.558C122.135 124.701 122.009 124.82 121.867 124.82C121.724 124.82 121.604 124.701 121.604 124.558V122.545L120.914 123.503C120.863 123.577 120.783 123.611 120.698 123.611H120.686C120.601 123.611 120.521 123.572 120.464 123.503L119.779 122.545V124.558C119.779 124.701 119.66 124.82 119.511 124.82C119.363 124.82 119.249 124.701 119.249 124.558V121.741C119.249 121.598 119.369 121.479 119.511 121.479H119.528C119.603 121.479 119.688 121.518 119.739 121.587L120.692 122.904L121.644 121.587C121.696 121.513 121.775 121.479 121.861 121.479C122.004 121.479 122.129 121.598 122.129 121.741H122.135Z" fill="white"/>
<path d="M123.326 121.741C123.326 121.593 123.44 121.479 123.589 121.479C123.737 121.479 123.857 121.593 123.857 121.741V124.558C123.857 124.706 123.731 124.82 123.589 124.82C123.446 124.82 123.326 124.706 123.326 124.558V121.741Z" fill="white"/>
<path d="M126.793 122.009H126.035V124.558C126.035 124.706 125.921 124.82 125.773 124.82C125.624 124.82 125.51 124.706 125.51 124.558V122.009H124.757C124.609 122.009 124.495 121.883 124.495 121.741C124.495 121.598 124.609 121.479 124.757 121.479H126.799C126.942 121.479 127.061 121.593 127.061 121.741C127.061 121.889 126.942 122.009 126.799 122.009H126.793Z" fill="white"/>
<path d="M122.124 33.8638V38.2038H120.898V33.8638C120.898 32.21 119.643 30.8698 118.104 30.8698C116.564 30.8698 115.309 32.21 115.309 33.8638V38.2038H114.083V33.8638C114.083 31.4971 115.885 29.5752 118.109 29.5752C120.333 29.5752 122.136 31.4971 122.136 33.8638H122.124Z" fill="#EBEBEB"/>
<path d="M114.076 34.9932L115.302 35.0445V38.2039H114.076V34.9932Z" fill="#C7C7C7"/>
<path d="M122.123 35.3181V38.2038H120.896V35.2725L122.123 35.3181Z" fill="#C7C7C7"/>
<path d="M123.697 36.6011H112.502V45.8912H123.697V36.6011Z" fill="#00A843"/>
<path d="M118.57 41.1807L119.037 43.4049H117.047L117.515 41.1807C117.235 41.004 117.047 40.696 117.047 40.3424C117.047 39.7892 117.492 39.3501 118.039 39.3501C118.587 39.3501 119.032 39.7892 119.032 40.3424C119.032 40.696 118.843 41.004 118.564 41.1807H118.57Z" fill="#001640"/>
<path d="M57.4346 69.2588C57.4346 69.1903 57.4916 69.1333 57.56 69.1333H58.5923C59.1683 69.1333 59.6302 69.6009 59.6302 70.1769C59.6302 70.7529 59.1683 71.2149 58.5923 71.2149L57.6912 71.2263V72.6577C57.6912 72.7262 57.6342 72.7832 57.56 72.7832C57.4916 72.7832 57.4346 72.7262 57.4346 72.6577V69.2588ZM58.5923 70.9697C59.0257 70.9697 59.3793 70.6104 59.3793 70.1769C59.3793 69.7435 59.0257 69.3899 58.5923 69.3899H57.6912V70.9697H58.5923Z" fill="#001640"/>
<path d="M60.4512 69.2563C60.4512 69.1879 60.5082 69.1309 60.5766 69.1309C60.6508 69.1309 60.7078 69.1879 60.7078 69.2563V72.6553C60.7078 72.7237 60.6508 72.7808 60.5766 72.7808C60.5082 72.7808 60.4512 72.7237 60.4512 72.6553V69.2563Z" fill="#001640"/>
<path d="M61.7627 71.5092C61.7627 70.8021 62.3159 70.2261 63.0059 70.2261C63.696 70.2261 64.1865 70.745 64.2378 71.4123V71.4351C64.2378 71.5035 64.1807 71.5492 64.1123 71.5492H62.0193C62.0478 72.108 62.4813 72.5301 63.0116 72.5301C63.3481 72.5301 63.6618 72.3533 63.8329 72.0681C63.8671 72.0054 63.9469 71.994 63.9983 72.0282C64.0553 72.0681 64.0781 72.1423 64.0382 72.205C63.8215 72.5529 63.4394 72.781 63.0059 72.781C62.3159 72.781 61.7627 72.205 61.7627 71.5092ZM62.0307 71.3039H63.964C63.8785 70.8249 63.4736 70.477 63.0059 70.477C62.5383 70.477 62.1277 70.8192 62.0307 71.3039Z" fill="#001640"/>
<path d="M67.2608 70.3515V72.6555C67.2608 72.724 67.2038 72.781 67.1354 72.781C67.0669 72.781 67.0099 72.724 67.0099 72.6555V72.2734C66.7932 72.5757 66.4396 72.781 66.0518 72.781C65.3789 72.781 64.8428 72.205 64.8428 71.5035C64.8428 70.8021 65.3789 70.2261 66.0518 70.2261C66.4453 70.2261 66.7932 70.4257 67.0099 70.7279V70.3515C67.0099 70.2774 67.0669 70.2261 67.1354 70.2261C67.2038 70.2261 67.2608 70.2774 67.2608 70.3515ZM67.0099 71.5035C67.0099 70.9275 66.5765 70.4713 66.0518 70.4713C65.5271 70.4713 65.0937 70.9275 65.0937 71.5035C65.0937 72.0795 65.5328 72.5301 66.0518 72.5301C66.5708 72.5301 67.0099 72.0738 67.0099 71.5035Z" fill="#001640"/>
<path d="M68.1678 72.2506C68.2077 72.1993 68.2876 72.1879 68.3446 72.2335C68.5214 72.3647 68.8008 72.5301 69.1259 72.5301C69.3255 72.5301 69.4966 72.4673 69.6106 72.3761C69.7361 72.2905 69.8045 72.1765 69.8045 72.0624C69.8045 71.9427 69.7532 71.8571 69.6221 71.7488C69.5137 71.6632 69.3312 71.6005 69.0803 71.5606H69.0689C68.8407 71.5149 68.6354 71.4636 68.4929 71.3553C68.3332 71.264 68.2191 71.0929 68.2191 70.899C68.2191 70.7051 68.3332 70.5169 68.4929 70.3972C68.6468 70.2945 68.8579 70.2261 69.1202 70.2261C69.451 70.2261 69.6848 70.3801 69.8787 70.4998C69.9357 70.5397 69.9528 70.6196 69.9129 70.6766C69.8787 70.7336 69.7988 70.7507 69.7418 70.7108C69.5536 70.5854 69.3654 70.4542 69.1145 70.4542C68.9035 70.4542 68.7381 70.5112 68.6297 70.6025C68.5271 70.688 68.4701 70.7907 68.4701 70.8933C68.4701 70.996 68.5157 71.0701 68.6183 71.15C68.7324 71.2298 68.9035 71.2925 69.1373 71.3267H69.1487C69.3939 71.361 69.5935 71.4351 69.7703 71.5378C69.9357 71.6461 70.0555 71.8457 70.0555 72.0567C70.0555 72.2677 69.9357 72.4445 69.7646 72.5757C69.5878 72.7069 69.3768 72.781 69.1259 72.781C68.7153 72.781 68.3902 72.5814 68.1849 72.416C68.1336 72.3704 68.1279 72.302 68.1678 72.2506Z" fill="#001640"/>
<path d="M70.7285 71.5092C70.7285 70.8021 71.2817 70.2261 71.9718 70.2261C72.6618 70.2261 73.1523 70.745 73.2036 71.4123V71.4351C73.2036 71.5035 73.1466 71.5492 73.0781 71.5492H70.9852C71.0137 72.108 71.4471 72.5301 71.9775 72.5301C72.3139 72.5301 72.6276 72.3533 72.7987 72.0681C72.8329 72.0054 72.9128 71.994 72.9641 72.0282C73.0211 72.0681 73.0439 72.1423 73.004 72.205C72.7873 72.5529 72.4052 72.781 71.9718 72.781C71.2817 72.781 70.7285 72.205 70.7285 71.5092ZM70.9966 71.3039H72.9299C72.8443 70.8249 72.4394 70.477 71.9718 70.477C71.5041 70.477 71.0935 70.8192 70.9966 71.3039Z" fill="#001640"/>
<path d="M75.4678 71.5092C75.4678 70.8021 76.021 70.2261 76.711 70.2261C77.4011 70.2261 77.8915 70.745 77.9429 71.4123V71.4351C77.9429 71.5035 77.8858 71.5492 77.8174 71.5492H75.7244C75.7529 72.108 76.1863 72.5301 76.7167 72.5301C77.0532 72.5301 77.3669 72.3533 77.538 72.0681C77.5722 72.0054 77.652 71.994 77.7033 72.0282C77.7604 72.0681 77.7832 72.1423 77.7433 72.205C77.5265 72.5529 77.1444 72.781 76.711 72.781C76.021 72.781 75.4678 72.205 75.4678 71.5092ZM75.7358 71.3039H77.6691C77.5836 70.8249 77.1787 70.477 76.711 70.477C76.2434 70.477 75.8328 70.8192 75.7358 71.3039Z" fill="#001640"/>
<path d="M80.6514 71.2697C80.6514 70.8363 80.3035 70.4827 79.8644 70.4827C79.4253 70.4827 79.0831 70.8363 79.0717 71.2697V72.6783C79.0717 72.6783 79.0603 72.7183 79.0432 72.7354C79.0204 72.7639 78.9862 72.781 78.9519 72.781H78.9234C78.8892 72.7696 78.855 72.7468 78.8379 72.7126C78.8379 72.7126 78.8379 72.7012 78.8379 72.6955V72.684V70.3515C78.8379 70.2831 78.8892 70.2261 78.9634 70.2261C79.0318 70.2261 79.0831 70.2831 79.0831 70.3515V70.5968C79.2713 70.3744 79.5565 70.2261 79.8758 70.2261C80.4518 70.2261 80.9138 70.6937 80.9138 71.264V72.6498C80.9138 72.724 80.8567 72.7753 80.7883 72.7753C80.7199 72.7753 80.6628 72.724 80.6628 72.6498V71.264L80.6514 71.2697Z" fill="#001640"/>
<path d="M82.9095 70.3514C82.9095 70.4142 82.8468 70.4769 82.784 70.4769H82.4533V72.3361C82.4533 72.4615 82.5787 72.5243 82.6415 72.5243C82.7042 72.5243 82.7726 72.5927 82.7726 72.6554C82.7726 72.7182 82.7042 72.7809 82.6415 72.7809C82.3848 72.7809 82.1909 72.5927 82.1909 72.3361V70.4769H81.8716C81.7461 70.4769 81.7461 70.4142 81.7461 70.3514C81.7461 70.2887 81.7461 70.226 81.8716 70.226H82.1909V69.2793C82.1909 69.2165 82.2537 69.1538 82.3164 69.1538C82.3848 69.1538 82.4533 69.2165 82.4533 69.2793V70.226H82.784C82.8468 70.226 82.9095 70.2887 82.9095 70.3514Z" fill="#001640"/>
<path d="M83.7139 71.5092C83.7139 70.8021 84.2671 70.2261 84.9571 70.2261C85.6472 70.2261 86.1376 70.745 86.189 71.4123V71.4351C86.189 71.5035 86.1319 71.5492 86.0635 71.5492H83.9705C83.999 72.108 84.4324 72.5301 84.9628 72.5301C85.2993 72.5301 85.613 72.3533 85.784 72.0681C85.8183 72.0054 85.8981 71.994 85.9494 72.0282C86.0065 72.0681 86.0293 72.1423 85.9893 72.205C85.7726 72.5529 85.3905 72.781 84.9571 72.781C84.2671 72.781 83.7139 72.205 83.7139 71.5092ZM83.9819 71.3039H85.9152C85.8297 70.8249 85.4248 70.477 84.9571 70.477C84.4895 70.477 84.0732 70.8192 83.9819 71.3039Z" fill="#001640"/>
<path d="M86.9588 70.3569C86.9588 70.2828 87.0159 70.2314 87.09 70.2314C87.1527 70.2314 87.2098 70.2828 87.2098 70.3569V70.9215C87.2098 70.9215 87.2326 70.8816 87.244 70.8588C87.4379 70.5565 87.7744 70.2314 88.2648 70.2314C88.3332 70.2314 88.3903 70.2828 88.3903 70.3569C88.3903 70.4253 88.3332 70.4824 88.2648 70.4824C87.934 70.4824 87.7002 70.6706 87.5234 70.8987C87.3523 71.1268 87.2497 71.3891 87.2155 71.4918C87.2041 71.5146 87.2041 71.5203 87.2041 71.5317V72.6552C87.2041 72.7293 87.147 72.7807 87.0843 72.7807C87.0102 72.7807 86.9531 72.7293 86.9531 72.6552V70.3569H86.9588Z" fill="#001640"/>
<path d="M91.7034 70.3514C91.7034 70.4142 91.6407 70.4769 91.578 70.4769H91.2472V72.3361C91.2472 72.4615 91.3727 72.5243 91.4354 72.5243C91.4981 72.5243 91.5666 72.5927 91.5666 72.6554C91.5666 72.7182 91.4981 72.7809 91.4354 72.7809C91.1788 72.7809 90.9849 72.5927 90.9849 72.3361V70.4769H90.6655C90.54 70.4769 90.54 70.4142 90.54 70.3514C90.54 70.2887 90.54 70.226 90.6655 70.226H90.9849V69.2793C90.9849 69.2165 91.0476 69.1538 91.1103 69.1538C91.1788 69.1538 91.2472 69.2165 91.2472 69.2793V70.226H91.578C91.6407 70.226 91.7034 70.2887 91.7034 70.3514Z" fill="#001640"/>
<path d="M94.6692 71.2295C94.6692 70.779 94.3043 70.4768 93.8537 70.4768C93.4032 70.4768 93.0439 70.779 93.0439 71.2295V72.6667C93.0439 72.6667 93.0439 72.6838 93.0439 72.6895C93.0439 72.7009 93.0439 72.7066 93.0325 72.7123C93.0154 72.7408 92.9926 72.7636 92.9527 72.775C92.9527 72.775 92.9526 72.775 92.9412 72.775H92.9127C92.8785 72.775 92.8386 72.7579 92.8158 72.7351C92.8044 72.718 92.7987 72.7066 92.793 72.6952C92.793 72.6781 92.793 72.6667 92.793 72.6553V69.2563C92.793 69.1879 92.85 69.1309 92.9184 69.1309C92.9926 69.1309 93.0496 69.1879 93.0496 69.2563V70.6022C93.2435 70.3741 93.5344 70.2258 93.8594 70.2258C94.4468 70.2258 94.9259 70.6421 94.9259 71.2295V72.6553C94.9259 72.7237 94.8688 72.7808 94.7947 72.7808C94.7263 72.7808 94.6692 72.7237 94.6692 72.6553V71.2295Z" fill="#001640"/>
<path d="M95.8096 71.5092C95.8096 70.8021 96.3628 70.2261 97.0528 70.2261C97.7429 70.2261 98.2333 70.745 98.2847 71.4123V71.4351C98.2847 71.5035 98.2276 71.5492 98.1592 71.5492H96.0662C96.0947 72.108 96.5281 72.5301 97.0585 72.5301C97.395 72.5301 97.7087 72.3533 97.8797 72.0681C97.914 72.0054 97.9938 71.994 98.0451 72.0282C98.1022 72.0681 98.125 72.1423 98.0851 72.205C97.8683 72.5529 97.4862 72.781 97.0528 72.781C96.3628 72.781 95.8096 72.205 95.8096 71.5092ZM96.0776 71.3039H98.0109C97.9254 70.8249 97.5205 70.477 97.0528 70.477C96.5852 70.477 96.1746 70.8192 96.0776 71.3039Z" fill="#001640"/>
<path d="M102.385 69.0796C103.36 69.0796 104.125 69.9065 104.13 70.9331C104.13 71.9539 103.36 72.7865 102.385 72.7865C101.41 72.7865 100.629 71.9596 100.623 70.9331C100.623 69.9122 101.399 69.0796 102.385 69.0796ZM102.385 72.5242C103.189 72.5242 103.868 71.8227 103.874 70.9274C103.874 70.0263 103.189 69.3362 102.385 69.3362C101.581 69.3362 100.88 70.0263 100.88 70.9274C100.88 71.8284 101.558 72.5242 102.385 72.5242Z" fill="#001640"/>
<path d="M105.876 69.3875H104.775C104.706 69.3875 104.649 69.3305 104.649 69.2563C104.649 69.1879 104.706 69.1309 104.775 69.1309H107.227C107.296 69.1309 107.353 69.1879 107.353 69.2563C107.353 69.3305 107.296 69.3875 107.227 69.3875H106.126V72.6553C106.126 72.7237 106.069 72.7808 106.001 72.7808C105.933 72.7808 105.876 72.7237 105.876 72.6553V69.3875Z" fill="#001640"/>
<path d="M108.305 69.2563C108.305 69.1879 108.362 69.1309 108.43 69.1309H109.462C110.038 69.1309 110.5 69.5985 110.5 70.1745C110.5 70.7505 110.038 71.2124 109.462 71.2124L108.561 71.2238V72.6553C108.561 72.7237 108.504 72.7808 108.43 72.7808C108.362 72.7808 108.305 72.7237 108.305 72.6553V69.2563ZM109.462 70.9672C109.896 70.9672 110.249 70.6079 110.249 70.1745C110.249 69.7411 109.896 69.3875 109.462 69.3875H108.561V70.9672H109.462Z" fill="#001640"/>
<path d="M112.668 71.4978C112.668 70.7907 113.25 70.2261 113.98 70.2261C114.282 70.2261 114.567 70.3287 114.795 70.5055C114.846 70.5397 114.858 70.6196 114.812 70.6766C114.772 70.7222 114.698 70.7393 114.641 70.6994C114.459 70.5511 114.231 70.4713 113.985 70.4713C113.392 70.4713 112.925 70.9332 112.925 71.4978C112.925 72.0624 113.392 72.5301 113.985 72.5301C114.231 72.5301 114.459 72.4445 114.641 72.3077C114.698 72.2677 114.772 72.2791 114.812 72.3305C114.858 72.3875 114.847 72.4673 114.784 72.513C114.573 72.6783 114.282 72.7867 113.98 72.7867C113.25 72.7867 112.668 72.2221 112.668 71.5035V71.4978Z" fill="#001640"/>
<path d="M116.842 70.2261C117.515 70.2261 118.051 70.8078 118.051 71.5035C118.051 72.1993 117.515 72.781 116.842 72.781C116.169 72.781 115.633 72.1993 115.633 71.5035C115.633 70.8078 116.175 70.2261 116.842 70.2261ZM116.842 72.5301C117.361 72.5301 117.8 72.0738 117.8 71.5035C117.8 70.9332 117.361 70.4713 116.842 70.4713C116.323 70.4713 115.884 70.9332 115.884 71.5035C115.884 72.0738 116.323 72.5301 116.842 72.5301Z" fill="#001640"/>
<path d="M121.051 72.2846C120.829 72.5868 120.475 72.7808 120.071 72.7808C119.38 72.7808 118.833 72.2048 118.833 71.509C118.833 70.8132 119.38 70.2258 120.071 70.2258C120.47 70.2258 120.829 70.4254 121.051 70.7277V69.2563C121.051 69.1879 121.108 69.1309 121.183 69.1309C121.251 69.1309 121.308 69.1879 121.308 69.2563V72.6553C121.308 72.7237 121.251 72.7808 121.183 72.7808C121.108 72.7808 121.051 72.7237 121.051 72.6553V72.2846ZM121.051 71.5489V71.4634C121.029 70.9159 120.595 70.4768 120.071 70.4768C119.546 70.4768 119.09 70.933 119.09 71.5033C119.09 72.0736 119.534 72.5184 120.071 72.5184C120.607 72.5184 121.029 72.085 121.051 71.5432V71.5489Z" fill="#001640"/>
<path d="M122.186 71.5092C122.186 70.8021 122.739 70.2261 123.429 70.2261C124.119 70.2261 124.609 70.745 124.661 71.4123V71.4351C124.661 71.5035 124.604 71.5492 124.535 71.5492H122.442C122.471 72.108 122.904 72.5301 123.434 72.5301C123.771 72.5301 124.085 72.3533 124.256 72.0681C124.29 72.0054 124.37 71.994 124.421 72.0282C124.478 72.0681 124.501 72.1423 124.461 72.205C124.244 72.5529 123.862 72.781 123.429 72.781C122.739 72.781 122.186 72.205 122.186 71.5092ZM122.454 71.3039H124.387C124.301 70.8249 123.896 70.477 123.429 70.477C122.961 70.477 122.551 70.8192 122.454 71.3039Z" fill="#001640"/>
<path d="M126.93 72.2506C126.97 72.1993 127.05 72.1879 127.107 72.2335C127.284 72.3647 127.564 72.5301 127.889 72.5301C128.088 72.5301 128.259 72.4673 128.373 72.3761C128.499 72.2905 128.567 72.1765 128.567 72.0624C128.567 71.9427 128.516 71.8571 128.385 71.7488C128.276 71.6632 128.094 71.6005 127.843 71.5606H127.832C127.603 71.5149 127.398 71.4636 127.256 71.3553C127.096 71.264 126.982 71.0929 126.982 70.899C126.982 70.7051 127.096 70.5169 127.256 70.3972C127.41 70.2945 127.621 70.2261 127.883 70.2261C128.214 70.2261 128.447 70.3801 128.641 70.4998C128.698 70.5397 128.716 70.6196 128.676 70.6766C128.641 70.7336 128.562 70.7507 128.505 70.7108C128.316 70.5854 128.128 70.4542 127.877 70.4542C127.666 70.4542 127.501 70.5112 127.392 70.6025C127.29 70.688 127.233 70.7907 127.233 70.8933C127.233 70.996 127.278 71.0701 127.381 71.15C127.495 71.2298 127.666 71.2925 127.9 71.3267H127.911C128.157 71.361 128.356 71.4351 128.533 71.5378C128.698 71.6461 128.818 71.8457 128.818 72.0567C128.818 72.2677 128.698 72.4445 128.527 72.5757C128.351 72.7069 128.14 72.781 127.889 72.781C127.478 72.781 127.153 72.5814 126.948 72.416C126.896 72.3704 126.891 72.302 126.93 72.2506Z" fill="#001640"/>
<path d="M129.491 71.5092C129.491 70.8021 130.044 70.2261 130.734 70.2261C131.425 70.2261 131.915 70.745 131.966 71.4123V71.4351C131.966 71.5035 131.909 71.5492 131.841 71.5492H129.748C129.776 72.108 130.21 72.5301 130.74 72.5301C131.077 72.5301 131.39 72.3533 131.561 72.0681C131.596 72.0054 131.675 71.994 131.727 72.0282C131.784 72.0681 131.807 72.1423 131.767 72.205C131.55 72.5529 131.168 72.781 130.734 72.781C130.044 72.781 129.491 72.205 129.491 71.5092ZM129.759 71.3039H131.693C131.607 70.8249 131.202 70.477 130.734 70.477C130.267 70.477 129.856 70.8192 129.759 71.3039Z" fill="#001640"/>
<path d="M134.676 71.2697C134.676 70.8363 134.328 70.4827 133.889 70.4827C133.45 70.4827 133.108 70.8363 133.096 71.2697V72.6783C133.096 72.6783 133.085 72.7183 133.068 72.7354C133.045 72.7639 133.011 72.781 132.976 72.781H132.948C132.914 72.7696 132.879 72.7468 132.862 72.7126C132.862 72.7126 132.862 72.7012 132.862 72.6955V72.684V70.3515C132.862 70.2831 132.914 70.2261 132.988 70.2261C133.056 70.2261 133.108 70.2831 133.108 70.3515V70.5968C133.296 70.3744 133.581 70.2261 133.9 70.2261C134.476 70.2261 134.938 70.6937 134.938 71.264V72.6498C134.938 72.724 134.881 72.7753 134.813 72.7753C134.744 72.7753 134.687 72.724 134.687 72.6498V71.264L134.676 71.2697Z" fill="#001640"/>
<path d="M136.934 70.3514C136.934 70.4142 136.871 70.4769 136.808 70.4769H136.478V72.3361C136.478 72.4615 136.603 72.5243 136.666 72.5243C136.729 72.5243 136.797 72.5927 136.797 72.6554C136.797 72.7182 136.729 72.7809 136.666 72.7809C136.409 72.7809 136.215 72.5927 136.215 72.3361V70.4769H135.896C135.77 70.4769 135.771 70.4142 135.771 70.3514C135.771 70.2887 135.77 70.226 135.896 70.226H136.215V69.2793C136.215 69.2165 136.278 69.1538 136.341 69.1538C136.409 69.1538 136.478 69.2165 136.478 69.2793V70.226H136.808C136.871 70.226 136.934 70.2887 136.934 70.3514Z" fill="#001640"/>
<path d="M140.583 70.3514C140.583 70.4142 140.521 70.4769 140.458 70.4769H140.127V72.3361C140.127 72.4615 140.253 72.5243 140.315 72.5243C140.378 72.5243 140.446 72.5927 140.446 72.6554C140.446 72.7182 140.378 72.7809 140.315 72.7809C140.059 72.7809 139.865 72.5927 139.865 72.3361V70.4769H139.545C139.42 70.4769 139.42 70.4142 139.42 70.3514C139.42 70.2887 139.42 70.226 139.545 70.226H139.865V69.2793C139.865 69.2165 139.927 69.1538 139.99 69.1538C140.059 69.1538 140.127 69.2165 140.127 69.2793V70.226H140.458C140.521 70.226 140.583 70.2887 140.583 70.3514Z" fill="#001640"/>
<path d="M142.791 70.2261C143.464 70.2261 144 70.8078 144 71.5035C144 72.1993 143.464 72.781 142.791 72.781C142.118 72.781 141.582 72.1993 141.582 71.5035C141.582 70.8078 142.124 70.2261 142.791 70.2261ZM142.791 72.5301C143.31 72.5301 143.749 72.0738 143.749 71.5035C143.749 70.9332 143.31 70.4713 142.791 70.4713C142.272 70.4713 141.833 70.9332 141.833 71.5035C141.833 72.0738 142.272 72.5301 142.791 72.5301Z" fill="#001640"/>
<path d="M146.309 70.3458C146.309 70.2774 146.366 70.2261 146.429 70.2261C146.503 70.2261 146.56 70.2774 146.56 70.3458V71.7317C146.56 72.1708 146.908 72.5187 147.342 72.5187C147.775 72.5187 148.129 72.1708 148.134 71.7317V70.3458C148.134 70.3458 148.134 70.3002 148.157 70.2831C148.157 70.2831 148.157 70.2717 148.157 70.266C148.157 70.266 148.157 70.266 148.169 70.266C148.18 70.2489 148.197 70.2375 148.214 70.2375H148.226C148.226 70.2375 148.237 70.2375 148.243 70.2375H148.271C148.271 70.2375 148.311 70.2546 148.334 70.266C148.345 70.2774 148.362 70.2945 148.362 70.3059C148.374 70.323 148.38 70.3401 148.38 70.3572V72.5871C148.38 73.2543 147.838 73.7847 147.165 73.7847C146.977 73.7847 146.8 73.7391 146.64 73.665C146.583 73.6307 146.555 73.5566 146.589 73.4996C146.617 73.4368 146.686 73.4197 146.749 73.4368C146.874 73.4996 147.022 73.5338 147.165 73.5338C147.695 73.5338 148.123 73.1118 148.129 72.5871V72.4217C147.935 72.6384 147.655 72.7867 147.336 72.7867C146.766 72.7867 146.304 72.3191 146.304 71.7431V70.3572L146.309 70.3458Z" fill="#001640"/>
<path d="M150.519 70.2261C151.192 70.2261 151.728 70.8078 151.728 71.5035C151.728 72.1993 151.192 72.781 150.519 72.781C149.846 72.781 149.31 72.1993 149.31 71.5035C149.31 70.8078 149.851 70.2261 150.519 70.2261ZM150.519 72.5301C151.038 72.5301 151.477 72.0738 151.477 71.5035C151.477 70.9332 151.038 70.4713 150.519 70.4713C150 70.4713 149.561 70.9332 149.561 71.5035C149.561 72.0738 150 72.5301 150.519 72.5301Z" fill="#001640"/>
<path d="M152.554 70.3457C152.554 70.2715 152.611 70.2202 152.679 70.2202C152.748 70.2202 152.805 70.2715 152.805 70.3457V71.7372C152.805 72.1763 153.153 72.5242 153.586 72.5299C154.025 72.5299 154.379 72.1763 154.379 71.7372V70.3457C154.379 70.2715 154.441 70.2202 154.504 70.2202C154.578 70.2202 154.635 70.2715 154.635 70.3457V71.7372C154.635 72.3132 154.173 72.7808 153.586 72.7808C152.999 72.7808 152.554 72.3132 152.554 71.7372V70.3457Z" fill="#001640"/>
<path d="M155.8 70.3569C155.8 70.2828 155.857 70.2314 155.931 70.2314C155.994 70.2314 156.051 70.2828 156.051 70.3569V70.9215C156.051 70.9215 156.073 70.8816 156.085 70.8588C156.279 70.5565 156.615 70.2314 157.106 70.2314C157.174 70.2314 157.231 70.2828 157.231 70.3569C157.231 70.4253 157.174 70.4824 157.106 70.4824C156.775 70.4824 156.541 70.6706 156.364 70.8987C156.193 71.1268 156.091 71.3891 156.056 71.4918C156.045 71.5146 156.045 71.5203 156.045 71.5317V72.6552C156.045 72.7293 155.988 72.7807 155.925 72.7807C155.851 72.7807 155.794 72.7293 155.794 72.6552V70.3569H155.8Z" fill="#001640"/>
<path d="M161.474 71.2697C161.474 70.8363 161.126 70.4827 160.687 70.4827C160.248 70.4827 159.905 70.8363 159.894 71.2697V72.6783C159.894 72.6783 159.883 72.7183 159.865 72.7354C159.843 72.7639 159.808 72.781 159.774 72.781H159.746C159.711 72.7696 159.677 72.7468 159.66 72.7126C159.66 72.7126 159.66 72.7012 159.66 72.6955V72.684V70.3515C159.66 70.2831 159.711 70.2261 159.786 70.2261C159.854 70.2261 159.905 70.2831 159.905 70.3515V70.5968C160.094 70.3744 160.379 70.2261 160.698 70.2261C161.274 70.2261 161.736 70.6937 161.736 71.264V72.6498C161.736 72.724 161.679 72.7753 161.611 72.7753C161.542 72.7753 161.485 72.724 161.485 72.6498V71.264L161.474 71.2697Z" fill="#001640"/>
<path d="M162.797 70.3457C162.797 70.2715 162.854 70.2202 162.922 70.2202C162.991 70.2202 163.048 70.2715 163.048 70.3457V71.7372C163.048 72.1763 163.396 72.5242 163.829 72.5299C164.268 72.5299 164.622 72.1763 164.622 71.7372V70.3457C164.622 70.2715 164.685 70.2202 164.747 70.2202C164.821 70.2202 164.878 70.2715 164.878 70.3457V71.7372C164.878 72.3132 164.417 72.7808 163.829 72.7808C163.242 72.7808 162.797 72.3132 162.797 71.7372V70.3457Z" fill="#001640"/>
<path d="M169.697 71.2697C169.686 70.8363 169.344 70.477 168.905 70.477C168.465 70.477 168.118 70.8363 168.118 71.2697V72.6783V72.6898V72.7012C168.106 72.7297 168.083 72.7525 168.055 72.7696C168.032 72.781 168.015 72.7867 167.992 72.7867H167.964H167.952C167.941 72.7867 167.929 72.7753 167.924 72.7696C167.924 72.7696 167.912 72.7696 167.907 72.7582L167.889 72.7411C167.889 72.7411 167.889 72.7297 167.878 72.7297C167.878 72.7297 167.878 72.7259 167.878 72.7183C167.878 72.7183 167.878 72.7183 167.878 72.7069C167.878 72.7069 167.878 72.6955 167.878 72.6898V71.2697C167.878 70.8363 167.53 70.477 167.091 70.477C166.652 70.477 166.304 70.8363 166.304 71.2697V72.6612C166.304 72.7012 166.281 72.7411 166.247 72.7582C166.247 72.7582 166.224 72.7753 166.218 72.7753C166.218 72.7753 166.207 72.7753 166.196 72.7753H166.167C166.121 72.7753 166.076 72.7297 166.064 72.684V70.3458C166.064 70.2774 166.121 70.2261 166.184 70.2261C166.258 70.2261 166.31 70.2774 166.31 70.3458V70.5911C166.498 70.3686 166.777 70.2261 167.097 70.2261C167.49 70.2261 167.832 70.4428 168.009 70.7679C168.192 70.4428 168.534 70.2261 168.927 70.2261C169.503 70.2261 169.965 70.688 169.965 71.264V72.6555C169.965 72.7183 169.914 72.7753 169.84 72.7753C169.771 72.7753 169.72 72.7183 169.72 72.6555V71.264L169.697 71.2697Z" fill="#001640"/>
<path d="M170.997 71.5603V69.2563C170.997 69.1879 171.054 69.1309 171.123 69.1309C171.197 69.1309 171.254 69.1879 171.254 69.2563V70.7277C171.476 70.4254 171.83 70.2258 172.235 70.2258C172.925 70.2258 173.472 70.8018 173.472 71.509C173.472 72.2162 172.925 72.7808 172.235 72.7808C171.835 72.7808 171.476 72.5868 171.254 72.2846V72.6553C171.254 72.7237 171.197 72.7808 171.123 72.7808C171.054 72.7808 170.997 72.7237 170.997 72.6553V71.5603ZM171.254 71.509C171.254 72.0736 171.699 72.5241 172.235 72.5241C172.771 72.5241 173.216 72.0679 173.216 71.509C173.216 70.9501 172.776 70.4825 172.235 70.4825C171.693 70.4825 171.277 70.9216 171.254 71.4691V71.509Z" fill="#001640"/>
<path d="M174.26 71.5092C174.26 70.8021 174.813 70.2261 175.503 70.2261C176.193 70.2261 176.684 70.745 176.735 71.4123V71.4351C176.735 71.5035 176.678 71.5492 176.609 71.5492H174.516C174.545 72.108 174.978 72.5301 175.509 72.5301C175.845 72.5301 176.159 72.3533 176.33 72.0681C176.364 72.0054 176.444 71.994 176.495 72.0282C176.552 72.0681 176.575 72.1423 176.535 72.205C176.319 72.5529 175.936 72.781 175.503 72.781C174.813 72.781 174.26 72.205 174.26 71.5092ZM174.528 71.3039H176.461C176.376 70.8249 175.971 70.477 175.503 70.477C175.035 70.477 174.625 70.8192 174.528 71.3039Z" fill="#001640"/>
<path d="M177.505 70.3569C177.505 70.2828 177.562 70.2314 177.636 70.2314C177.699 70.2314 177.756 70.2828 177.756 70.3569V70.9215C177.756 70.9215 177.778 70.8816 177.79 70.8588C177.984 70.5565 178.32 70.2314 178.811 70.2314C178.879 70.2314 178.936 70.2828 178.936 70.3569C178.936 70.4253 178.879 70.4824 178.811 70.4824C178.48 70.4824 178.246 70.6706 178.069 70.8987C177.898 71.1268 177.796 71.3891 177.761 71.4918C177.75 71.5146 177.75 71.5203 177.75 71.5317V72.6552C177.75 72.7293 177.693 72.7807 177.63 72.7807C177.556 72.7807 177.499 72.7293 177.499 72.6552V70.3569H177.505Z" fill="#001640"/>
<path d="M92.5358 58.9397C92.5358 58.9397 92.4958 58.9112 92.4673 58.8883C92.4673 58.8769 92.4559 58.8769 92.4559 58.8598C92.4331 58.837 92.416 58.8199 92.4046 58.7971C92.4046 58.7971 92.3932 58.7971 92.3932 58.7857C92.3818 58.7629 92.3647 58.723 92.3419 58.7058L89.8782 52.8261C89.7584 52.5524 89.8896 52.2216 90.1804 52.1132C90.4542 51.9935 90.7735 52.1246 90.8933 52.4041L92.8551 57.0634L94.8169 52.4041C94.9367 52.1246 95.2675 51.9935 95.5412 52.1132C95.8207 52.2216 95.9518 52.5581 95.8435 52.8261L93.357 58.7058C93.357 58.7058 93.3342 58.7686 93.3171 58.7857C93.3171 58.7857 93.3133 58.7895 93.3057 58.7971C93.3057 58.7971 93.2657 58.837 93.2543 58.8598C93.2543 58.8598 93.2467 58.8693 93.2315 58.8883C93.2315 58.8883 93.1916 58.9169 93.1688 58.9397L93.146 58.9511C93.146 58.9511 93.0946 58.991 93.0661 59.0024C93.0661 59.0024 93.0585 59.0062 93.0433 59.0138C93.0148 59.0138 92.992 59.0252 92.9635 59.0366H92.9407C92.9007 59.048 92.8722 59.048 92.838 59.048C92.8038 59.048 92.7696 59.048 92.7354 59.0366H92.7126C92.7126 59.0366 92.6498 59.0138 92.6327 59.0138C92.6327 59.0024 92.6213 59.0024 92.6213 59.0024H92.6099C92.6099 59.0024 92.5472 58.9625 92.5186 58.9397H92.5072H92.5358Z" fill="#001640"/>
<path d="M96.6248 56.5214C96.6362 55.1526 97.7027 54.0063 99.0828 54.0063C100.463 54.0063 101.427 54.9816 101.507 56.3446V56.3959C101.507 56.3959 101.507 56.4643 101.495 56.4871C101.467 56.7267 101.256 56.892 100.97 56.892H97.7711C97.8225 57.1259 97.9308 57.3882 98.1133 57.5536C98.3243 57.7931 98.7292 57.9756 99.0771 58.0041C99.4421 58.0326 99.8698 57.9414 100.126 57.7532C100.337 57.5308 100.748 57.5593 100.879 57.7247C101.01 57.8672 101.113 58.1695 100.879 58.3805C100.383 58.831 99.79 59.0421 99.0771 59.0421C97.697 59.0307 96.6305 57.8958 96.6191 56.5271L96.6248 56.5214ZM97.7198 56.0252H100.571C100.469 55.6203 99.9554 55.0272 99.0828 54.9587C98.2274 54.9987 97.8054 55.6146 97.7255 56.0252H97.7198Z" fill="#001640"/>
<path d="M106.001 54.5371C106.001 54.8165 105.767 55.0731 105.465 55.0731C105.231 55.0731 105.031 55.1359 104.86 55.267C104.666 55.3868 104.518 55.5579 104.398 55.7518C104.159 56.0712 104.033 56.4589 103.988 56.5958V58.5063C103.988 58.7972 103.737 59.0424 103.435 59.0424C103.132 59.0424 102.898 58.8029 102.898 58.5063V54.5428C102.898 54.2519 103.138 54.0181 103.435 54.0181C103.731 54.0181 103.988 54.2519 103.988 54.5428V54.6112C104.05 54.5428 104.13 54.4572 104.199 54.4116C104.529 54.1892 104.963 54.0067 105.465 54.0181C105.767 54.0181 106.001 54.2519 106.001 54.5428V54.5371Z" fill="#001640"/>
<path d="M108.419 52.746C108.419 53.0482 108.185 53.2991 107.877 53.2991C107.569 53.2991 107.335 53.0482 107.335 52.746V52.5349C107.335 52.2327 107.574 51.9932 107.877 51.9932C108.179 51.9932 108.419 52.2327 108.419 52.5349V52.746ZM108.419 54.5652V58.4888C108.419 58.7911 108.185 59.0306 107.877 59.0306C107.569 59.0306 107.335 58.7911 107.335 58.4888V54.5652C107.335 54.2458 107.574 54.012 107.877 54.012C108.179 54.012 108.419 54.2458 108.419 54.5652Z" fill="#001640"/>
<path d="M111.8 53.67V53.8126H112.103C112.405 53.8126 112.656 54.0521 112.656 54.3658C112.656 54.6794 112.405 54.919 112.103 54.919H111.8V58.4719C111.8 58.7742 111.561 59.0251 111.247 59.0251C110.934 59.0251 110.694 58.7742 110.694 58.4719V54.919H110.432C110.118 54.919 109.867 54.668 109.867 54.3658C109.867 54.0635 110.118 53.8126 110.432 53.8126H110.694V53.67C110.694 53.2993 110.734 52.9742 110.888 52.6834C111.031 52.3811 111.31 52.1473 111.612 52.0618C111.812 51.999 112.006 51.9819 112.217 51.9819C112.519 51.9819 112.77 52.2329 112.77 52.5351C112.77 52.8374 112.519 53.0997 112.217 53.0997C112.086 53.0997 111.994 53.1111 111.954 53.1282C111.915 53.1396 111.903 53.151 111.892 53.1567C111.88 53.1567 111.8 53.2993 111.8 53.67Z" fill="#001640"/>
<path d="M114.897 52.746C114.897 53.0482 114.663 53.2991 114.355 53.2991C114.047 53.2991 113.813 53.0482 113.813 52.746V52.5349C113.813 52.2327 114.053 51.9932 114.355 51.9932C114.658 51.9932 114.897 52.2327 114.897 52.5349V52.746ZM114.897 54.5652V58.4888C114.897 58.7911 114.663 59.0306 114.355 59.0306C114.047 59.0306 113.813 58.7911 113.813 58.4888V54.5652C113.813 54.2458 114.053 54.012 114.355 54.012C114.658 54.012 114.897 54.2458 114.897 54.5652Z" fill="#001640"/>
<path d="M116.277 56.5328C116.277 55.1355 117.446 54.0178 118.832 54.0063C119.437 54.0063 120.001 54.2288 120.435 54.5595C120.669 54.742 120.709 55.0842 120.543 55.3066C120.344 55.5461 120.018 55.5861 119.79 55.4093C119.528 55.2154 119.209 55.0899 118.832 55.0899C118.017 55.0899 117.344 55.7629 117.344 56.5385C117.344 57.3141 118.017 57.9756 118.832 57.9756C119.192 57.9756 119.528 57.8444 119.79 57.6562C120.013 57.4852 120.344 57.5251 120.543 57.7646C120.703 57.987 120.663 58.3064 120.435 58.5117C120.001 58.8253 119.437 59.0478 118.832 59.0478C117.441 59.0478 116.277 57.9186 116.277 56.5385V56.5328Z" fill="#001640"/>
<path d="M126.639 56.5328V58.506C126.639 58.7968 126.399 59.0421 126.103 59.0421C125.841 59.0421 125.641 58.8482 125.578 58.6086C125.196 58.8824 124.74 59.0421 124.238 59.0421C123.554 59.0421 122.961 58.7626 122.527 58.3064C122.094 57.8444 121.843 57.2171 121.843 56.5328C121.843 55.8484 122.094 55.2154 122.527 54.7591C122.961 54.2972 123.554 54.0063 124.238 54.0063C124.74 54.0063 125.196 54.1774 125.578 54.4512C125.641 54.2003 125.841 54.0063 126.103 54.0063C126.394 54.0063 126.639 54.2459 126.639 54.5481V56.5328ZM125.573 56.5328C125.573 56.1107 125.424 55.7457 125.179 55.4948C124.939 55.2211 124.597 55.0842 124.244 55.0842C123.89 55.0842 123.537 55.2268 123.308 55.4948C123.069 55.7457 122.926 56.1107 122.926 56.5328C122.926 56.9548 123.069 57.3084 123.308 57.5707C123.542 57.8216 123.884 57.9642 124.244 57.9642C124.603 57.9642 124.939 57.8216 125.179 57.5707C125.419 57.3084 125.573 56.9491 125.573 56.5328Z" fill="#001640"/>
<path d="M130.877 54.5595C130.877 54.8618 130.615 55.1127 130.312 55.1127H130.061V57.9242C130.375 57.9242 130.615 58.1752 130.615 58.4888C130.615 58.8025 130.375 59.042 130.061 59.042C129.446 59.042 128.944 58.5402 128.944 57.9242V55.1127H128.653C128.339 55.1127 128.1 54.8618 128.1 54.5595C128.1 54.2572 128.339 54.0063 128.653 54.0063H128.944V52.5464C128.944 52.2327 129.195 51.9932 129.508 51.9932C129.822 51.9932 130.061 52.2327 130.061 52.5464V54.0063H130.312C130.615 54.0063 130.877 54.2458 130.877 54.5595Z" fill="#001640"/>
<path d="M133.74 52.746C133.74 53.0482 133.506 53.2991 133.198 53.2991C132.89 53.2991 132.656 53.0482 132.656 52.746V52.5349C132.656 52.2327 132.896 51.9932 133.198 51.9932C133.5 51.9932 133.74 52.2327 133.74 52.5349V52.746ZM133.74 54.5652V58.4888C133.74 58.7911 133.506 59.0306 133.198 59.0306C132.89 59.0306 132.656 58.7911 132.656 58.4888V54.5652C132.656 54.2458 132.896 54.012 133.198 54.012C133.5 54.012 133.74 54.2458 133.74 54.5652Z" fill="#001640"/>
<path d="M135.935 58.301C135.502 57.8562 135.239 57.2346 135.239 56.5274C135.239 55.8202 135.502 55.2499 135.935 54.7652C136.386 54.2918 136.973 54.001 137.669 54.001C138.364 54.001 138.935 54.2918 139.351 54.7652C139.807 55.2499 140.058 55.843 140.058 56.5274C140.058 57.2117 139.807 57.8562 139.351 58.301C138.94 58.7744 138.336 59.0652 137.669 59.0652C137.001 59.0652 136.391 58.7744 135.935 58.301ZM136.34 56.5274C136.34 56.9608 136.471 57.3144 136.705 57.5938C136.956 57.8334 137.287 57.9645 137.674 57.9645C138.028 57.9645 138.347 57.8334 138.598 57.5938C138.849 57.3144 138.992 56.9608 138.992 56.5274C138.992 56.094 138.849 55.7518 138.598 55.478C138.347 55.2556 138.022 55.0959 137.674 55.0959C137.292 55.0959 136.962 55.2556 136.705 55.478C136.471 55.7518 136.34 56.1111 136.34 56.5274Z" fill="#001640"/>
<path d="M145.961 56.0993V58.506C145.961 58.7968 145.727 59.0421 145.436 59.0421C145.145 59.0421 144.9 58.8025 144.9 58.506V56.0993C144.9 55.5347 144.426 55.0842 143.85 55.0842C143.274 55.0842 142.841 55.5347 142.841 56.0993V58.506C142.841 58.5345 142.841 58.5687 142.818 58.6086C142.767 58.8482 142.545 59.0421 142.282 59.0421C141.98 59.0421 141.746 58.8025 141.746 58.506V54.5424C141.746 54.2516 141.98 54.0063 142.282 54.0063C142.493 54.0063 142.687 54.1261 142.773 54.32C143.075 54.1261 143.446 54.0063 143.839 54.0063C145.008 54.0063 145.943 54.9644 145.943 56.0993H145.961Z" fill="#001640"/>
<path d="M248.826 22.3327C248.826 22.3327 245.08 52.3303 238.92 59.0826C231.529 67.1808 226.163 65.9945 223.18 70.1691C223.175 70.1691 223.175 70.1748 223.175 70.1748C220.192 65.9945 214.825 67.1865 207.429 59.0769C201.269 52.3246 197.528 22.327 197.528 22.327C213.753 14.4512 223.175 5.62305 223.175 5.62305H223.18C223.471 5.90249 232.852 14.5767 248.826 22.327V22.3327Z" fill="#00A843"/>
<path opacity="0.1" d="M223.18 5.63445V70.1691L223.175 70.1748C220.192 65.9945 214.825 67.1865 207.429 59.0769C201.269 52.3246 197.528 22.327 197.528 22.327C213.753 14.4512 223.175 5.62305 223.175 5.62305H223.18V5.63445Z" fill="black"/>
<path d="M201.509 24.7506C201.509 24.7506 204.674 50.0945 209.875 55.7975C216.125 62.6467 220.659 61.643 223.18 65.1674C225.701 61.6373 230.235 62.6467 236.485 55.7975C241.686 50.0945 244.846 24.7506 244.846 24.7506C231.136 18.0952 223.18 10.6357 223.18 10.6357C223.18 10.6357 215.213 18.0952 201.509 24.7506Z" fill="#00A843"/>
<path opacity="0.2" d="M244.839 24.7507C244.839 24.7507 241.674 50.0889 236.473 55.7976C230.228 62.6411 225.7 61.6431 223.174 65.1618V10.6416C223.419 10.8697 231.346 18.1923 244.839 24.7507Z" fill="white"/>
<path d="M223.179 47.9502C228.729 47.9502 233.228 43.4513 233.228 37.9016C233.228 32.3519 228.729 27.853 223.179 27.853C217.63 27.853 213.131 32.3519 213.131 37.9016C213.131 43.4513 217.63 47.9502 223.179 47.9502Z" fill="#455A64"/>
<path d="M222.033 44.4315L217.557 39.7779L219.216 38.181L221.686 40.7474L227.001 32.5864L228.934 33.8411L222.033 44.4315Z" fill="white"/>
<path d="M244.839 65.7666L243.419 66.0289L243.1 67.5288L242.786 66.0289L241.366 65.7666L242.781 65.4187L243.1 64.0044L243.425 65.4187L244.839 65.7666Z" fill="#00A843"/>
<path d="M202.747 54.3779L201.326 54.6403L201.007 56.1344L200.693 54.6403L199.273 54.3722L200.688 54.0301L201.007 52.6157L201.332 54.0301L202.747 54.3779Z" fill="#00A843"/>
<path d="M209.237 14.8848L207.811 15.1471L207.497 16.647L207.178 15.1471L205.758 14.8848L207.172 14.5369L207.497 13.1226L207.817 14.5369L209.237 14.8848Z" fill="#00A843"/>
<path d="M242.296 59.0315L241.504 59.1741L241.327 60.0124L241.15 59.1741L240.357 59.0258L241.144 58.8376L241.327 58.0449L241.509 58.8376L242.296 59.0315Z" fill="#00A843"/>
<path d="M247.794 42.3616L246.996 42.5099L246.819 43.3482L246.642 42.5099L245.85 42.3616L246.637 42.1677L246.819 41.375L247.002 42.1677L247.794 42.3616Z" fill="#00A843"/>
<path d="M241.047 13.1225L240.255 13.2708L240.078 14.1091L239.901 13.2708L239.108 13.1225L239.895 12.9286L240.078 12.1416L240.26 12.9286L241.047 13.1225Z" fill="#00A843"/>
<path d="M220.762 73.7734L219.969 73.9217L219.793 74.76L219.616 73.9217L218.817 73.7734L219.61 73.5795L219.793 72.7925L219.969 73.5795L220.762 73.7734Z" fill="#00A843"/>
<path d="M198.332 56.3227L197.54 56.471L197.363 57.3093L197.186 56.471L196.388 56.3227L197.18 56.1345L197.363 55.3418L197.54 56.1345L198.332 56.3227Z" fill="#00A843"/>
<path d="M199.57 33.117L198.777 33.2596L198.595 34.0979L198.418 33.2596L197.625 33.117L198.418 32.9231L198.595 32.1304L198.777 32.9231L199.57 33.117Z" fill="#00A843"/>
<path d="M232.886 62.7842C232.59 62.7842 232.59 63.2461 232.886 63.2461C233.183 63.2461 233.183 62.7842 232.886 62.7842Z" fill="#00A843"/>
<path d="M196.273 21.0557C195.977 21.0557 195.977 21.5176 196.273 21.5176C196.57 21.5176 196.57 21.0557 196.273 21.0557Z" fill="#00A843"/>
<path d="M240.078 64.0845C239.781 64.0845 239.781 64.5464 240.078 64.5464C240.374 64.5464 240.374 64.0845 240.078 64.0845Z" fill="#00A843"/>
<path d="M216.759 28.1216C216.462 28.1216 216.462 28.5835 216.759 28.5835C217.055 28.5835 217.055 28.1216 216.759 28.1216Z" fill="#00A843"/>
<path d="M195.441 37.3945C195.145 37.3945 195.145 37.8565 195.441 37.8565C195.738 37.8565 195.738 37.3945 195.441 37.3945Z" fill="#00A843"/>
<path d="M190.074 34.8853C189.863 34.8853 189.863 35.2103 190.074 35.2103C190.285 35.2103 190.285 34.8853 190.074 34.8853Z" fill="#00A843"/>
<path d="M234.01 10.1172C233.799 10.1172 233.799 10.4423 234.01 10.4423C234.221 10.4423 234.221 10.1172 234.01 10.1172Z" fill="#00A843"/>
<path d="M211.273 65.875C211.062 65.875 211.062 66.2001 211.273 66.2001C211.484 66.2001 211.484 65.875 211.273 65.875Z" fill="#00A843"/>
<path d="M206.186 62.8867C205.615 62.8867 205.615 63.7707 206.186 63.7707C206.756 63.7707 206.756 62.8867 206.186 62.8867Z" fill="#00A843"/>
<path d="M96.5449 101.461V111.06H99.0713V115.428L103.445 111.06H133.141V101.461H96.5449Z" fill="white"/>
<path d="M96.5454 101.461C96.5682 104.695 96.6651 107.894 96.6651 111.054L96.5454 110.934H99.0775L99.203 110.928V111.054L99.2144 115.428L98.9748 115.331L103.332 110.945C103.383 110.894 103.372 110.9 103.44 110.9C110.837 110.877 125.739 110.854 133.136 110.849L132.93 111.054L132.959 101.461L133.136 101.638C124.011 101.621 105.659 101.524 96.5397 101.461H96.5454ZM96.5454 101.461L114.795 101.347L133.141 101.285H133.318V101.461L133.347 111.054V111.259H133.141L118.296 111.242C118.376 111.191 103.013 111.299 103.56 111.162L99.1744 115.519L98.9349 115.753V115.417L98.9463 111.042L99.0718 111.168H96.5397L96.4199 111.162V111.042C96.4199 107.809 96.5169 104.609 96.5397 101.45L96.5454 101.461Z" fill="#001640"/>
<path d="M102.944 104.934V106.223H102.579V104.934C102.579 104.444 102.209 104.045 101.752 104.045C101.296 104.045 100.926 104.444 100.926 104.934V106.223H100.561V104.934C100.561 104.233 101.097 103.663 101.752 103.663C102.408 103.663 102.944 104.233 102.944 104.934Z" fill="#001640"/>
<path d="M100.561 105.271L100.926 105.282V106.223H100.561V105.271Z" fill="#001640"/>
<path d="M102.944 105.368V106.223H102.579V105.351L102.944 105.368Z" fill="#001640"/>
<path d="M103.406 105.744H100.093V108.499H103.406V105.744Z" fill="#001640"/>
<path d="M108.698 105.123C108.219 106.012 107.529 106.708 106.64 107.181C107.113 106.292 107.809 105.602 108.698 105.123Z" fill="#001640"/>
<path d="M106.64 105.123C107.529 105.602 108.225 106.292 108.698 107.181C107.809 106.708 107.119 106.012 106.64 105.123Z" fill="#001640"/>
<path d="M109.126 106.155C108.157 106.446 107.181 106.451 106.212 106.155C107.181 105.858 108.157 105.864 109.126 106.155Z" fill="#001640"/>
<path d="M107.667 104.695C107.957 105.664 107.963 106.64 107.667 107.609C107.37 106.64 107.376 105.664 107.667 104.695Z" fill="#001640"/>
<path d="M113.723 105.123C113.244 106.012 112.554 106.708 111.664 107.181C112.137 106.292 112.833 105.602 113.723 105.123Z" fill="#001640"/>
<path d="M111.664 105.123C112.554 105.602 113.249 106.292 113.723 107.181C112.833 106.708 112.143 106.012 111.664 105.123Z" fill="#001640"/>
<path d="M114.151 106.155C113.181 106.446 112.206 106.451 111.236 106.155C112.206 105.858 113.181 105.864 114.151 106.155Z" fill="#001640"/>
<path d="M112.691 104.695C112.982 105.664 112.988 106.64 112.691 107.609C112.394 106.64 112.4 105.664 112.691 104.695Z" fill="#001640"/>
<path d="M118.747 105.123C118.268 106.012 117.578 106.708 116.688 107.181C117.162 106.292 117.858 105.602 118.747 105.123Z" fill="#001640"/>
<path d="M116.688 105.123C117.578 105.602 118.274 106.292 118.747 107.181C117.858 106.708 117.168 106.012 116.688 105.123Z" fill="#001640"/>
<path d="M119.169 106.155C118.2 106.446 117.224 106.451 116.255 106.155C117.224 105.858 118.2 105.864 119.169 106.155Z" fill="#001640"/>
<path d="M117.714 104.695C118.005 105.664 118.011 106.64 117.714 107.609C117.418 106.64 117.424 105.664 117.714 104.695Z" fill="#001640"/>
<path d="M123.766 105.123C123.287 106.012 122.597 106.708 121.707 107.181C122.18 106.292 122.876 105.602 123.766 105.123Z" fill="#001640"/>
<path d="M121.707 105.123C122.597 105.602 123.292 106.292 123.766 107.181C122.876 106.708 122.186 106.012 121.707 105.123Z" fill="#001640"/>
<path d="M124.194 106.155C123.224 106.446 122.249 106.451 121.279 106.155C122.249 105.858 123.224 105.864 124.194 106.155Z" fill="#001640"/>
<path d="M122.739 104.695C123.03 105.664 123.035 106.64 122.739 107.609C122.442 106.64 122.448 105.664 122.739 104.695Z" fill="#001640"/>
<path d="M128.79 105.123C128.311 106.012 127.621 106.708 126.731 107.181C127.205 106.292 127.901 105.602 128.79 105.123Z" fill="#001640"/>
<path d="M126.731 105.123C127.621 105.602 128.317 106.292 128.79 107.181C127.901 106.708 127.21 106.012 126.731 105.123Z" fill="#001640"/>
<path d="M129.218 106.155C128.248 106.446 127.273 106.451 126.304 106.155C127.273 105.858 128.248 105.864 129.218 106.155Z" fill="#001640"/>
<path d="M127.763 104.695C128.054 105.664 128.06 106.64 127.763 107.609C127.467 106.64 127.472 105.664 127.763 104.695Z" fill="#001640"/>
<path d="M56.4533 217.322L23.5244 243.875H25.3779L63.4109 217.322H56.4533Z" fill="#C7C7C7"/>
<path d="M59.5497 217.322L43.2734 243.875H45.1326L65.0758 217.322H59.5497Z" fill="#C7C7C7"/>
<path d="M67.528 217.322L83.7985 243.875H81.945L61.9961 217.322H67.528Z" fill="#C7C7C7"/>
<path d="M70.3687 217.322L103.298 243.875H101.444L63.4111 217.322H70.3687Z" fill="#C7C7C7"/>
<path d="M125.328 207.582V199.814L80.1094 197.955L56.2197 134.185H1.49414L20.8557 207.582L67.1237 220.567H70.0208L125.328 207.582Z" fill="#455A64"/>
<path opacity="0.1" d="M1.49414 134.185H7.75598L27.9273 201.086L68.8631 212.68L125.328 199.814V207.582L70.0208 220.567H67.1237L20.8557 207.582L1.49414 134.185Z" fill="black"/>
<path d="M100.709 255.948C99.3287 255.424 68.2875 229.988 67.7172 228.272C67.4948 227.622 70.9394 222.882 75.2565 217.276C76.1918 216.067 77.1613 214.824 78.1536 213.564C84.5866 205.386 91.6069 196.86 91.6069 196.86L112.423 213.815L98.3934 230.051L95.3195 233.615C95.3195 233.615 102.847 248.671 103.275 250.622C103.691 252.566 102.095 256.473 100.715 255.948H100.709Z" fill="#AD6359"/>
<path d="M100.709 255.948C99.3291 255.424 68.2879 229.988 67.7176 228.272C67.4553 227.479 72.588 220.653 78.1541 213.564L98.3939 230.051L95.32 233.616C95.32 233.616 102.848 248.671 103.276 250.622C103.692 252.566 102.095 256.473 100.715 255.948H100.709Z" fill="#EBEBEB"/>
<path d="M100.709 255.948C99.3287 255.423 68.2875 229.988 67.7172 228.272C67.4948 227.622 70.9394 222.882 75.2565 217.276L95.3195 233.615C95.3195 233.615 102.847 248.671 103.275 250.622C103.691 252.566 102.095 256.473 100.715 255.948H100.709Z" fill="#00A843"/>
<path d="M101.285 254.34C96.1866 249.948 75.2055 232.72 69.8333 228.768C69.7877 228.733 69.7648 228.768 69.8048 228.802C74.7606 233.262 95.8844 250.325 101.217 254.431C101.331 254.516 101.393 254.437 101.285 254.345V254.34Z" fill="#001640"/>
<path d="M102.192 247.873C101 246.812 99.3116 246.407 98.0398 246.595C96.8137 246.772 95.4507 247.314 94.601 248.42C94.5782 248.454 94.6352 248.5 94.6637 248.472C96.6312 246.681 99.9446 246.407 102.14 247.941C102.186 247.97 102.237 247.913 102.192 247.878V247.873Z" fill="#001640"/>
<path d="M96.9113 235.788C94.8526 234.054 91.8357 232.811 89.1439 233.45C89.0412 233.473 89.0755 233.621 89.1667 233.644C91.8471 234.214 94.2252 234.961 96.7402 236.073C96.917 236.153 97.0596 235.914 96.917 235.788H96.9113Z" fill="#001640"/>
<path d="M98.0061 237.733C95.9473 235.999 92.9304 234.756 90.2386 235.395C90.136 235.418 90.1702 235.566 90.2614 235.589C92.9418 236.159 95.32 236.906 97.835 238.018C98.0118 238.098 98.1543 237.858 98.0118 237.733H98.0061Z" fill="#001640"/>
<path d="M99.1008 239.677C97.042 237.944 94.0251 236.7 91.3334 237.339C91.2307 237.362 91.2649 237.51 91.3562 237.533C94.0366 238.103 96.4147 238.85 98.9297 239.962C99.1065 240.042 99.2491 239.803 99.1065 239.677H99.1008Z" fill="#001640"/>
<path d="M100.196 241.622C98.1367 239.888 95.1199 238.645 92.4281 239.284C92.3254 239.307 92.3596 239.455 92.4509 239.478C95.1313 240.048 97.5094 240.795 100.024 241.907C100.201 241.987 100.344 241.748 100.201 241.622H100.196Z" fill="#001640"/>
<path d="M75.2051 224.912C72.8612 223.008 69.8957 226.64 72.2396 228.551C74.5835 230.461 77.549 226.823 75.2051 224.912Z" fill="white"/>
<path d="M103.714 232.076C103.378 230.336 101.348 230.102 99.956 230.479C97.6976 231.089 95.2853 232.555 93.6999 234.254C93.6599 234.294 93.6828 234.34 93.717 234.368C93.6371 234.556 93.717 234.824 93.9565 234.842C96.2776 235.03 98.7413 235.52 101.051 234.99C102.403 234.682 104.039 233.718 103.72 232.076H103.714ZM97.5323 234.408C96.386 234.345 95.2511 234.22 94.1048 234.197C95.3252 233.461 96.5114 232.68 97.806 232.07C98.4219 231.779 99.0663 231.494 99.7165 231.289C100.732 230.969 104.205 230.907 102.557 233.342C101.65 234.682 98.8953 234.482 97.5323 234.402V234.408Z" fill="#001640"/>
<path d="M87.8949 230.786C89.4803 232.549 91.7729 233.57 93.7804 234.75C93.9914 234.875 94.2024 234.693 94.248 234.499C94.2936 234.499 94.3335 234.471 94.3278 234.414C94.0085 232.11 92.885 229.52 91.3908 227.724C90.4669 226.612 88.6762 225.637 87.3988 226.863C86.1897 228.021 86.9767 229.754 87.9006 230.781L87.8949 230.786ZM87.6098 228.574C87.6668 225.631 90.4612 227.684 91.1114 228.528C91.5277 229.07 91.887 229.674 92.2235 230.267C92.9306 231.511 93.4496 232.834 94.0256 234.134C93.0732 233.49 92.0752 232.936 91.1057 232.332C89.948 231.608 87.5812 230.193 87.6098 228.568V228.574Z" fill="#001640"/>
<path d="M134.043 181.97C132.469 192.874 105.174 224.063 102.021 227.645C101.553 228.169 101.302 228.46 101.302 228.46L79.2488 211.083L79.5111 210.758L99.4258 185.329L40.9648 184.274L63.3718 167.284C63.3718 167.284 65.1625 168.345 68.9093 167.843C81.8379 166.11 110.98 162.283 117.835 162.642C126.68 163.116 135.486 171.967 134.043 181.97Z" fill="#001640"/>
<path d="M106.582 175.867C105.812 176.626 105.197 177.584 104.529 178.434C103.828 179.335 103.109 180.225 102.408 181.126C102.402 181.137 102.396 181.143 102.385 181.154C102.51 180.892 102.636 180.624 102.767 180.361C103.212 179.46 103.577 178.531 104.102 177.675C104.136 177.624 104.056 177.573 104.022 177.624C103.48 178.474 102.853 179.284 102.391 180.185C102.174 180.607 101.963 181.034 101.769 181.468C101.661 181.707 101.552 181.947 101.461 182.186C101.415 182.295 101.364 182.414 101.33 182.534C101.016 182.951 100.703 183.373 100.4 183.8C99.7274 184.747 99.1343 185.751 98.4556 186.692C98.4214 186.743 98.5012 186.789 98.5355 186.743C99.2198 185.859 99.9897 185.038 100.691 184.16C101.404 183.27 102.077 182.352 102.744 181.422C103.394 180.521 104.033 179.609 104.683 178.702C105.339 177.789 106.109 176.894 106.645 175.907C106.662 175.873 106.622 175.833 106.588 175.862L106.582 175.867Z" fill="#37474F"/>
<path d="M104.347 223.333C103.093 222.238 101.747 221.229 100.424 220.213C99.0948 219.193 97.766 218.178 96.4258 217.174C93.7511 215.161 91.0821 213.13 88.3789 211.157C86.8961 210.074 85.3963 209.001 83.8565 207.998C83.788 207.952 83.7139 208.06 83.7766 208.118C86.3201 210.29 89.0233 212.269 91.6923 214.277C94.3727 216.29 97.0588 218.292 99.7677 220.265C101.25 221.343 102.728 222.455 104.273 223.441C104.336 223.481 104.399 223.384 104.347 223.339V223.333Z" fill="#37474F"/>
<path d="M56.8869 138.479C62.9492 150.028 70.1463 162.284 76.967 164.057C83.457 165.745 98.8949 149.577 101.513 144.211C102.414 142.363 90.1922 134.254 88.4642 135.617C85.2021 138.183 78.0677 146.321 77.0469 146.116C75.9918 145.899 67.369 138.194 59.5559 131.71C54.8225 127.781 52.6839 130.473 56.8812 138.474L56.8869 138.479Z" fill="#AD6359"/>
<path d="M90.6654 116.859L85.9946 133.21C85.8064 133.689 86.0346 134.088 86.5079 134.105L95.011 134.373C95.4844 134.39 96.0262 134.014 96.2201 133.535L100.891 117.184C101.085 116.705 100.851 116.306 100.378 116.289L91.8744 116.021C91.4011 116.004 90.8593 116.38 90.6654 116.859Z" fill="#A6A6A6"/>
<path d="M91.6746 116.882L87.0038 133.233C86.8099 133.712 87.0438 134.111 87.5171 134.128L96.0202 134.396C96.4936 134.413 97.0354 134.037 97.2293 133.558L101.9 117.207C102.094 116.728 101.86 116.329 101.387 116.312L92.8836 116.044C92.4102 116.027 91.8685 116.403 91.6746 116.882Z" fill="#DBDBDB"/>
<path d="M93.9841 117.709C93.9613 118.108 93.6248 118.416 93.2256 118.393C92.8264 118.37 92.5184 118.034 92.5412 117.635C92.564 117.236 92.9005 116.928 93.2997 116.95C93.6989 116.973 94.0069 117.31 93.9841 117.709Z" fill="#455A64"/>
<path d="M105.447 134.96C106.166 130.21 105.619 128.875 108.356 125.186C110.152 122.762 109.377 120.578 106.554 121.941C101.934 124.165 99.7217 130.102 99.5449 132.383L105.447 134.96Z" fill="#AD6359"/>
<path d="M99.3172 147.416C99.3172 147.416 103.754 142.237 105.02 137.247C105.893 133.797 106.965 126.081 99.4199 118.593C97.6292 116.819 93.8253 115.559 95.6902 119.517C97.019 122.328 98.707 123.714 99.1861 125.488C99.1861 125.488 94.1504 124.461 92.4452 126.321C91.681 127.153 89.6507 129.474 88.3277 131.505C88.3277 131.505 88.6926 131.909 89.2287 132.36C89.2287 132.36 87.7973 134.248 88.0995 137.84L99.323 147.41L99.3172 147.416Z" fill="#AD6359"/>
<path d="M105.322 133.82C104.478 132.155 102.63 128.659 100.127 126.326C97.3438 123.731 91.2815 119.488 89.3882 121.558C88.0023 123.081 90.1695 124.906 90.1695 124.906C90.1695 124.906 87.2952 123.68 86.3428 125.328C85.4759 126.828 87.2382 128.14 87.2382 128.14C87.2382 128.14 85.3676 127.695 84.8087 129.303C84.1357 131.236 88.1677 131.852 89.1829 134.396C89.411 134.966 105.322 133.82 105.322 133.82Z" fill="#AD6359"/>
<path d="M97.8802 129.725C96.8309 128.288 93.6087 125.642 90.2497 124.884C90.1756 124.866 90.1185 124.912 90.187 124.946C93.7057 126.572 96.6598 128.75 97.8574 129.754C97.8745 129.765 97.8917 129.743 97.8802 129.725Z" fill="#001640"/>
<path d="M95.177 132.457C94.1448 131.31 90.7002 128.733 87.2727 128.077C87.1986 128.06 87.1473 128.117 87.2157 128.14C90.9625 129.685 93.9053 131.55 95.1599 132.48C95.177 132.491 95.1941 132.468 95.1827 132.451L95.177 132.457Z" fill="#001640"/>
<path d="M84.25 137.727L96.979 151.225C96.979 151.225 83.5314 166.298 77.2182 164.724C70.905 163.15 58.9688 146.059 55.1421 135.212C52.4959 127.706 56.6705 128.91 61.056 132.588C65.4416 136.267 76.9103 145.403 77.4121 145.266C77.914 145.129 84.2443 137.727 84.2443 137.727H84.25Z" fill="#00A843"/>
<path opacity="0.1" d="M79.9399 164.583C78.9476 164.851 78.0294 164.925 77.2253 164.725C70.9121 163.151 58.9758 146.059 55.1491 135.212C53.404 130.262 54.6245 129.104 56.9171 129.943C63.7948 140.145 72.9481 153.821 79.9399 164.583Z" fill="black"/>
<path d="M92.8553 153.467C91.0132 151.608 83.7419 143.715 82.2877 141.901C82.185 141.776 82.2421 141.679 82.3618 141.799C88.0191 147.245 91.2071 151.477 92.9237 153.393C92.9693 153.438 92.9009 153.518 92.8553 153.467Z" fill="#001640"/>
<path d="M71.0419 175.029C71.0419 175.029 29.245 182.671 29.0339 182.42C28.84 182.198 33.6305 136.985 47.8195 129.343C50.0664 128.134 55.4957 127.416 57.8168 129.782C64.4265 136.523 71.5951 174.419 71.0476 175.035L71.0419 175.029Z" fill="#00A843"/>
<path d="M70.6083 171.277L29.4443 178.337C29.5983 177.094 29.8093 175.611 30.066 173.94L69.8498 167.114C70.152 168.693 70.4087 170.096 70.6083 171.271V171.277Z" fill="#EBEBEB"/>
<path d="M69.4047 164.913L30.4307 171.602C30.5504 170.861 30.6816 170.102 30.8242 169.315L68.9541 162.774C69.1138 163.504 69.2621 164.222 69.399 164.918L69.4047 164.913Z" fill="#EBEBEB"/>
<path d="M55.9693 136.66C53.6368 136.648 50.6656 132.36 49.8272 129.269C49.7702 129.058 50.5344 127.153 51.3556 124.792C51.8461 123.36 52.3593 121.752 52.7243 120.247L61.5867 124.809C61.5867 124.809 59.8986 127.735 59.2827 130.352C59.2314 130.575 59.2086 130.78 59.1972 130.985C59.1972 131.014 59.1972 131.048 59.1858 131.088C59.0945 132.303 58.222 136.665 55.9636 136.66H55.9693Z" fill="#AD6359"/>
<path d="M61.5869 124.809C61.5869 124.809 59.8988 127.729 59.2829 130.358C59.2373 130.575 59.2031 130.786 59.1974 130.985C59.1974 131.014 59.1974 131.048 59.186 131.088C58.8837 131.065 58.5586 131.003 58.2051 130.906C52.7587 129.457 52.85 122.306 52.9812 120.378L61.5869 124.809Z" fill="#001640"/>
<path d="M52.3424 109.913C50.9223 113.209 51.6409 123.269 53.8251 125.739C56.996 129.315 62.7217 130.256 65.8983 126.321C68.9779 122.511 67.8145 109.417 65.3223 107.119C61.6496 103.737 54.4411 105.037 52.3481 109.913H52.3424Z" fill="#AD6359"/>
<path d="M61.5228 117.15C61.5228 117.15 61.4715 117.184 61.4772 117.213C61.5627 117.88 61.5399 118.662 60.9582 118.941C60.9411 118.947 60.9468 118.981 60.9696 118.975C61.6996 118.804 61.7167 117.766 61.5285 117.145L61.5228 117.15Z" fill="#001640"/>
<path d="M60.8558 116.506C59.7666 116.523 59.8806 118.696 60.8901 118.684C61.8824 118.667 61.7683 116.494 60.8558 116.506Z" fill="#001640"/>
<path d="M65.4755 116.934C65.4755 116.934 65.5325 116.962 65.5325 116.991C65.5439 117.664 65.6751 118.433 66.2967 118.627C66.3138 118.633 66.3138 118.667 66.2967 118.667C65.5496 118.605 65.3842 117.578 65.4812 116.934H65.4755Z" fill="#001640"/>
<path d="M66.0406 116.203C67.1184 116.067 67.318 118.234 66.32 118.359C65.3334 118.485 65.1338 116.318 66.0406 116.203Z" fill="#001640"/>
<path d="M59.9438 115.559C60.2347 115.468 60.4913 115.337 60.7708 115.217C61.0844 115.08 61.3525 115.006 61.5464 114.709C61.649 114.55 61.592 114.276 61.4437 114.156C61.1015 113.882 60.6738 113.951 60.286 114.099C59.864 114.259 59.5845 114.487 59.3564 114.875C59.1397 115.251 59.556 115.679 59.9381 115.559H59.9438Z" fill="#001640"/>
<path d="M66.8269 115.063C66.5246 115.029 66.2452 114.949 65.9486 114.886C65.6121 114.812 65.3384 114.789 65.0875 114.533C64.9563 114.396 64.962 114.111 65.0875 113.968C65.3726 113.637 65.806 113.626 66.2109 113.694C66.6501 113.768 66.9751 113.945 67.266 114.282C67.5511 114.607 67.2261 115.109 66.8212 115.063H66.8269Z" fill="#001640"/>
<path d="M61.1241 123.144C61.261 123.321 61.3921 123.561 61.6317 123.618C61.8598 123.669 62.1506 123.606 62.373 123.555C62.3959 123.555 62.413 123.578 62.3959 123.595C62.1849 123.829 61.7971 123.937 61.4948 123.834C61.1982 123.737 61.0899 123.458 61.0557 123.167C61.0557 123.127 61.1013 123.121 61.1241 123.144Z" fill="#001640"/>
<path d="M61.8712 121.159C62.2818 121.724 62.8521 122.015 63.4566 122.1C63.7246 122.14 64.0098 122.135 64.2835 122.095C64.3349 122.095 64.5345 122.049 64.5858 122.038C64.6656 122.021 64.7055 121.952 64.7113 121.878C64.7113 121.849 64.5915 120.435 64.5915 120.435C64.7854 120.521 65.7777 120.903 65.7435 120.635C65.4926 118.399 65.2131 115.913 64.4888 113.74C64.466 113.666 64.3577 113.689 64.3691 113.763C64.5288 115.924 65.0648 118.04 65.253 120.201C64.9394 120.099 64.4261 119.91 64.1524 119.928C64.1124 119.939 64.3463 121.69 64.3406 121.701C63.4737 121.861 62.8065 121.633 61.9282 121.091C61.8769 121.057 61.8256 121.102 61.8712 121.154V121.159Z" fill="#001640"/>
<path d="M64.0619 121.992C64.0619 121.992 63.5829 122.648 62.9213 122.887C62.6761 122.979 62.4138 123.013 62.14 122.939C61.5754 122.79 61.5583 122.271 61.661 121.827C61.7465 121.462 61.9119 121.148 61.9119 121.148C61.9119 121.148 62.7388 121.918 64.0676 121.998L64.0619 121.992Z" fill="#001640"/>
<path d="M62.9213 122.887C62.6761 122.979 62.4138 123.013 62.14 122.939C61.5754 122.79 61.5583 122.271 61.661 121.827C62.2655 121.889 62.87 122.294 62.9213 122.887Z" fill="#FF9CBD"/>
<path d="M51.4124 118.998C54.0357 119.203 55.4273 116.084 54.8285 113.563C54.8285 113.563 61.7975 114.538 62.1739 108.943C62.1739 108.943 63.8334 111.487 66.9929 111.595L67.4548 113.563C68.1734 113.363 68.949 111.333 67.2096 109.725C67.2096 109.725 67.1069 106.93 65.0653 105.242C63.0179 103.554 60.9648 104.638 60.9648 104.638C60.9648 104.638 59.3395 103.258 56.7675 103.571C54.1954 103.879 53.1176 106.217 53.1176 106.217C53.1176 106.217 49.6559 106.85 49.0514 109.303C48.4469 111.755 49.7015 113.409 49.7015 113.409C49.7015 113.409 48.829 114.367 49.251 116.466C49.5247 117.817 50.6197 118.946 51.4067 119.003L51.4124 118.998Z" fill="#001640"/>
<path d="M62.0261 108.447C62.0717 108.904 62.0831 109.365 62.0261 109.816C61.9976 110.267 61.9006 110.711 61.7637 111.139C61.4786 111.983 60.914 112.719 60.1327 113.135C59.3742 113.614 58.4446 113.683 57.555 113.762C57.1044 113.745 56.6482 113.762 56.192 113.717C55.7357 113.665 55.2852 113.608 54.8232 113.569C55.2681 113.683 55.7186 113.774 56.1691 113.876C56.6254 113.951 57.0873 113.968 57.555 114.013C58.4731 113.985 59.4483 113.911 60.2867 113.42C61.1193 112.947 61.7466 112.126 61.9919 111.213C62.2371 110.301 62.2314 109.343 62.0147 108.453L62.0261 108.447Z" fill="#001640"/>
<path d="M65.5957 111.709C64.8201 111.419 64.1015 111.059 63.4913 110.552C63.1776 110.307 62.9153 110.01 62.6815 109.696C62.4362 109.383 62.2823 109.012 62.1055 108.63C62.1511 109.04 62.2537 109.457 62.4762 109.828C62.6815 110.198 62.9609 110.535 63.2917 110.803C63.6225 111.071 63.9931 111.287 64.3867 111.436C64.7802 111.584 65.1908 111.692 65.6071 111.704L65.5957 111.709Z" fill="#001640"/>
<path d="M60.1942 120.549C58.8883 120.487 57.7363 119.546 57.4625 118.205C57.1432 116.62 58.1697 115.069 59.7494 114.744C61.3348 114.419 62.886 115.445 63.2111 117.031C63.5305 118.616 62.5039 120.167 60.9242 120.492C60.679 120.544 60.4338 120.561 60.1999 120.549H60.1942ZM60.4623 115.08C60.257 115.069 60.046 115.08 59.835 115.126C58.4605 115.405 57.5709 116.751 57.8503 118.12C58.1298 119.494 59.4757 120.384 60.8444 120.104C62.2188 119.825 63.1085 118.479 62.829 117.11C62.5952 115.947 61.5972 115.131 60.4623 115.08Z" fill="#00A843"/>
<path d="M66.907 120.059C65.7836 120.002 64.8255 118.804 64.7228 117.281C64.6715 116.511 64.8426 115.77 65.2019 115.194C65.5725 114.595 66.1086 114.247 66.7017 114.207C67.3005 114.168 67.8708 114.441 68.3214 114.983C68.7548 115.502 69.0285 116.215 69.0799 116.985C69.1882 118.599 68.3043 119.979 67.1009 120.059C67.0382 120.059 66.9698 120.059 66.907 120.059ZM66.8728 114.595C66.8215 114.595 66.7759 114.595 66.7245 114.595C66.2569 114.629 65.8349 114.915 65.5269 115.399C65.2076 115.907 65.0593 116.563 65.1049 117.253C65.2019 118.65 66.0801 119.734 67.0667 119.665C68.0533 119.597 68.7776 118.405 68.6807 117.008C68.635 116.318 68.3955 115.69 68.0134 115.228C67.6826 114.835 67.2834 114.612 66.8671 114.595H66.8728Z" fill="#00A843"/>
<path d="M63.137 117.384L62.8633 117.099C63.2796 116.694 64.2719 116.124 65.0418 116.842L64.7738 117.127C64.0894 116.483 63.1769 117.344 63.137 117.384Z" fill="#00A843"/>
<path d="M50.7392 119.095L50.3799 118.941C50.454 118.776 51.1156 117.299 51.9767 117.093C52.7865 116.905 57.4744 116.973 57.7025 116.979L57.6911 117.373C56.1798 117.333 52.6896 117.333 52.068 117.481C51.4977 117.612 50.916 118.696 50.7392 119.101V119.095Z" fill="#00A843"/>
<path d="M53.8879 118.821C53.8879 118.821 51.9432 115.422 50.4205 116.089C48.8979 116.756 50.1639 121.541 51.8064 122.328C53.4488 123.115 54.2073 121.604 54.2073 121.604L53.8879 118.821Z" fill="#AD6359"/>
<path d="M50.82 117.452C50.82 117.452 50.7858 117.486 50.8086 117.498C51.9606 118.091 52.4853 119.254 52.8218 120.441C52.5081 119.967 52.0462 119.682 51.4131 120.053C51.3789 120.07 51.4074 120.121 51.4417 120.121C51.9378 120.058 52.2857 120.178 52.5822 120.6C52.7933 120.897 52.9187 121.262 53.0556 121.598C53.1012 121.712 53.3008 121.672 53.2723 121.541C53.2723 121.53 53.2723 121.524 53.2666 121.513C53.432 119.996 52.4454 117.76 50.82 117.458V117.452Z" fill="#001640"/>
<path d="M59.3279 132.16C59.3279 132.16 59.2937 132.138 59.2937 132.16C59.1968 134.059 58.8546 138.456 55.7921 137.852C54.5603 137.607 53.5109 136.74 52.6441 135.907C51.7544 135.052 49.8268 132.662 48.555 130.039C48.5322 129.987 48.4581 130.027 48.4752 130.084C48.6805 130.797 49.2394 132.08 49.9637 133.261C50.6594 134.396 51.4807 135.474 52.473 136.392C53.4026 137.253 54.526 138.126 55.8377 138.325C57.0867 138.513 58.0847 137.869 58.5808 136.803C59.231 135.4 59.4021 133.689 59.3279 132.166V132.16Z" fill="#001640"/>
<path d="M43.1311 132.947C36.6069 138.667 19.8801 161.177 23.9862 166.002C28.1209 170.861 53.904 167.479 61.3292 164.81C63.5362 164.017 56.8467 150.073 54.4001 149.52C52.3642 149.058 41.3346 152.822 41.0894 152.183C40.8157 151.465 42.9942 146.572 46.4502 137.664C50.4366 127.393 46.0111 130.415 43.1254 132.942L43.1311 132.947Z" fill="#AD6359"/>
<path d="M65.293 146.332C70.4884 146.133 71.8514 146.88 76.1457 144.382C78.963 142.745 81.2213 143.84 79.4192 146.709C76.4708 151.402 69.8268 153.067 67.3517 152.982L65.293 146.326V146.332Z" fill="#AD6359"/>
<path d="M51.1952 149.896C51.1952 149.896 57.2688 147.279 62.7836 146.52C66.5988 145.996 75.0221 145.773 82.1565 154.784C83.8503 156.923 84.7456 161.166 80.7136 158.679C77.8508 156.917 76.5676 154.932 74.7141 154.208C74.7141 154.208 75.216 159.74 73.009 161.354C72.0223 162.072 69.2849 163.977 66.9467 165.158C66.9467 165.158 66.5532 164.718 66.1312 164.085C66.1312 164.085 63.9298 165.397 60.1032 164.644L51.1895 149.908L51.1952 149.896Z" fill="#AD6359"/>
<path d="M66.5017 146.594C68.1898 147.701 71.7256 150.107 73.9326 153.079C76.3849 156.381 80.2173 163.407 77.7593 165.192C75.9572 166.503 74.2577 163.948 74.2577 163.948C74.2577 163.948 75.2329 167.188 73.3452 168.015C71.6286 168.767 70.431 166.714 70.431 166.714C70.431 166.714 70.6819 168.779 68.8855 169.184C66.7241 169.674 66.553 165.266 63.9354 163.868C63.348 163.555 66.496 146.594 66.496 146.594H66.5017Z" fill="#AD6359"/>
<path d="M70.0146 155.092C71.4289 156.392 73.8869 160.173 74.3032 163.874C74.3146 163.96 74.2519 164.011 74.229 163.937C72.906 159.956 70.9156 156.523 69.986 155.12C69.9746 155.103 70.0031 155.08 70.0146 155.097V155.092Z" fill="#001640"/>
<path d="M66.7525 157.664C67.8589 158.913 70.2199 162.922 70.505 166.686C70.5107 166.771 70.448 166.817 70.4252 166.743C69.2162 162.528 67.5623 159.147 66.7126 157.687C66.7012 157.669 66.7297 157.647 66.7468 157.664H66.7525Z" fill="#001640"/>
<path d="M74.72 154.168C76.3397 154.829 77.3434 155.753 78.655 156.877C79.3052 157.43 79.961 157.977 80.6682 158.456C81.3126 158.89 82.2593 159.551 83.0406 159.044C83.474 158.764 83.5311 158.183 83.4855 157.709C83.4341 157.185 83.0235 156.175 82.7612 155.719C82.7498 155.696 82.7897 155.673 82.8011 155.696C83.0463 156.107 83.514 157.025 83.6337 157.487C83.7421 157.909 83.8105 158.388 83.6565 158.804C83.3201 159.7 82.2194 159.711 81.478 159.38C81.0332 159.181 80.6226 158.896 80.2291 158.61C79.847 158.337 79.482 158.046 79.117 157.749C78.3756 157.133 77.6741 156.478 76.9385 155.85C76.1343 155.166 75.5641 154.812 74.6915 154.219C74.663 154.196 74.6915 154.151 74.72 154.168Z" fill="#001640"/>
<path d="M77.6287 160.39C77.2922 159.392 75.3532 155.195 74.6859 154.202C74.6688 154.18 74.703 154.151 74.7259 154.174C75.9007 155.537 77.6629 159.021 78.045 160.122C78.4214 161.206 78.8434 162.591 78.7293 163.743C78.5525 165.489 77.3663 165.7 76.9272 165.745C76.4082 165.797 75.9007 165.637 75.4672 165.352C74.9825 165.038 74.5434 164.439 74.2468 163.954C74.2297 163.932 74.2639 163.897 74.2867 163.926C74.8228 164.673 75.7581 165.454 76.7162 165.426C77.1325 165.414 77.5659 165.266 77.8511 164.953C78.1876 164.582 78.2617 164.057 78.2731 163.578C78.2902 162.489 77.9765 161.417 77.6287 160.396V160.39Z" fill="#001640"/>
<path d="M51.1955 149.897L57.5657 167.69C57.5657 167.69 25.2756 171.614 23.1027 165.842C20.9299 160.071 35.3527 139.785 41.5062 134.077C48.6406 127.456 49.2109 130.01 47.1521 136.306C44.9964 142.899 41.1697 152.355 41.1697 152.355L51.1955 149.897Z" fill="#00A843"/>
<path d="M31.1153 155.913C32.6779 155.035 34.3204 154.311 35.9913 153.672C37.6452 153.039 39.3618 152.583 41.0841 152.201C42.0707 151.978 43.063 151.807 44.061 151.63C44.0895 151.63 44.1009 151.67 44.0667 151.676C42.3273 152.035 40.6107 152.549 38.9284 153.107C37.2517 153.661 35.5864 154.248 33.9269 154.864C32.9916 155.212 32.0677 155.605 31.1438 155.987C31.0982 156.005 31.0754 155.942 31.1153 155.925V155.913Z" fill="#001640"/>
<path d="M51.1151 149.84C50.9497 149.863 42.0303 151.853 41.7337 151.956C41.785 151.83 43.7925 147.393 44.0947 146.743C44.1232 146.68 44.1518 146.612 44.1803 146.549C44.3685 146.264 44.5567 145.985 44.7335 145.688C44.9616 145.312 45.184 144.941 45.4064 144.565C45.4121 144.553 45.395 144.542 45.3893 144.553C45.1498 144.918 44.9103 145.277 44.6707 145.648C44.5624 145.819 44.454 145.99 44.3514 146.161C44.551 145.699 44.7449 145.237 44.9388 144.776C45.2467 144.034 45.5319 143.287 45.817 142.54C45.8284 142.517 45.7885 142.506 45.7771 142.529C45.184 143.823 44.551 145.095 43.9522 146.389C43.3591 147.678 41.0836 152.429 41.1007 152.429C41.1178 152.44 50.9497 150.028 51.1379 149.971C51.212 149.948 51.1949 149.84 51.1151 149.851V149.84Z" fill="#001640"/>
<path d="M50.5852 160.977C49.8895 158.993 49.2051 157.002 48.4295 155.041C47.9904 153.929 47.557 152.811 47.1064 151.704C47.0893 151.665 47.0152 151.687 47.0266 151.727C47.6482 153.746 48.2755 155.771 48.9941 157.761C49.707 159.74 50.397 161.73 51.1384 163.703C51.5547 164.827 52.011 165.928 52.4957 167.023C52.5071 167.045 52.5413 167.034 52.5356 167.011C51.9824 164.97 51.2867 162.973 50.5852 160.977Z" fill="#001640"/>
<path d="M57.9418 167.998C57.6794 167.445 57.3544 166.652 57.0692 166.105C56.9951 165.962 56.8867 165.979 56.9437 166.127C57.1376 166.623 57.2802 167.182 57.4741 167.69C57.0236 167.736 56.5674 167.77 56.1168 167.815C55.5921 167.872 55.0732 167.929 54.5485 167.986C53.522 168.095 52.5011 168.186 51.4746 168.272C49.3987 168.443 47.3172 168.574 45.2356 168.654C41.061 168.825 36.8694 168.836 32.6948 168.574C31.5257 168.5 30.3623 168.403 29.1989 168.272C28.0184 168.135 26.7466 167.987 25.7828 167.764C25.7543 167.758 25.7429 167.81 25.7714 167.821C26.7637 168.129 27.6933 168.351 28.7198 168.511C29.7692 168.671 30.8185 168.796 31.8736 168.893C33.978 169.081 36.088 169.156 38.1981 169.173C42.3784 169.207 46.5644 169.059 50.7389 168.751C51.908 168.665 53.0771 168.562 54.2405 168.448C54.828 168.391 55.4154 168.334 56.0028 168.26C56.5902 168.192 57.9931 168.101 57.9475 168.004L57.9418 167.998Z" fill="#001640"/>
<path d="M99.545 167.604H58.8887V169.423H99.545V167.604Z" fill="#C7C7C7"/>
<path d="M99.5447 167.604V169.423H71.9082L73.3054 167.604H99.5447Z" fill="#A6A6A6"/>
<path d="M77.5029 169.423H113.084L118.233 144.319H82.647L77.5029 169.423Z" fill="#A6A6A6"/>
<path d="M79.1621 169.423H114.743L119.893 144.319H84.3119L79.1621 169.423Z" fill="#C7C7C7"/>
<path d="M102.738 155.936C102.778 157.122 101.98 158.257 100.965 158.468C99.9497 158.679 99.0942 157.892 99.06 156.705C99.0201 155.519 99.8185 154.384 100.834 154.173C101.849 153.962 102.704 154.749 102.738 155.936Z" fill="white"/>
<path d="M182.404 221.531C181.874 222.911 156.342 253.873 154.619 254.437C153.969 254.654 149.241 251.198 143.653 246.864C142.443 245.928 141.206 244.953 139.951 243.955C131.796 237.494 123.293 230.445 123.293 230.445L140.311 209.686L156.501 223.767L160.06 226.852C160.06 226.852 175.139 219.37 177.089 218.953C179.034 218.543 182.934 220.151 182.404 221.531Z" fill="#AD6359"/>
<path d="M182.404 221.531C181.873 222.911 156.341 253.873 154.619 254.437C153.826 254.7 147.011 249.544 139.945 243.955L156.495 223.767L160.054 226.852C160.054 226.852 175.133 219.37 177.083 218.953C179.028 218.543 182.928 220.151 182.398 221.531H182.404Z" fill="#EBEBEB"/>
<path d="M182.404 221.531C181.874 222.911 156.341 253.873 154.619 254.437C153.969 254.654 149.241 251.198 143.652 246.864L160.054 226.858C160.054 226.858 175.133 219.376 177.083 218.959C179.028 218.549 182.929 220.157 182.398 221.537L182.404 221.531Z" fill="#00A843"/>
<path d="M180.801 220.956C176.393 226.043 159.096 246.967 155.126 252.328C155.092 252.373 155.126 252.396 155.161 252.356C159.638 247.412 176.763 226.351 180.887 221.03C180.972 220.916 180.892 220.853 180.801 220.961V220.956Z" fill="#001640"/>
<path d="M174.329 220.032C173.262 221.224 172.857 222.906 173.034 224.183C173.205 225.41 173.741 226.778 174.848 227.628C174.882 227.651 174.928 227.594 174.899 227.565C173.114 225.592 172.852 222.273 174.391 220.089C174.42 220.043 174.363 219.992 174.329 220.037V220.032Z" fill="#001640"/>
<path d="M162.233 225.267C160.493 227.32 159.239 230.331 159.872 233.023C159.894 233.126 160.043 233.092 160.066 233C160.647 230.326 161.394 227.942 162.518 225.438C162.598 225.261 162.358 225.119 162.233 225.261V225.267Z" fill="#001640"/>
<path d="M164.183 224.178C162.443 226.231 161.189 229.242 161.822 231.934C161.845 232.036 161.993 232.002 162.016 231.911C162.597 229.236 163.345 226.852 164.468 224.349C164.548 224.172 164.308 224.029 164.183 224.172V224.178Z" fill="#001640"/>
<path d="M166.127 223.094C164.388 225.147 163.133 228.158 163.766 230.85C163.789 230.953 163.937 230.919 163.96 230.827C164.542 228.153 165.289 225.769 166.412 223.265C166.492 223.088 166.253 222.946 166.127 223.089V223.094Z" fill="#001640"/>
<path d="M168.078 222.005C166.339 224.058 165.084 227.069 165.717 229.761C165.74 229.864 165.888 229.829 165.911 229.738C166.493 227.063 167.246 224.68 168.363 222.176C168.443 221.999 168.204 221.857 168.078 221.999V222.005Z" fill="#001640"/>
<path d="M151.283 246.938C149.367 249.276 152.994 252.253 154.916 249.915C156.832 247.577 153.205 244.6 151.283 246.938Z" fill="white"/>
<path d="M158.542 218.452C156.803 218.782 156.563 220.813 156.934 222.204C157.533 224.463 158.993 226.881 160.687 228.472C160.726 228.512 160.772 228.495 160.801 228.455C160.989 228.535 161.257 228.455 161.274 228.221C161.468 225.9 161.97 223.442 161.445 221.126C161.143 219.775 160.185 218.138 158.537 218.452H158.542ZM160.858 224.639C160.789 225.786 160.664 226.921 160.635 228.067C159.905 226.841 159.13 225.655 158.525 224.36C158.234 223.738 157.949 223.1 157.749 222.444C157.436 221.429 157.379 217.956 159.814 219.615C161.154 220.528 160.943 223.276 160.863 224.645L160.858 224.639Z" fill="#001640"/>
<path d="M157.202 234.272C158.97 232.692 159.996 230.399 161.183 228.398C161.308 228.192 161.131 227.976 160.932 227.93C160.932 227.884 160.903 227.844 160.852 227.85C158.548 228.164 155.953 229.276 154.151 230.77C153.039 231.688 152.058 233.479 153.278 234.762C154.436 235.971 156.17 235.196 157.202 234.272ZM154.984 234.551C152.041 234.488 154.105 231.694 154.949 231.05C155.491 230.633 156.096 230.28 156.694 229.943C157.943 229.242 159.266 228.728 160.567 228.152C159.922 229.099 159.363 230.097 158.753 231.067C158.029 232.224 156.603 234.585 154.978 234.551H154.984Z" fill="#001640"/>
<path d="M155.663 220.596L136.712 243.054L79.5511 202.352L73.9223 198.343C73.9223 198.343 72.3026 199.404 69.8675 200.715C66.4856 202.535 61.5297 204.827 57.167 205.415C49.8444 206.407 38.8263 206.156 32.764 197.847C27.6599 190.849 29.405 181.821 29.405 181.821L37.469 178.474C37.469 178.474 56.6537 162.882 68.9607 162.557C74.1903 162.414 81.7467 166.463 88.7442 170.689C95.7361 174.904 155.657 220.607 155.657 220.607L155.663 220.596Z" fill="#001640"/>
<path d="M73.9276 198.343C73.9276 198.343 72.308 199.404 69.8728 200.715C65.6584 195.543 56.7161 186.133 56.4424 185.796L73.9276 198.343Z" fill="#37474F"/>
<path d="M44.5004 173.256C43.3541 174.031 42.2477 174.852 41.1185 175.651C40.0064 176.432 38.8601 177.168 37.8051 178.023C36.7272 178.896 35.7064 179.825 34.6913 180.766C34.2008 181.223 33.7161 181.679 33.2427 182.147C32.7751 182.614 32.2504 183.082 31.8569 183.612C31.8227 183.664 31.8911 183.721 31.9367 183.692C32.4842 183.35 32.9747 182.882 33.4708 182.472C34.0069 182.032 34.5373 181.582 35.0734 181.143C36.1056 180.287 37.1549 179.455 38.1872 178.599C39.208 177.75 40.1604 176.814 41.1698 175.947C42.2534 175.024 43.394 174.162 44.5175 173.29C44.5403 173.273 44.5175 173.239 44.4946 173.256H44.5004Z" fill="#37474F"/>
<path d="M149.811 218.429C148.665 219.638 147.599 220.938 146.527 222.215C145.449 223.499 144.382 224.788 143.321 226.076C141.2 228.666 139.056 231.243 136.968 233.861C135.822 235.298 134.687 236.747 133.621 238.247C133.575 238.315 133.678 238.389 133.735 238.332C136.016 235.885 138.103 233.268 140.225 230.684C142.346 228.095 144.462 225.495 146.549 222.871C147.69 221.434 148.865 220.008 149.914 218.509C149.954 218.446 149.863 218.377 149.811 218.434V218.429Z" fill="#37474F"/>
<path d="M106.851 221.725C103.948 219.381 97.3439 214.79 94.3327 212.589C91.3387 210.399 88.3446 208.203 85.305 206.076C84.4324 205.466 83.5485 204.867 82.6702 204.268C81.7919 203.669 80.8795 203.116 80.0183 202.495C79.967 202.46 79.9214 202.54 79.9727 202.58C80.7597 203.162 81.5068 203.812 82.2824 204.411C83.0238 204.987 83.7595 205.569 84.5065 206.133C85.9665 207.24 87.4379 208.329 88.9092 209.418C91.8919 211.631 94.8973 213.815 97.9313 215.948C99.6536 217.163 104.963 220.75 106.725 221.907C106.828 221.976 106.959 221.811 106.856 221.731L106.851 221.725Z" fill="#37474F"/>
<path d="M125.625 197.63C122.944 195.354 116.825 190.969 114.013 188.859C111.168 186.726 108.339 184.576 105.482 182.454C102.647 180.356 99.813 178.251 96.9844 176.153C94.2355 174.117 91.5038 172.046 88.601 170.239C87.0099 169.246 85.3789 168.328 83.7022 167.501C82.0712 166.697 80.3774 165.87 78.6323 165.357C78.5809 165.34 78.5524 165.42 78.5981 165.442C80.0295 166.264 81.5351 166.959 82.9893 167.758C84.4208 168.545 85.8351 169.372 87.2209 170.233C90.1066 172.029 92.8212 174.065 95.5529 176.078C101.227 180.264 106.885 184.467 112.599 188.596C115.798 190.906 122.169 195.679 125.493 197.807C125.596 197.875 125.722 197.715 125.625 197.63Z" fill="#37474F"/>
</g>
<defs>
<clipPath id="clip0_47_11969">
<rect width="248.826" height="256" fill="white"/>
</clipPath>
</defs>
</svg>
