<svg width="47" height="46" viewBox="0 0 47 46" fill="none" xmlns="http://www.w3.org/2000/svg">
<path d="M35.5446 8.70108C37.805 4.30404 35.8406 29.1597 29.2492 33.391C22.6577 37.6223 15.5899 34.5283 17.0023 31.3986C17.0023 31.3986 33.2843 13.0981 35.5446 8.70108Z" fill="#00BE13"/>
<path d="M13.6067 18.1248C16.4032 14.9315 34.5745 5.33937 34.5745 7.62042C34.5745 7.62042 21.5252 22.2176 16.3986 29.9737C15.9312 30.681 15.0471 33.7057 14.5125 35.6328C14.3274 36.2998 13.4547 36.4721 13.0338 35.9225C12.8066 35.6258 12.7244 35.2429 12.8098 34.8791L14.0683 29.5192C9.87383 25.8691 10.8102 21.3181 13.6067 18.1248Z" fill="#00BE13"/>
<path d="M14.1182 0H9.02715C4.05395 0 0 3.99727 0 8.90089V13.7116C0 14.6644 0.801368 15.4545 1.76772 15.4545C2.73408 15.4545 3.53545 14.6644 3.53545 13.7116V8.90089C3.53545 5.90294 6.01023 3.48599 9.02715 3.48599H14.1182C15.0846 3.48599 15.8859 2.69583 15.8859 1.74299C15.8859 0.790157 15.1081 0 14.1182 0Z" fill="#068042"/>
<path d="M37.6956 0H32.6046C31.6383 0 30.8369 0.790157 30.8369 1.74299C30.8369 2.69583 31.6383 3.48599 32.6046 3.48599H37.6956C40.7361 3.48599 43.1873 5.92618 43.1873 8.90089V13.7116C43.1873 14.6644 43.9887 15.4545 44.955 15.4545C45.9214 15.4545 46.7227 14.6644 46.7227 13.7116V8.90089C46.7463 3.99727 42.6923 0 37.6956 0Z" fill="#068042"/>
<path d="M14.1182 41.9686H9.02715C5.98666 41.9686 3.53545 39.5284 3.53545 36.5537V31.743C3.53545 30.7902 2.73408 30 1.76772 30C0.801368 30 0 30.7902 0 31.743V36.5537C0 41.4573 4.05395 45.4545 9.02715 45.4545H14.1182C15.0846 45.4545 15.8859 44.6876 15.8859 43.7116C15.8859 42.7587 15.1081 41.9686 14.1182 41.9686Z" fill="#068042"/>
<path d="M44.9551 30C43.9888 30 43.1874 30.7902 43.1874 31.743V36.5537C43.1874 39.5516 40.7126 41.9686 37.6957 41.9686H32.6046C31.6383 41.9686 30.8369 42.7587 30.8369 43.7116C30.8369 44.6644 31.6383 45.4545 32.6046 45.4545H37.6957C42.6689 45.4545 46.7228 41.4573 46.7228 36.5537V31.743C46.7228 30.7669 45.9215 30 44.9551 30Z" fill="#068042"/>
</svg>
